<svg xmlns="http://www.w3.org/2000/svg" xmlns:xlink="http://www.w3.org/1999/xlink" viewBox="0 0 75 74" fill="#fff" fill-rule="evenodd" stroke="#000" stroke-linecap="round" stroke-linejoin="round"><use xlink:href="#A" x="5" y="5"/><symbol id="A" overflow="visible"><g stroke="none" fill-rule="nonzero"><path d="M64 32c0 17.673-14.327 32-32 32S0 49.673 0 32 14.327 0 32 0s32 14.327 32 32" fill="#f03f1e"/><path d="M19.97 31.26c-7.23.7-8.74 2.67-8.74 4.68 0 1.6 1.07 2.63 3 2.63 2.14 0 4.2-1.07 5.83-2.75zm.7 9.93l-.4-2.62a9.3 9.3 0 0 1-7 3.04c-3.53 0-5.75-2.14-5.75-5.46 0-4.88 4.18-6.8 12.35-7.67v-.82c0-2.46-1.48-3.32-3.73-3.32-2.38 0-4.64.74-6.77 1.68l-.5-3.16c2.34-.94 4.56-1.64 7.6-1.64 4.76 0 7.06 1.93 7.06 6.28v13.7zm11.46-11.57V41.2h-3.65V21.62h2.92l.62 3.98c1.4-2.22 3.65-4.23 6.86-4.4l.57 3.5c-3.24.16-6 2.34-7.3 4.92m16.5 11.98a16.1 16.1 0 0 1-7.14-1.85l.53-3.45c1.85 1.27 4.23 2.26 7 2.26 2.5 0 3.98-.94 3.98-2.58 0-1.8-1-2.47-4.64-3.33-4.6-1.15-6.44-2.54-6.44-6.03 0-3.12 2.63-5.42 7-5.42 2.42 0 4.6.5 6.44 1.3l-.57 3.45a12.5 12.5 0 0 0-5.95-1.68c-2.22 0-3.36.86-3.36 2.26 0 1.3.98 2.05 4.06 2.83 4.84 1.23 7.02 2.63 7.02 6.36 0 3.57-2.67 5.87-7.72 5.87"/></g></symbol></svg>