<?xml version="1.0" standalone="no"?>
<!DOCTYPE svg PUBLIC "-//W3C//DTD SVG 20010904//EN"
 "http://www.w3.org/TR/2001/REC-SVG-20010904/DTD/svg10.dtd">
<svg version="1.0" xmlns="http://www.w3.org/2000/svg"
 width="851.000000pt" height="314.000000pt" viewBox="0 0 851.000000 314.000000"
 preserveAspectRatio="xMidYMid meet">

<g transform="translate(0.000000,314.000000) scale(0.100000,-0.100000)"
fill="#000000" stroke="none">
<path d="M2118 2534 c-5 -4 -8 -40 -8 -81 0 -73 0 -73 28 -74 15 -1 38 -2 52
-2 l25 -2 3 -392 2 -392 -52 -3 -53 -3 -3 -78 -3 -79 313 4 c296 3 316 5 369
26 57 23 120 77 144 122 7 14 18 50 24 80 28 141 -44 287 -159 321 l-41 12 51
25 c91 43 135 130 128 252 -5 78 -28 131 -83 185 -71 71 -107 78 -440 83 -159
2 -293 0 -297 -4z m535 -181 c35 -20 77 -92 77 -132 0 -14 -9 -44 -21 -68 -31
-64 -74 -83 -189 -83 l-90 0 0 148 c0 82 3 152 8 156 14 15 181 -2 215 -21z
m-81 -452 c82 -1 90 -3 121 -31 76 -66 73 -196 -5 -252 -29 -20 -47 -23 -145
-26 l-113 -4 0 154 c0 85 2 157 5 160 3 3 16 4 28 3 12 -1 61 -3 109 -4z"/>
<path d="M4060 2241 c-168 -60 -217 -284 -86 -398 19 -17 72 -45 118 -63 227
-86 220 -82 234 -117 28 -65 -21 -117 -108 -116 -63 1 -113 38 -148 110 l-25
52 -77 1 -78 0 0 -145 0 -145 70 0 70 0 0 35 c0 19 3 35 6 35 4 0 22 -13 40
-30 104 -91 324 -69 404 41 68 94 61 237 -16 313 -36 36 -75 55 -210 106 -118
44 -154 70 -154 110 0 59 63 96 135 80 59 -13 92 -53 109 -132 6 -27 8 -28 81
-28 l74 0 3 140 3 140 -67 0 -68 0 0 -31 0 -31 -31 26 c-51 43 -86 57 -157 62
-50 3 -81 0 -122 -15z"/>
<path d="M5461 2247 c-19 -6 -55 -30 -80 -54 -24 -24 -46 -43 -48 -43 -2 0 -3
13 -3 29 0 61 1 61 -156 61 l-144 0 0 -80 0 -80 55 0 55 0 0 -245 0 -245 -55
0 -55 0 0 -80 0 -80 200 0 200 0 0 80 0 80 -40 0 -39 0 -3 192 c-3 217 4 251
64 288 40 24 105 26 137 4 44 -31 51 -68 51 -284 l0 -200 -40 0 -40 0 0 -80 0
-80 195 0 195 0 0 80 0 80 -49 0 -49 0 -4 248 c-3 246 -3 247 -30 302 -29 58
-70 93 -129 110 -44 13 -144 11 -188 -3z"/>
<path d="M6197 2250 c-183 -47 -276 -209 -264 -460 8 -149 37 -227 112 -297
72 -68 133 -88 265 -87 73 1 108 6 152 23 102 40 177 126 202 234 l6 27 -105
0 c-92 0 -106 -2 -111 -17 -23 -78 -78 -123 -149 -123 -91 0 -149 67 -161 188
l-7 62 267 0 266 0 0 53 c0 69 -23 175 -50 226 -57 113 -156 172 -299 177 -47
2 -103 -1 -124 -6z m184 -163 c34 -22 61 -67 73 -119 l6 -28 -156 0 -157 0 6
35 c18 109 142 170 228 112z"/>
<path d="M6886 2240 c-100 -39 -155 -120 -156 -228 0 -138 48 -182 298 -273
109 -39 132 -57 132 -102 0 -102 -138 -126 -225 -39 -19 20 -40 53 -47 74
l-11 38 -79 0 -78 0 0 -145 0 -145 70 0 70 0 0 35 c0 41 3 42 33 14 67 -65
222 -86 317 -43 54 25 107 76 128 124 21 48 20 156 -3 200 -40 79 -77 105
-251 170 -124 46 -154 69 -154 115 0 80 121 106 196 42 16 -14 31 -42 39 -72
l12 -50 77 -3 76 -3 0 141 0 140 -65 0 -65 0 0 -30 0 -31 -37 30 c-77 61 -184
77 -277 41z"/>
<path d="M7599 2254 c-15 -3 -50 -19 -79 -37 -137 -83 -157 -288 -38 -379 31
-24 72 -42 235 -102 95 -36 123 -59 123 -99 -1 -41 -18 -63 -65 -82 -42 -18
-83 -13 -133 17 -33 20 -82 92 -82 121 0 14 -12 17 -80 17 l-80 0 0 -145 0
-145 64 0 c67 0 76 6 76 51 0 17 4 16 42 -11 87 -64 204 -75 305 -30 98 43
143 112 143 220 0 126 -52 186 -210 247 -205 78 -210 81 -210 142 0 36 20 57
65 70 40 11 92 0 125 -27 12 -10 30 -42 40 -72 l19 -55 75 -3 76 -3 0 141 0
140 -65 0 -65 0 0 -30 c0 -31 -16 -41 -26 -16 -3 7 -28 26 -56 41 -50 27 -136
40 -199 29z"/>
<path d="M2988 2233 c-2 -5 -4 -39 -3 -78 l0 -70 50 -5 50 -5 3 -250 c2 -273
9 -309 60 -358 90 -86 266 -84 351 3 l38 40 7 -40 6 -40 145 0 145 0 0 80 0
80 -50 0 -50 0 0 325 0 325 -155 0 -155 0 0 -80 0 -80 50 0 50 0 0 -192 c0
-106 -5 -210 -10 -230 -27 -96 -155 -120 -203 -38 -15 24 -17 66 -17 324 l0
296 -154 0 c-85 0 -156 -3 -158 -7z"/>
<path d="M4560 2160 l0 -80 50 0 50 0 0 -245 0 -245 -50 0 -50 0 0 -80 0 -80
210 0 211 0 -3 78 -3 77 -52 3 -53 3 0 325 0 324 -155 0 -155 0 0 -80z"/>
<path d="M7732 1304 c-14 -10 -22 -25 -22 -45 0 -27 -3 -29 -35 -29 -19 0 -51
0 -70 0 l-35 0 0 -70 c0 -62 2 -70 19 -70 15 0 19 10 24 46 5 52 17 64 65 64
l32 0 0 -55 c0 -48 2 -55 20 -55 17 0 20 7 20 51 0 42 3 52 20 56 23 6 27 33
6 33 -8 0 -17 4 -20 9 -9 14 4 41 20 41 8 0 14 9 14 20 0 24 -26 26 -58 4z"/>
<path d="M3530 1200 c0 -67 4 -110 10 -110 6 0 10 18 10 41 0 53 15 79 45 79
30 0 38 -13 46 -75 l6 -50 2 63 c1 58 -1 63 -24 74 -19 8 -31 8 -50 0 -25 -12
-25 -11 -25 38 0 28 -4 50 -10 50 -6 0 -10 -43 -10 -110z"/>
<path d="M4790 1260 c0 -54 -1 -55 -32 -39 -24 13 -60 5 -82 -17 -22 -22 -20
-77 3 -98 19 -18 30 -19 99 -15 l32 2 0 109 c0 65 -4 108 -10 108 -5 0 -10
-22 -10 -50z m-18 -67 c26 -23 23 -59 -6 -79 -35 -22 -68 -14 -84 19 -12 24
-11 31 2 53 19 28 60 32 88 7z"/>
<path d="M7980 1200 l0 -110 25 0 25 0 0 110 0 110 -25 0 -25 0 0 -110z"/>
<path d="M3700 1280 c0 -5 7 -10 15 -10 8 0 15 5 15 10 0 6 -7 10 -15 10 -8 0
-15 -4 -15 -10z"/>
<path d="M4010 1280 c0 -5 5 -10 10 -10 6 0 10 5 10 10 0 6 -4 10 -10 10 -5 0
-10 -4 -10 -10z"/>
<path d="M6220 1280 c0 -5 5 -10 10 -10 6 0 10 5 10 10 0 6 -4 10 -10 10 -5 0
-10 -4 -10 -10z"/>
<path d="M2780 1245 c0 -8 -7 -15 -15 -15 -8 0 -15 -4 -15 -10 0 -5 7 -10 15
-10 12 0 15 -13 15 -55 0 -49 3 -57 23 -64 12 -5 27 -6 32 -2 6 3 0 7 -12 9
-21 3 -23 9 -23 58 0 47 2 54 20 54 11 0 20 5 20 10 0 6 -9 10 -20 10 -11 0
-20 7 -20 15 0 8 -4 15 -10 15 -5 0 -10 -7 -10 -15z"/>
<path d="M3920 1245 c0 -8 -7 -15 -15 -15 -8 0 -15 -4 -15 -10 0 -5 7 -10 15
-10 10 0 15 -15 17 -57 3 -57 4 -58 33 -60 20 -1 23 0 8 4 -20 4 -23 10 -23
58 0 48 3 54 23 58 l22 4 -22 8 c-13 4 -23 14 -23 21 0 8 -4 14 -10 14 -5 0
-10 -7 -10 -15z"/>
<path d="M4400 1249 c0 -7 -8 -18 -17 -25 -17 -12 -17 -13 -1 -14 14 0 18 -11
20 -57 3 -56 4 -58 33 -60 27 -2 28 -2 8 7 -20 8 -23 17 -23 59 0 43 3 50 23
54 l22 4 -22 8 c-13 4 -23 14 -23 21 0 8 -4 14 -10 14 -5 0 -10 -5 -10 -11z"/>
<path d="M6131 1249 c0 -9 -11 -20 -23 -23 l-23 -7 23 -9 c19 -8 22 -17 22
-65 0 -54 1 -55 28 -54 26 0 26 1 5 9 -20 8 -23 17 -23 60 0 43 3 50 20 50 11
0 20 5 20 10 0 6 -9 10 -19 10 -11 0 -22 8 -24 18 -4 14 -5 15 -6 1z"/>
<path d="M6830 1230 c-8 -5 -27 -6 -42 -3 l-28 6 0 -107 c0 -106 0 -107 23
-104 12 2 23 9 23 16 1 6 2 23 3 37 1 21 4 23 24 16 44 -17 87 18 87 72 0 46
-57 88 -90 67z m34 -46 c9 -8 16 -19 16 -24 0 -9 -28 -40 -36 -40 -17 0 -44
23 -44 38 0 38 37 53 64 26z"/>
<path d="M7003 1232 c-26 -4 -63 -47 -63 -73 0 -34 42 -70 84 -71 31 -1 44 4
63 26 28 33 29 56 3 88 -20 26 -48 36 -87 30z m45 -44 c30 -30 0 -78 -37 -58
-32 17 -21 70 14 70 6 0 16 -5 23 -12z"/>
<path d="M7432 1225 c-46 -20 -58 -79 -22 -115 21 -21 83 -27 110 -10 21 13 4
25 -38 25 -19 0 -37 6 -39 13 -3 8 10 12 46 12 42 0 51 3 51 18 0 50 -55 79
-108 57z m58 -35 c0 -5 -11 -10 -25 -10 -14 0 -25 5 -25 10 0 6 11 10 25 10
14 0 25 -4 25 -10z"/>
<path d="M2120 1215 c-20 -24 -7 -49 30 -61 23 -8 35 -18 35 -30 0 -20 -32
-24 -70 -9 -19 7 -19 7 -3 -10 20 -22 65 -23 85 -2 27 27 8 50 -59 71 -12 3
-15 11 -11 22 4 12 14 15 39 11 35 -6 47 6 18 17 -26 10 -51 7 -64 -9z"/>
<path d="M2285 1219 c-4 -6 -13 -8 -21 -5 -11 4 -14 -8 -14 -59 0 -36 4 -65
10 -65 5 0 7 15 5 33 -6 45 14 82 45 82 23 0 25 -4 28 -57 3 -67 22 -79 22
-15 0 54 18 80 51 75 22 -3 24 -8 27 -60 4 -73 22 -76 22 -5 0 70 -25 97 -72
79 -20 -7 -37 -8 -49 -2 -23 13 -46 13 -54 -1z"/>
<path d="M2525 1217 c-16 -12 -13 -14 26 -13 34 1 44 -3 47 -16 3 -14 -3 -18
-31 -18 -33 0 -67 -24 -67 -48 0 -22 45 -43 71 -34 13 5 30 7 37 5 21 -8 16
100 -6 120 -22 20 -52 22 -77 4z m75 -76 c0 -25 -24 -43 -52 -39 -31 4 -36 36
-6 47 38 16 58 13 58 -8z"/>
<path d="M2705 1219 c-4 -6 -13 -8 -21 -5 -11 4 -14 -8 -14 -59 0 -78 18 -87
22 -12 2 43 7 54 26 62 12 5 22 13 22 17 0 12 -28 10 -35 -3z"/>
<path d="M3036 1214 c-25 -25 -17 -47 24 -59 40 -12 52 -25 39 -41 -14 -17
-41 -18 -57 -2 -6 6 -15 9 -19 5 -14 -14 15 -28 53 -25 36 3 39 5 39 33 0 25
-5 32 -35 41 -49 16 -46 39 4 38 36 -2 38 0 21 12 -25 18 -50 18 -69 -2z"/>
<path d="M3180 1210 c-48 -48 -18 -120 50 -120 44 0 70 24 70 66 0 35 -8 47
-37 63 -32 16 -60 14 -83 -9z m87 -12 c21 -27 22 -59 2 -79 -27 -27 -69 -21
-88 12 -13 24 -13 29 2 53 19 28 67 36 84 14z"/>
<path d="M3347 1223 c-11 -11 -8 -203 3 -203 6 0 10 21 10 47 0 37 3 44 12 35
7 -7 29 -12 49 -12 43 0 69 27 69 71 0 48 -69 85 -110 59 -9 -5 -17 -5 -20 1
-4 5 -9 6 -13 2z m111 -25 c20 -20 15 -76 -7 -88 -61 -32 -123 37 -75 84 18
19 65 21 82 4z"/>
<path d="M3711 1163 c0 -40 2 -73 7 -73 4 0 6 24 4 52 -5 89 -9 97 -11 21z"/>
<path d="M3786 1217 c-27 -20 -16 -50 24 -63 23 -8 35 -18 35 -30 0 -20 -32
-24 -70 -9 -19 7 -19 7 -3 -10 20 -22 65 -23 85 -2 22 22 10 45 -32 63 -48 20
-48 49 0 41 35 -6 48 6 19 17 -24 9 -38 7 -58 -7z"/>
<path d="M4017 1223 c-11 -10 -8 -133 3 -133 6 0 10 30 10 70 0 70 -1 76 -13
63z"/>
<path d="M4115 1218 c-11 -6 -23 -16 -27 -22 -14 -21 -8 -73 10 -89 21 -19 87
-23 97 -6 11 17 -3 23 -20 9 -21 -18 -64 -4 -77 25 -9 19 -7 29 7 51 15 23 22
26 59 21 37 -5 39 -4 22 9 -24 17 -44 17 -71 2z"/>
<path d="M4253 1223 c-26 -10 -12 -19 23 -15 23 3 39 0 44 -9 12 -19 3 -29
-26 -29 -39 0 -64 -18 -64 -45 0 -32 30 -48 65 -35 15 6 31 8 36 4 17 -10 10
103 -7 120 -15 16 -46 20 -71 9z m71 -71 c8 -14 -23 -52 -43 -52 -18 0 -41 18
-41 32 0 19 74 36 84 20z"/>
<path d="M4509 1209 c-48 -48 3 -143 67 -122 15 5 29 14 31 20 3 9 -3 9 -25 1
-35 -13 -57 -7 -72 21 -10 20 -8 21 50 21 57 0 60 1 60 24 0 50 -73 73 -111
35z m75 -5 c9 -3 16 -12 16 -20 0 -10 -13 -14 -45 -14 -32 0 -45 4 -45 14 0
22 40 33 74 20z"/>
<path d="M5047 1219 c-9 -5 -22 -7 -27 -4 -6 4 -10 -30 -10 -94 0 -56 3 -101
8 -101 4 0 6 18 4 40 -4 41 -4 41 24 34 16 -4 31 -8 32 -10 12 -9 62 22 72 45
26 65 -42 125 -103 90z m77 -25 c33 -33 7 -94 -41 -94 -25 0 -63 32 -63 53 0
47 70 75 104 41z"/>
<path d="M5200 1163 c0 -84 17 -100 22 -20 2 43 7 54 26 62 12 5 22 13 22 17
0 12 -25 9 -38 -4 -10 -10 -15 -10 -22 2 -7 10 -10 -8 -10 -57z"/>
<path d="M5322 1213 c-53 -45 -23 -123 47 -125 66 -2 97 80 45 121 -33 26 -65
27 -92 4z m86 -15 c20 -20 15 -76 -7 -88 -61 -32 -123 37 -75 84 18 19 65 21
82 4z"/>
<path d="M5470 1222 c0 -19 49 -127 59 -130 10 -3 37 49 55 106 15 45 -11 20
-28 -28 -10 -27 -21 -50 -25 -50 -4 0 -15 23 -25 50 -16 46 -36 74 -36 52z"/>
<path d="M5646 1209 c-50 -39 -30 -107 37 -123 23 -5 34 -1 58 24 25 24 30 36
25 58 -14 58 -72 79 -120 41z m88 -15 c20 -20 20 -43 0 -72 -16 -24 -44 -28
-75 -12 -22 12 -27 68 -7 88 17 17 64 15 82 -4z"/>
<path d="M5825 1205 c-50 -49 -17 -119 52 -113 22 2 38 9 41 18 4 12 2 13 -9
3 -33 -32 -89 0 -89 49 0 36 23 52 65 45 35 -6 48 6 19 17 -30 12 -55 6 -79
-19z"/>
<path d="M5978 1223 c-33 -8 -18 -20 24 -19 33 1 43 -3 46 -16 3 -14 -3 -18
-30 -18 -48 0 -73 -20 -65 -52 8 -29 41 -42 68 -28 10 6 25 7 33 4 13 -5 16 3
16 45 0 73 -30 100 -92 84z m72 -81 c0 -25 -19 -42 -47 -42 -31 0 -42 29 -18
46 28 20 65 18 65 -4z"/>
<path d="M6220 1161 c0 -41 4 -71 10 -71 6 0 10 28 10 64 0 36 -4 68 -10 71
-6 4 -10 -20 -10 -64z"/>
<path d="M6280 1217 c0 -24 47 -127 58 -127 11 0 67 129 59 137 -6 6 -47 -80
-47 -98 0 -25 -19 -4 -35 39 -20 53 -35 75 -35 49z"/>
<path d="M6452 1214 c-29 -20 -31 -83 -3 -108 25 -23 78 -24 99 -1 16 17 16
17 -3 10 -39 -16 -77 -11 -92 13 l-15 22 61 0 c54 0 61 2 61 20 0 27 -35 60
-63 60 -12 0 -33 -7 -45 -16z m72 -10 c9 -3 16 -12 16 -20 0 -10 -13 -14 -45
-14 -46 0 -54 7 -33 28 13 13 37 15 62 6z"/>
<path d="M7145 1164 c14 -37 25 -68 25 -70 0 -2 11 -4 25 -4 21 0 27 7 38 47
l14 47 15 -44 c11 -35 20 -46 39 -48 21 -2 27 4 47 60 27 77 27 80 0 76 -15
-2 -24 -14 -32 -43 -12 -43 -19 -40 -31 13 -6 27 -11 32 -35 32 -25 0 -30 -5
-36 -35 -9 -49 -19 -51 -33 -5 -10 33 -16 40 -36 40 l-25 0 25 -66z"/>
<path d="M7810 1170 c0 -52 3 -62 24 -75 18 -12 30 -14 43 -7 10 6 31 8 46 5
l27 -5 0 71 c0 63 -2 71 -19 71 -15 0 -20 -10 -26 -50 -4 -27 -11 -53 -16 -56
-20 -12 -39 19 -39 62 0 37 -3 44 -20 44 -18 0 -20 -7 -20 -60z"/>
<path d="M8067 1127 c-8 -21 8 -39 29 -35 27 5 25 42 -2 46 -12 2 -24 -3 -27
-11z"/>
<path d="M2880 1100 c0 -5 5 -10 10 -10 6 0 10 5 10 10 0 6 -4 10 -10 10 -5 0
-10 -4 -10 -10z"/>
<path d="M4850 1100 c0 -5 7 -10 15 -10 8 0 15 5 15 10 0 6 -7 10 -15 10 -8 0
-15 -4 -15 -10z"/>
<path d="M6610 1100 c0 -5 5 -10 10 -10 6 0 10 5 10 10 0 6 -4 10 -10 10 -5 0
-10 -4 -10 -10z"/>
<path d="M0 205 l0 -205 4255 0 4255 0 0 204 0 204 -4255 0 -4255 1 0 -204z"/>
</g>
</svg>
