<svg id="Layer_1" data-name="Layer 1" xmlns="http://www.w3.org/2000/svg" viewBox="0 0 417.14 73.87"><defs><style>.cls-1{fill:#ee3825;}</style></defs><title>buzzfeed</title><path class="cls-1" d="M1.43,3.11c11.74,0,23.49-.16,35.23.11A18,18,0,0,1,54.32,18c1.73,9.51-3.2,17.62-10.81,19.8a2.58,2.58,0,0,0-.61.41c7.25,2.08,11.58,6.88,12.8,14.07,2,11.86-4.53,21.61-16.9,23a78.91,78.91,0,0,1-8.29.32c-9.69,0-19.38,0-29.08.06ZM17,61.76a2.08,2.08,0,0,0,.61.2c4.86,0,9.74.18,14.59-.05,5-.24,8-3.32,8.15-7.87s-2.63-7.87-7.55-8.46a87.13,87.13,0,0,0-9.43-.25c-2.09,0-4.18,0-6.37,0Zm-.1-29.93c4.53,0,8.84,0,13.15,0a12.82,12.82,0,0,0,2.48-.16c3-.61,5.33-2.17,6.13-5.34a7.51,7.51,0,0,0-7.18-9.68c-2.43-.12-4.88,0-7.31,0H17c0,.53-.1.85-.1,1.17C16.93,22.37,16.94,27,16.94,31.83Z" transform="translate(-1.43 -3.06)"/><path class="cls-1" d="M281.44,76.94c-1.83-.35-3.69-.61-5.5-1-14.2-3.41-21.43-15.63-20.19-29.13,1-11.31,6.74-19.57,17.59-23.4,15.16-5.34,32.74,1.87,35.33,22,.34,2.66.32,5.37.49,8.3H270c.9,5,3.41,8.46,7.78,10.31,7.1,3,13.75,1.51,20-2.53.37-.24.71-.52,1.07-.78a1.75,1.75,0,0,1,.36,0l6.12,9c-2,1.26-3.88,2.62-5.91,3.65a32.43,32.43,0,0,1-11.95,3.22,8.77,8.77,0,0,0-1.41.34Zm14.21-32.77c.27-6.51-5.93-11.48-13.79-11.17-6.53.25-12.34,5.79-11.64,11.17Z" transform="translate(-1.43 -3.06)"/><path class="cls-1" d="M337.65,76.94c-2.26-.46-4.56-.78-6.77-1.39A25.64,25.64,0,0,1,312,52.74c-.9-10.31,2.09-19.06,10.37-25.56,12.55-9.87,37.21-7.63,42.11,15.71a34.75,34.75,0,0,1,.66,5.09c.12,1.81,0,3.64,0,5.73H326.31a12,12,0,0,0,3.35,7.2c4.3,4.44,9.67,5.28,15.47,4.26a20.67,20.67,0,0,0,10.18-4.68c2.06,3,4.07,6,6.26,9.17-1.63,1.09-3.11,2.25-4.73,3.13a33.09,33.09,0,0,1-13,3.8,14.85,14.85,0,0,0-1.58.34ZM326.41,44.16h25.45c.33-6.31-5.73-11.32-13.34-11.18C331.77,33.12,325.92,38.46,326.41,44.16Z" transform="translate(-1.43 -3.06)"/><path class="cls-1" d="M80.25,76.94c-1.67-.35-3.34-.64-5-1C65,73.47,59,65.81,59,55.29V23.23H72.8v1.93c0,9.53,0,19.06,0,28.59,0,4.32,1.3,8,5.4,9.87,4.44,2,9,2,13.1-1,3-2.14,3.85-5.42,3.86-8.94q0-14.22,0-28.43V23.2h13.67V55c0,12-7.5,20.31-19.51,21.57-.59.06-1.17.25-1.76.37Z" transform="translate(-1.43 -3.06)"/><path class="cls-1" d="M210.75,75.44V3.16H261v7c0,1.55-.1,3.11,0,4.65s-.48,1.83-1.9,1.82c-9.92-.05-19.84,0-29.76,0h-3.13V31.83h1.87c7.48,0,15,.05,22.44,0,1.52,0,1.87.46,1.84,1.89-.1,3.81,0,7.62,0,11.62H226.15V75.44Z" transform="translate(-1.43 -3.06)"/><path class="cls-1" d="M368.7,75.41V25c0-2.12,0-2.14,2.2-2.12,7.58.07,15.2-.25,22.74.33,10.76.83,19.17,5.68,23.16,16.29,4.05,10.79,1,23.1-7.27,29.84a27.32,27.32,0,0,1-16.69,6.15c-7.8.28-15.62.09-23.43.1A4.45,4.45,0,0,1,368.7,75.41Zm13.18-11.09h7.61c8.93,0,14.55-5,15.55-13.92.72-6.37-2.73-12.72-8.23-15-4.83-2-9.89-.93-14.93-1.21Z" transform="translate(-1.43 -3.06)"/><path class="cls-1" d="M136.69,35H113.27V23.18h42.34c0,2.23-.11,4.48,0,6.72a7.13,7.13,0,0,1-1.79,5.26c-7,8.76-14,17.61-20.94,26.43l-1.31,1.73h24.29V75.41H113.14c0-3.3,0-6.6,0-9.9,0-.56.59-1.15,1-1.66q10.71-13.66,21.46-27.29C135.94,36.18,136.19,35.76,136.69,35Z" transform="translate(-1.43 -3.06)"/><path class="cls-1" d="M159.67,35.05c0-3.74,0-7.17,0-10.6,0-.38.06-.76.11-1.25H202c0,3.19,0,6.32,0,9.46a2.93,2.93,0,0,1-.82,1.39Q190.25,47.9,179.33,61.71c-.36.45-.68.94-1.24,1.72h2.11c6.87,0,13.75,0,20.62,0,1.27,0,1.75.31,1.71,1.67-.09,3.42,0,6.84,0,10.37H159.72c0-3.42,0-6.78,0-10.13,0-.42.45-.86.75-1.25l20.95-26.64,1.83-2.37Z" transform="translate(-1.43 -3.06)"/></svg>