<svg id="Layer_1" data-name="Layer 1" xmlns="http://www.w3.org/2000/svg" viewBox="0 0 111.52 41"><defs><style>.cls-1{fill:#fff;}.cls-2{fill:#231f20;}.cls-3{fill:#a90533;}</style></defs><title>HBPub_crimson</title><path class="cls-1" d="M80.4,215.22l-.24-.12c-.09,0-15.14-7.9-15.18-26.19h0V176.14H96.7v12.77c0,18.29-15.08,26.14-15.19,26.2h0l-.67.35-.44-.24Z" transform="translate(-64.98 -176.14)"/><path class="cls-1" d="M95.75,188.44h0V177.1H65.94v11.34h0v.48c0,17.69,14.64,25.31,14.68,25.33l.22.12.23-.12s14.66-7.64,14.68-25.33v-.48Z" transform="translate(-64.98 -176.14)"/><path class="cls-2" d="M86.22,188.44a2.51,2.51,0,0,1,.38,1c.16,1-.31,2-2.08,2.08,0,1.44-.38,2-2.22,2.07.16,1.53-.64,2-1.51,2s-1.67-.5-1.51-2c-1.84,0-2.19-.63-2.22-2.07-1.77-.1-2.24-1.12-2.08-2.08a2.51,2.51,0,0,1,.38-1H65.94v.48c0,17.69,14.64,25.31,14.68,25.33l.22.12.23-.12s14.66-7.64,14.68-25.33v-.48ZM74,204.67a1.68,1.68,0,0,0,.68-1.09c.08-.48.19-.68.44-.68s.35.2.43.68a1.65,1.65,0,0,0,.69,1.09c.21.12.92.13.77.55-.09.18-.22.57-.41.4S76.08,205,76,205s-.11.17,0,.24.3.41.42.56a.41.41,0,0,1-.07.65c-.28.13-.57,0-.56-.19s-.13-.88-.25-.88-.1.17-.09.35c0,.39.22.69.19.89s-.08.4-.41.39-.38-.2-.42-.39.23-.5.19-.89c0-.18,0-.35-.09-.35s-.26.65-.25.88-.28.32-.56.19a.41.41,0,0,1-.07-.65c.12-.15.35-.48.42-.56s.08-.26,0-.24-.46.48-.65.65-.32-.22-.42-.4c-.15-.42.56-.43.78-.55Zm.24-1.22c.22,0,.11.21.09.42s-.08.23-.3-.07,0-.32.21-.35Zm1.75,0c.24,0,.42.06.2.35s-.27.27-.29.06-.14-.44.09-.41Zm10.4,1.87c-.12,0-.26.65-.25.88s-.28.32-.57.19a.41.41,0,0,1-.07-.65c.13-.15.36-.48.43-.56s.07-.26-.06-.24-.46.48-.65.65-.32-.22-.42-.4c-.14-.42.56-.43.78-.55a1.73,1.73,0,0,0,.69-1.09c.08-.48.18-.68.43-.68s.35.2.44.68a1.68,1.68,0,0,0,.68,1.09c.22.12.93.13.78.55-.1.18-.22.57-.42.4s-.52-.62-.65-.65-.11.17-.06.24.3.41.43.56a.41.41,0,0,1-.07.65c-.28.13-.57,0-.56-.19s-.13-.88-.25-.88-.11.17-.09.35c0,.39.21.69.18.89s-.07.4-.41.39-.38-.2-.41-.39.23-.5.19-.89c0-.18,0-.35-.09-.35Zm-.57-1.9c.23,0,.12.21.09.42s-.08.23-.29-.07,0-.32.2-.35Zm1.75,0c.25,0,.43.06.21.35s-.27.27-.3.06-.14-.44.09-.41Zm.21-11.32c-.22.29-.27.27-.3.06s-.14-.44.09-.41.43.06.21.35Zm-2-.38c.23,0,.12.22.09.42s-.08.23-.29-.06,0-.33.2-.36ZM85.59,193a1.7,1.7,0,0,0,.69-1.09c.08-.48.18-.67.43-.68s.35.2.44.68a1.65,1.65,0,0,0,.68,1.09c.22.12.93.13.78.55-.1.19-.22.57-.42.4s-.52-.62-.65-.64-.11.17-.06.23.3.41.43.56a.4.4,0,0,1-.07.65c-.28.13-.57,0-.56-.19s-.13-.88-.25-.88-.11.17-.09.36c0,.38.21.69.18.88s-.07.4-.41.4-.38-.2-.41-.4.23-.5.19-.88c0-.19,0-.36-.09-.36s-.26.66-.25.88-.28.32-.57.19a.41.41,0,0,1-.07-.65c.13-.15.36-.47.43-.56s.07-.26-.06-.23-.46.47-.65.64-.32-.21-.42-.4c-.14-.42.56-.43.78-.55Zm1.12,4.66c-.16-1.63.87-2.1,2.09-2-.16-1.63.68-2.16,2.13-2.1-.2-1.91,1.09-2.13,2.09-2.07a1.76,1.76,0,0,1,1.55-2.08h.22a27.23,27.23,0,0,1-4.91,15.38,1.59,1.59,0,0,1-1.17-1.95,1.68,1.68,0,0,1-2-2.07,1.65,1.65,0,0,1-2.09-1.25c-.16-1.16.77-1.85,2.12-1.85Zm-4.92,0c.24,0,.42.06.21.34s-.27.27-.3.07-.14-.44.09-.41Zm-1.75,0c.23,0,.11.21.09.41s-.08.23-.3-.06,0-.32.21-.35Zm-.24,1.21a1.65,1.65,0,0,0,.68-1.09c.09-.47.19-.67.44-.68s.35.21.43.68a1.7,1.7,0,0,0,.69,1.09c.22.12.92.13.78.55-.1.19-.23.58-.42.4s-.52-.62-.65-.64-.11.17-.06.24.3.4.43.55a.4.4,0,0,1-.07.65c-.29.14-.57,0-.57-.18s-.13-.88-.25-.88-.1.16-.09.35c0,.39.22.69.19.89s-.07.39-.41.39-.38-.2-.41-.39.22-.5.18-.89c0-.19,0-.35-.09-.35s-.26.65-.24.88-.29.32-.57.18a.4.4,0,0,1-.07-.65c.13-.15.35-.47.43-.55s.07-.26-.06-.24-.46.47-.65.64-.32-.21-.42-.4c-.14-.42.56-.43.78-.55ZM79.28,205a1.66,1.66,0,1,1,3.22,0,1.67,1.67,0,0,1,2.19,2.1c1.25-.42,2.21.23,2.27,1.26a29.43,29.43,0,0,1-6.12,4.91,28.42,28.42,0,0,1-6-4.82c0-1.08,1-1.79,2.29-1.35a1.67,1.67,0,0,1,2.19-2.1Zm-2.06-5.49a1.65,1.65,0,0,1-2.09,1.25,1.68,1.68,0,0,1-2,2.07,1.57,1.57,0,0,1-1.29,2,27.25,27.25,0,0,1-4.91-15.4h.34a1.76,1.76,0,0,1,1.55,2.08c1-.06,2.28.16,2.09,2.07,1.45-.06,2.28.47,2.12,2.1,1.23-.09,2.26.38,2.1,2,1.35,0,2.28.69,2.12,1.85Zm-3.14-7.31c0,.21-.08.23-.3-.06s0-.33.21-.36.11.22.09.42Zm1.66-.39c.24,0,.42.06.21.35s-.28.27-.3.06-.14-.44.09-.41Zm-.44.1A1.7,1.7,0,0,0,76,193c.22.12.92.13.78.55-.1.19-.23.57-.42.4s-.52-.62-.65-.64-.11.17-.06.23.3.41.43.56a.4.4,0,0,1-.07.65c-.29.13-.57,0-.57-.19s-.13-.88-.25-.88-.1.17-.08.36c0,.38.21.69.18.88s-.08.4-.41.4-.38-.2-.41-.4.22-.5.18-.88c0-.19,0-.36-.09-.36s-.26.66-.25.88-.28.32-.56.19a.4.4,0,0,1-.07-.65c.13-.15.35-.47.42-.56s.08-.26,0-.23-.46.47-.65.64-.32-.21-.42-.4c-.15-.42.56-.43.78-.55a1.65,1.65,0,0,0,.68-1.09c.09-.48.19-.67.44-.68s.35.2.43.68Z" transform="translate(-64.98 -176.14)"/><polygon class="cls-2" points="0.96 0.96 0.96 11.33 30.77 11.33 30.77 0.96 0.96 0.96 0.96 0.96"/><path class="cls-3" d="M66.9,178.06v8.45H94.79v-8.45Zm9.54,5.87a.45.45,0,0,1-.34.39V185a.14.14,0,0,1-.14.14H69.17A.13.13,0,0,1,69,185v-.72a.46.46,0,0,1-.35-.39.45.45,0,0,1,.35-.39v-2a.46.46,0,0,1-.35-.39.45.45,0,0,1,.35-.39v-.93a.13.13,0,0,1,.13-.13l.41.08s.49,0,.8,0l.65,0a3,3,0,0,1,1.08.16c.27.12.48.24.53.53.07-.29.27-.41.54-.53a2.46,2.46,0,0,1,.93-.16c.23,0,.65,0,.65,0,.3,0,.79,0,.79,0l.41-.08a.13.13,0,0,1,.14.13v.93a.44.44,0,0,1,.34.39.45.45,0,0,1-.34.39v2a.44.44,0,0,1,.34.39Zm8.27,0a.45.45,0,0,1-.35.39V185a.14.14,0,0,1-.14.14H77.44a.14.14,0,0,1-.14-.14v-.72a.45.45,0,0,1-.34-.39.44.44,0,0,1,.34-.39v-2a.45.45,0,0,1-.34-.39.44.44,0,0,1,.34-.39v-.93a.13.13,0,0,1,.14-.13l.41.08s.49,0,.79,0l.65,0a3.07,3.07,0,0,1,1.09.16c.27.12.47.24.53.53.06-.29.26-.41.54-.53a2.41,2.41,0,0,1,.92-.16c.24,0,.65,0,.65,0,.31,0,.8,0,.8,0l.4-.08a.13.13,0,0,1,.14.13v.93a.44.44,0,0,1,.35.39.45.45,0,0,1-.35.39v2a.44.44,0,0,1,.35.39Zm8.26,0a.45.45,0,0,1-.34.39V185a.14.14,0,0,1-.14.14H85.7a.13.13,0,0,1-.13-.14v-.72a.46.46,0,0,1-.35-.39.45.45,0,0,1,.35-.39v-2a.46.46,0,0,1-.35-.39.45.45,0,0,1,.35-.39v-.93a.13.13,0,0,1,.13-.13l.41.08s.49,0,.8,0c0,0,.5,0,.73,0,.43,0,1.33.13,1.54.73.18-.54.88-.66,1.37-.73a5.73,5.73,0,0,1,.74,0c.3,0,.79,0,.79,0l.41-.08a.13.13,0,0,1,.14.13v.93a.44.44,0,0,1,.34.39.45.45,0,0,1-.34.39v2a.44.44,0,0,1,.34.39Z" transform="translate(-64.98 -176.14)"/><path class="cls-1" d="M78.41,184.2V180s0,0,0-.06h-.28a.11.11,0,0,0-.1.08v4.58l.38-.31a.14.14,0,0,1,0-.06Zm-3.31.08.37.32V180a.1.1,0,0,0-.09-.08H75.1s0,0,0,.06v4.24a.25.25,0,0,1,0,.08Zm3.52,0h2.21v-3.47a.75.75,0,0,0-.51-.74,3,3,0,0,0-1-.15h-.54l-.11,0a.19.19,0,0,0-.08,0v4.23s0,.05.06.05Zm-8.48-.05V180a.14.14,0,0,1,0-.06h-.28a.1.1,0,0,0-.1.08v4.57l.37-.31a.43.43,0,0,0,0-.05Zm4.83,0V180h0l-.06,0-.13,0h-.53a2.82,2.82,0,0,0-1,.15.75.75,0,0,0-.51.74v3.47h2.21s.06,0,.06-.05Zm-4.63.05h2.22v-3.47h0a.76.76,0,0,0-.51-.74,3,3,0,0,0-1-.15h-.54l-.11,0-.09,0v4.23a.06.06,0,0,0,.06.05Zm-.46.6a.23.23,0,0,1-.24-.22V180a.17.17,0,0,1,0-.1l-.38-.08a.13.13,0,0,0-.14.13v.88c-.19,0-.34.15-.34.29s.15.27.34.29v2.24c-.19,0-.34.15-.34.29s.15.27.34.29v.69a.13.13,0,0,0,.14.13h2.93a.34.34,0,0,1-.09-.19Zm17-.6h4.57a.06.06,0,0,0,.06-.06V180h0l-.05,0-.12,0h-.11a4.16,4.16,0,0,0-1.32.17.89.89,0,0,0-.67.85H89.1a.89.89,0,0,0-.66-.85,4.16,4.16,0,0,0-1.32-.17H87a.44.44,0,0,0-.19.07v4.23a.06.06,0,0,0,.06.06Zm4.74,0,.39.33V180a.1.1,0,0,0-.1-.09h-.28a.14.14,0,0,1,0,.07v4.23a.14.14,0,0,1,0,.09Zm-8.39-.08V180h0l-.06,0-.13,0h-.53a2.74,2.74,0,0,0-1,.15.74.74,0,0,0-.52.74v3.47h2.22a0,0,0,0,0,0-.05Zm.15,0a.19.19,0,0,1,0,.07l.38.32V180a.11.11,0,0,0-.1-.08h-.28s0,0,0,.06v4.24Zm3.3,0V180a.14.14,0,0,1,0-.07h-.28a.1.1,0,0,0-.1.09v4.58l.37-.32a.13.13,0,0,1,0-.06Zm-2.13-3.08c0-.14-.14-.26-.34-.28v-.89a.13.13,0,0,0-.13-.13l-.25.05a.19.19,0,0,1,0,.13v4.64a.23.23,0,0,1-.24.22H81.28a.56.56,0,0,1-.09.19h2.9a.13.13,0,0,0,.13-.13v-.69c.2,0,.34-.14.34-.29s-.14-.26-.34-.29V181.4c.2,0,.34-.14.34-.29Zm1.86,3.73a.22.22,0,0,1-.23-.22V180a.17.17,0,0,1,0-.1l-.39-.08a.13.13,0,0,0-.13.13v.88c-.2,0-.34.15-.34.29s.14.27.34.29v2.24c-.2,0-.34.15-.34.29s.14.27.34.29v.69a.13.13,0,0,0,.13.13h2.93a.72.72,0,0,1-.09-.2Zm.47-.45a.17.17,0,0,1-.1,0l-.39.33h2.27a.5.5,0,0,1,.21-.3Zm-6,.07a.31.31,0,0,0-.31.31.3.3,0,0,0,.18.27H81a.3.3,0,0,0,.18-.27.31.31,0,0,0-.31-.31Zm2.82.25-.39-.33H81.08a.44.44,0,0,1,.2.32Zm5.45-.25a.31.31,0,0,0-.3.31A.29.29,0,0,0,89,185h.26a.28.28,0,0,0,.18-.27.31.31,0,0,0-.31-.31Zm3.38-.82V181.4c.2,0,.35-.14.35-.29s-.15-.26-.35-.29v-.88a.12.12,0,0,0-.12-.13l-.25.05a.25.25,0,0,1,0,.13v4.63a.22.22,0,0,1-.23.22H89.55a.4.4,0,0,1-.09.2h2.91a.12.12,0,0,0,.12-.13v-.69c.2,0,.35-.14.35-.29s-.15-.26-.35-.29Zm-.58,1.05-.38-.31H89.35a.42.42,0,0,1,.2.3Zm-13.29-.3a.15.15,0,0,1-.1,0l-.4.33H80.4a.44.44,0,0,1,.2-.32Zm-3.23.32-.39-.33H72.81a.44.44,0,0,1,.2.32Zm.9-3.6c0-.14-.15-.26-.34-.28v-.89a.13.13,0,0,0-.13-.13l-.25.05a.25.25,0,0,1,0,.13v4.64a.22.22,0,0,1-.23.22H73a.56.56,0,0,1-.09.19h2.9a.13.13,0,0,0,.13-.13v-.69c.19,0,.34-.14.34-.29s-.15-.26-.34-.29V181.4c.19,0,.34-.14.34-.29Zm-3.72,3.35a.31.31,0,0,0-.31.31.28.28,0,0,0,.18.27h.26a.29.29,0,0,0,.17-.27.3.3,0,0,0-.3-.31Zm-2.23-.07a.2.2,0,0,1-.11,0l-.39.34h2.29a.44.44,0,0,1,.2-.32Zm7.81.46a.23.23,0,0,1-.24-.22V180a.29.29,0,0,1,0-.1l-.39-.08a.12.12,0,0,0-.12.13v.88c-.2,0-.35.15-.35.29s.15.27.35.29v2.24c-.2,0-.35.15-.35.29s.15.27.35.29v.69a.12.12,0,0,0,.12.13h2.94a.42.42,0,0,1-.09-.19Z" transform="translate(-64.98 -176.14)"/><path class="cls-2" d="M73.79,183.2c-.14,0-.18,0-.18-.17v-.74c.21,0,.33.09.36.48h0v-1h0c0,.38-.15.46-.36.46v-.71c0-.14,0-.15.16-.15.3,0,.46.08.51.51h0v-.61H73.05v.07c.1,0,.19,0,.19.22V183c0,.18-.07.19-.19.21v.08h1.3l.09-.64h-.06c-.14.47-.37.54-.59.54Z" transform="translate(-64.98 -176.14)"/><path class="cls-2" d="M90.36,183.14c.07,0,.17.11.39.11a.59.59,0,0,0,.55-.65.66.66,0,0,0-.25-.56l-.32-.22c-.19-.13-.23-.2-.23-.36s.12-.29.23-.29c.27,0,.4.35.44.56h.06v-.67h-.06c0,.07,0,.11-.08.11s-.17-.1-.34-.1c-.43,0-.5.42-.5.6a.7.7,0,0,0,.39.66l.14.1a.39.39,0,0,1,.25.37s0,.35-.27.35-.42-.35-.46-.66h-.07v.76h.07c0-.05,0-.11.06-.11Z" transform="translate(-64.98 -176.14)"/><path class="cls-2" d="M70.69,181.48l.57,1.84h.06l.51-1.81c0-.17.08-.23.2-.25v-.07h-.47v.07c.12,0,.19,0,.19.14a1,1,0,0,1,0,.22l-.29,1-.29-1a1.45,1.45,0,0,1-.07-.26c0-.12.06-.12.2-.13v-.07h-.75v.07c.09,0,.13,0,.18.22Z" transform="translate(-64.98 -176.14)"/><path class="cls-2" d="M79.4,181.4c0-.1,0-.13.14-.13s.27.13.27.44-.11.47-.41.47v-.78Zm.2,1.76c-.15,0-.2,0-.2-.28v-.6h.06l.46,1h.46v-.08a.09.09,0,0,1-.09,0l-.45-.88a.5.5,0,0,0,.35-.52.54.54,0,0,0-.63-.54h-.72v.08c.13,0,.2,0,.2.28v1.35c0,.25-.05.26-.2.28v.08h.76v-.08Z" transform="translate(-64.98 -176.14)"/><path class="cls-2" d="M87.57,181.27v1.61c0,.26,0,.27-.22.28v.08h.8v-.08c-.17,0-.22,0-.22-.28v-1.61c.15,0,.38,0,.43.52h.07v-.62H87.08v.62h.06c0-.5.27-.51.43-.52Z" transform="translate(-64.98 -176.14)"/><path class="cls-2" d="M89.08,181.77l.23.74h-.44l.21-.74Zm-.16,1.39c-.07,0-.18,0-.18-.13a3,3,0,0,1,.1-.4h.5a2.43,2.43,0,0,1,.1.41c0,.1,0,.11-.17.12v.07H90v-.07c-.11,0-.14-.1-.24-.43l-.5-1.61h-.06l-.5,1.68c-.07.23-.1.34-.22.36v.07h.45v-.07Z" transform="translate(-64.98 -176.14)"/><path class="cls-2" d="M81.62,181.25c.1,0,.2,0,.2.21V183c0,.19-.08.2-.2.21v.08h.78v-.08c-.12,0-.21,0-.21-.21v-1.49c0-.2.1-.21.21-.21v-.08h-.78v.08Z" transform="translate(-64.98 -176.14)"/><path class="cls-2" d="M100,213.43V203.06h4.54c2.68,0,3.91,1.27,3.91,3.79a3.48,3.48,0,0,1-3.77,3.78h-1.79v2.8Zm2.89-5.12h1.44c.83,0,1.21-.49,1.21-1.39s-.4-1.43-1.21-1.43h-1.44Z" transform="translate(-64.98 -176.14)"/><path class="cls-2" d="M114.51,211.92a2.22,2.22,0,0,1-2.45,1.72c-1.48,0-2.51-.92-2.51-2.83V205.3h2.85v4.91c0,.81.22,1.3.88,1.3s1.19-.67,1.19-2V205.3h2.85v8.13h-2.55Z" transform="translate(-64.98 -176.14)"/><path class="cls-2" d="M121.22,213.43h-2.47V202.52h2.85v4a2.58,2.58,0,0,1,2.57-1.37c2,0,3.15,1.51,3.15,4.06,0,2.8-1.28,4.47-3.48,4.47a2.24,2.24,0,0,1-2.34-1.32Zm.37-3.49c0,1.18.67,1.66,1.3,1.66.93,0,1.53-.76,1.53-2.24s-.53-2.09-1.41-2.09a1.5,1.5,0,0,0-1.42,1.69Z" transform="translate(-64.98 -176.14)"/><path class="cls-2" d="M132.23,213.32a3.19,3.19,0,0,1-1.47.27,2.15,2.15,0,0,1-2.41-2.27v-8.8h2.85v8c0,.49.19.7.56.7a1.14,1.14,0,0,0,.47-.1Z" transform="translate(-64.98 -176.14)"/><path class="cls-2" d="M134.89,201.78a1.5,1.5,0,1,1-1.57,1.5,1.48,1.48,0,0,1,1.57-1.5m1.44,11.65h-2.85V205.3h2.85Z" transform="translate(-64.98 -176.14)"/><path class="cls-2" d="M139.72,210.63a1.25,1.25,0,0,0,1.28,1c.51,0,.86-.17.86-.53s-.3-.51-.88-.63l-1.09-.23c-1.48-.32-2.25-1.07-2.25-2.41,0-2,1.69-2.74,3.5-2.74s3.13.81,3.41,2.32l-2.58.39a.83.83,0,0,0-.92-.73c-.4,0-.68.2-.68.51s.23.48.65.55l1.09.19c1.79.3,2.55,1.27,2.55,2.64,0,1.92-1.67,2.66-3.68,2.66-1.84,0-3.08-.67-3.53-2.11Z" transform="translate(-64.98 -176.14)"/><path class="cls-2" d="M148.74,206.85a2.46,2.46,0,0,1,2.53-1.74,2.29,2.29,0,0,1,2.41,2.6v5.72h-2.85v-4.68c0-.79-.19-1.29-.9-1.29s-1.19.39-1.19,1.62v4.35h-2.85V202.52h2.85Z" transform="translate(-64.98 -176.14)"/><path class="cls-2" d="M156.46,201.78a1.5,1.5,0,1,1-1.57,1.5,1.48,1.48,0,0,1,1.57-1.5m1.44,11.65h-2.85V205.3h2.85Z" transform="translate(-64.98 -176.14)"/><path class="cls-2" d="M162.15,206.86a2.51,2.51,0,0,1,2.58-1.75,2.29,2.29,0,0,1,2.38,2.6v5.72h-2.83V208.8c0-.83-.25-1.34-1-1.34s-1.14.37-1.14,1.62v4.35h-2.84V205.3h2.55Z" transform="translate(-64.98 -176.14)"/><path class="cls-2" d="M176.5,205.3v7.55c0,3-2,4.29-4.63,4.29a4.25,4.25,0,0,1-3.47-1.55l1.46-1.53a2.6,2.6,0,0,0,2,.83,1.67,1.67,0,0,0,1.81-1.83v-1a2.15,2.15,0,0,1-2.27,1.28c-1.81,0-3.29-1.23-3.29-4s1.3-4.27,3.61-4.27a2.28,2.28,0,0,1,2.18,1.17l.21-1Zm-2.82,3.34c0-.95-.51-1.44-1.25-1.44s-1.42.6-1.42,2.09c0,1.31.45,1.92,1.35,1.92.71,0,1.32-.46,1.32-1.6Z" transform="translate(-64.98 -176.14)"/><path class="cls-2" d="M108.42,197.7c0,1.67-1.14,2.79-3.67,2.79H100V190.15h4.59c2.2,0,3.37,1,3.37,2.71a2.28,2.28,0,0,1-1.8,2.33,2.53,2.53,0,0,1,2.24,2.51m-5.56-3.25H104c.74,0,1.2-.28,1.2-1s-.46-1-1.2-1h-1.1Zm0,3.67h1.49c.72,0,1.12-.32,1.12-.91s-.4-.91-1.12-.91h-1.49Z" transform="translate(-64.98 -176.14)"/><path class="cls-2" d="M114.65,199a2.2,2.2,0,0,1-2.44,1.72c-1.47,0-2.5-.91-2.84-2.83v-5.49h3.18v4.9c0,.81.23,1.3.88,1.3s1.19-.67,1.19-2v-4.21h2.84v8.11h-2.54Z" transform="translate(-64.98 -176.14)"/><path class="cls-2" d="M120.66,197.7a1.25,1.25,0,0,0,1.28,1c.51,0,.86-.18.86-.53s-.3-.51-.88-.63l-1.09-.23c-1.47-.32-2.24-1.07-2.24-2.4,0-2,1.68-2.74,3.49-2.74s3.12.81,3.4,2.31l-2.58.39a.82.82,0,0,0-.91-.72c-.4,0-.68.19-.68.51s.22.47.65.54l1.08.2c1.79.3,2.55,1.26,2.55,2.63,0,1.91-1.67,2.65-3.67,2.65-1.84,0-3.07-.67-3.53-2.11Z" transform="translate(-64.98 -176.14)"/><path class="cls-2" d="M128.15,188.87a1.5,1.5,0,1,1-1.56,1.49,1.48,1.48,0,0,1,1.56-1.49m1.42,11.62h-2.82v-8.11h2.82Z" transform="translate(-64.98 -176.14)"/><path class="cls-2" d="M133.67,193.94a2.51,2.51,0,0,1,2.58-1.75,2.29,2.29,0,0,1,2.37,2.6v5.7H135.8v-4.62c0-.82-.25-1.33-1-1.33s-1.14.37-1.14,1.62v4.33h-2.82v-8.11h2.54Z" transform="translate(-64.98 -176.14)"/><path class="cls-2" d="M145,197.56l2.35.74a3.29,3.29,0,0,1-3.51,2.4,3.91,3.91,0,0,1-4.16-4.18c0-2.73,1.54-4.33,4.09-4.33,2.4,0,3.63,1.54,3.63,3.79,0,.3,0,.65,0,1H142.4c0,1,.54,1.54,1.38,1.54a1.14,1.14,0,0,0,1.2-1m-.28-2c0-.7-.25-1.32-1-1.32s-1.12.56-1.19,1.32Z" transform="translate(-64.98 -176.14)"/><path class="cls-2" d="M150.51,197.7a1.26,1.26,0,0,0,1.28,1c.51,0,.86-.18.86-.53s-.3-.51-.87-.63l-1.09-.23c-1.48-.32-2.25-1.07-2.25-2.4,0-2,1.69-2.74,3.49-2.74s3.13.81,3.41,2.31l-2.58.39a.82.82,0,0,0-.91-.72c-.41,0-.69.19-.69.51s.23.47.65.54l1.09.2c1.79.3,2.54,1.26,2.54,2.63,0,1.91-1.66,2.65-3.66,2.65-1.85,0-3.07-.67-3.53-2.11Z" transform="translate(-64.98 -176.14)"/><path class="cls-2" d="M158.62,197.7a1.26,1.26,0,0,0,1.28,1c.51,0,.86-.18.86-.53s-.29-.51-.87-.63l-1.09-.23c-1.47-.32-2.25-1.07-2.25-2.4,0-2,1.69-2.74,3.5-2.74s3.12.81,3.4,2.31l-2.58.39a.82.82,0,0,0-.91-.72c-.41,0-.69.19-.69.51s.23.47.65.54l1.09.2c1.79.3,2.54,1.26,2.54,2.63,0,1.91-1.66,2.65-3.66,2.65-1.85,0-3.07-.67-3.53-2.11Z" transform="translate(-64.98 -176.14)"/><path class="cls-2" d="M117.52,184.83c0,.39.1.6.4.6a1.09,1.09,0,0,0,.51-.16v2a2.15,2.15,0,0,1-1.41.39,1.94,1.94,0,0,1-2-1.28,2.4,2.4,0,0,1-2.33,1.31,2.18,2.18,0,0,1-2.42-2.26c0-1.74,1.24-2.62,3.68-2.62h.83v-.54c0-.53-.18-.9-.69-.9s-.72.3-.75,1l-2.7-.42c.15-1.67,1.45-2.72,3.54-2.72,2.32,0,3.34,1,3.34,2.79Zm-2.74-.58h-.37c-1,0-1.37.32-1.37.85a.68.68,0,0,0,.76.68.91.91,0,0,0,1-1Z" transform="translate(-64.98 -176.14)"/><path class="cls-2" d="M124.91,182.59a2.18,2.18,0,0,0-1-.22c-.67,0-1.47.27-1.47,1.71v3.42h-2.83v-8.11h2.42l.28,2a2.51,2.51,0,0,1,2.76-2Z" transform="translate(-64.98 -176.14)"/><path class="cls-2" d="M125.93,179.39h3l.93,3.27c.34,1.17.53,2,.53,2h0s.17-.81.54-2l1.05-3.27h2.76l-2.95,8.11h-3.05Z" transform="translate(-64.98 -176.14)"/><path class="cls-2" d="M142,184.83c0,.39.1.6.4.6a1.05,1.05,0,0,0,.51-.16v2a2.1,2.1,0,0,1-1.4.39,1.93,1.93,0,0,1-2-1.28,2.43,2.43,0,0,1-2.34,1.31,2.18,2.18,0,0,1-2.42-2.26c0-1.74,1.25-2.62,3.69-2.62h.82v-.54c0-.53-.17-.9-.68-.9s-.72.3-.76,1l-2.7-.42c.16-1.67,1.46-2.72,3.55-2.72,2.31,0,3.33,1,3.33,2.79Zm-2.74-.58h-.37c-1,0-1.36.32-1.36.85a.67.67,0,0,0,.75.68.91.91,0,0,0,1-1Z" transform="translate(-64.98 -176.14)"/><path class="cls-2" d="M149.23,182.59a2.22,2.22,0,0,0-1-.22c-.67,0-1.48.27-1.48,1.71v3.42H144v-8.11h2.42l.28,2a2.51,2.51,0,0,1,2.75-2Z" transform="translate(-64.98 -176.14)"/><path class="cls-2" d="M155.86,176.65h2.85V187.5h-2.57l-.26-1.4a2.34,2.34,0,0,1-2.49,1.61c-1.9,0-3.25-1.47-3.25-4.11s1.3-4.4,3.58-4.4a2.13,2.13,0,0,1,2.14,1.24Zm0,6.22c0-1-.51-1.6-1.33-1.6s-1.53.61-1.53,2.23c0,1.33.56,2,1.49,2,.72,0,1.37-.54,1.37-1.65Z" transform="translate(-64.98 -176.14)"/><polygon class="cls-2" points="35.04 11.36 35.04 1.02 37.91 1.02 37.91 4.87 41.46 4.87 41.46 1.02 44.34 1.02 44.34 11.36 41.46 11.36 41.46 7.36 37.91 7.36 37.91 11.36 35.04 11.36"/></svg>