<?xml version="1.0" standalone="no"?>
<!DOCTYPE svg PUBLIC "-//W3C//DTD SVG 20010904//EN"
 "http://www.w3.org/TR/2001/REC-SVG-20010904/DTD/svg10.dtd">
<svg version="1.0" xmlns="http://www.w3.org/2000/svg"
 width="225.000000pt" height="225.000000pt" viewBox="0 0 225.000000 225.000000"
 preserveAspectRatio="xMidYMid meet">

<g transform="translate(0.000000,225.000000) scale(0.100000,-0.100000)"
fill="#000000" stroke="none">
<path d="M240 1641 c0 -5 7 -11 15 -15 11 -4 15 -20 15 -56 0 -38 4 -50 15
-50 12 0 15 13 15 55 0 30 5 55 10 55 6 0 10 5 10 10 0 6 -18 10 -40 10 -22 0
-40 -4 -40 -9z"/>
<path d="M380 1585 c0 -58 2 -65 19 -65 14 0 21 8 24 28 l4 27 2 -27 c0 -18 7
-28 16 -28 12 0 15 14 15 65 0 50 -3 65 -14 65 -8 0 -17 -12 -19 -27 l-4 -28
-2 28 c-1 20 -6 27 -21 27 -18 0 -20 -7 -20 -65z"/>
<path d="M530 1585 l0 -65 30 0 c17 0 30 5 30 10 0 6 -7 10 -15 10 -8 0 -15 6
-15 14 0 8 7 16 15 20 8 3 15 10 15 16 0 5 -7 10 -15 10 -8 0 -15 5 -15 10 0
6 7 13 15 16 25 10 17 24 -15 24 l-30 0 0 -65z"/>
<path d="M800 1534 c-52 -8 -107 -27 -149 -52 -40 -23 -54 -26 -123 -23 l-77
3 -3 -128 -3 -129 -27 -2 -28 -2 0 130 0 129 -70 0 -70 0 0 -310 0 -310 70 0
70 0 0 125 0 125 30 0 30 0 0 -124 0 -124 66 -4 c45 -2 68 1 71 9 3 8 18 2 45
-17 58 -42 131 -64 218 -63 94 0 171 28 247 90 l54 44 41 -37 c84 -75 212
-113 320 -94 61 11 143 44 154 61 3 5 39 9 79 9 l74 0 3 103 3 102 50 3 c43 3
56 9 92 45 l43 41 0 122 0 122 -47 41 -48 41 -116 0 c-109 0 -119 2 -170 29
-142 77 -317 55 -439 -55 l-40 -36 -42 36 c-54 47 -129 83 -197 96 -54 10 -65
10 -111 4z m170 -92 c42 -21 54 -31 52 -46 -3 -16 -1 -18 11 -8 11 10 17 9 28
-5 12 -16 12 -17 -2 -6 -13 11 -19 9 -34 -7 -15 -17 -16 -20 -3 -15 9 4 19 0
24 -7 4 -7 4 -10 0 -6 -11 9 -211 -93 -275 -141 -30 -23 -59 -37 -63 -33 -5 5
-17 30 -26 55 l-18 47 46 48 c28 29 54 69 65 100 13 36 25 52 39 55 42 6 102
-5 156 -31z m-215 -28 c-30 -78 -105 -147 -105 -96 0 9 -3 34 -6 54 l-7 38 64
30 c34 16 65 27 67 25 3 -3 -3 -25 -13 -51z m663 -4 l22 -28 -36 -53 c-20 -30
-37 -55 -38 -56 -3 -4 -189 37 -194 42 -3 2 22 31 54 63 68 67 141 102 159 75
6 -9 20 -28 33 -43z m101 53 c-1 -15 -69 -64 -79 -58 -5 3 -17 19 -25 36 l-16
29 61 0 c33 0 60 -3 59 -7z m49 -33 c7 -11 13 -23 14 -27 0 -5 7 -13 15 -18
10 -7 -2 -11 -44 -13 -82 -3 -93 7 -48 46 42 38 46 38 63 12z m-938 -69 c0
-10 3 -33 6 -51 6 -29 5 -31 -16 -28 -18 2 -24 10 -25 33 -2 33 10 65 25 65 6
0 10 -8 10 -19z m865 -6 c22 -8 55 -14 74 -15 25 0 32 -4 27 -15 -3 -8 -1 -15
4 -15 10 0 5 -20 -13 -58 -8 -17 -8 -28 0 -41 9 -14 8 -17 -6 -16 -24 2 -191
67 -191 75 0 6 60 100 63 100 1 0 20 -7 42 -15z m385 -106 l0 -90 -27 3 c-28
3 -28 3 -31 91 l-3 87 31 0 30 0 0 -91z m-837 55 c3 -3 -3 -25 -13 -48 -10
-22 -26 -60 -35 -83 -10 -23 -24 -44 -32 -47 -8 -3 -11 -10 -8 -16 3 -6 -1 -7
-10 -4 -11 4 -14 2 -9 -9 3 -8 0 -18 -7 -23 -7 -4 -10 -3 -7 2 4 5 -5 9 -18 9
-22 0 -23 -1 -7 -12 10 -8 12 -14 5 -14 -7 -1 -18 -2 -24 -3 -7 0 -13 -6 -13
-13 0 -18 -12 -26 -21 -12 -5 8 -3 10 7 4 8 -5 11 -4 6 0 -4 5 -16 9 -27 10
-16 1 -18 -1 -9 -14 6 -9 -6 2 -26 24 -59 64 -70 82 -55 100 23 28 144 102
210 128 68 28 83 31 93 21z m217 -30 c30 -3 65 -10 77 -15 l22 -8 -26 -78
c-15 -43 -28 -84 -29 -90 -2 -8 -19 -13 -38 -13 -28 0 -34 3 -29 16 4 12 0 14
-19 9 -25 -6 -25 -6 -31 72 -3 43 -9 89 -13 102 -6 20 -4 22 12 18 10 -3 44
-9 74 -13z m-588 -65 c15 -34 25 -65 23 -70 -3 -4 -24 -22 -46 -40 -39 -30
-41 -31 -34 -10 4 15 3 21 -3 18 -5 -4 -10 25 -11 72 -2 81 -3 80 39 90 3 0
17 -27 32 -60z m850 -20 l40 -21 -21 -19 c-12 -11 -21 -24 -21 -28 0 -5 -17
-19 -37 -31 -21 -12 -41 -28 -45 -35 -7 -11 -17 -10 -58 3 -40 12 -50 20 -50
37 0 21 32 124 45 145 6 10 74 -14 147 -51z m-746 -154 c16 -27 16 -29 1 -16
-13 10 -17 11 -17 1 0 -9 -7 -7 -20 5 -17 16 -20 16 -15 3 6 -15 2 -15 -44 -3
-27 7 -52 10 -55 7 -3 -3 -6 -2 -6 2 0 3 19 27 42 52 l42 46 27 -34 c15 -18
36 -46 45 -63z m520 6 c-3 -5 -15 -7 -26 -4 -28 7 -25 13 6 13 14 0 23 -4 20
-9z m44 -7 c0 -8 -4 -12 -10 -9 -5 3 -10 10 -10 16 0 5 5 9 10 9 6 0 10 -7 10
-16z"/>
<path d="M560 739 c-35 -14 -40 -26 -40 -96 0 -53 3 -64 22 -77 31 -22 91 -20
111 2 22 24 24 144 4 161 -21 17 -69 22 -97 10z m50 -95 c0 -36 -4 -64 -10
-64 -5 0 -10 1 -11 3 -6 25 -9 96 -4 114 10 43 25 13 25 -53z"/>
<path d="M830 739 c-34 -14 -40 -26 -40 -91 0 -72 21 -98 78 -98 46 0 69 15
78 53 6 26 4 27 -30 27 -32 0 -36 -3 -36 -25 0 -14 -4 -25 -10 -25 -6 0 -10
30 -10 70 0 40 4 70 10 70 6 0 10 -13 10 -30 0 -28 3 -30 36 -30 33 0 36 2 30
23 -3 12 -6 27 -6 34 0 11 -52 34 -74 32 -6 0 -22 -5 -36 -10z"/>
<path d="M1350 743 c-29 -11 -40 -37 -40 -99 0 -54 3 -65 22 -78 29 -20 77
-20 106 0 19 13 22 24 22 83 0 43 -5 72 -12 79 -16 13 -78 23 -98 15z m48 -98
c-4 -79 -28 -89 -28 -12 0 63 8 93 22 79 5 -5 8 -35 6 -67z"/>
<path d="M1878 739 c-23 -9 -28 -17 -28 -45 0 -29 5 -36 40 -54 26 -13 40 -27
40 -40 0 -11 -4 -20 -10 -20 -5 0 -10 9 -10 20 0 16 -7 20 -30 20 -25 0 -30
-4 -30 -25 0 -44 93 -62 130 -25 32 32 14 78 -40 100 -20 8 -30 19 -30 34 1
20 2 20 14 4 16 -21 66 -24 66 -4 0 33 -65 53 -112 35z"/>
<path d="M250 645 l0 -95 49 0 c27 0 61 4 75 10 25 9 26 13 26 83 0 43 -5 78
-12 85 -7 7 -39 12 -75 12 l-63 0 0 -95z m85 5 c0 -34 -5 -55 -12 -57 -10 -4
-13 12 -13 57 0 45 3 61 13 58 7 -3 12 -24 12 -58z"/>
<path d="M1060 726 c0 -7 9 -16 20 -19 18 -5 20 -14 20 -81 l0 -76 30 0 30 0
0 80 c0 73 2 80 20 80 11 0 20 7 20 15 0 12 -14 15 -70 15 -53 0 -70 -3 -70
-14z"/>
<path d="M1580 645 l0 -95 35 0 c35 0 35 0 35 45 0 25 5 45 10 45 6 0 10 -20
10 -45 0 -43 1 -45 30 -45 29 0 30 2 30 44 0 33 -5 46 -17 51 -17 6 -17 7 0
16 20 11 23 49 5 67 -7 7 -39 12 -75 12 l-63 0 0 -95z m90 45 c0 -11 -4 -20
-10 -20 -5 0 -10 9 -10 20 0 11 5 20 10 20 6 0 10 -9 10 -20z"/>
</g>
</svg>
