<svg xmlns="http://www.w3.org/2000/svg" viewBox="0 0 131.28 24.36"><defs><style>.cls-1{fill:#173149;}</style></defs><title>howto</title><g id="图层_2" data-name="图层 2"><g id="图层_1-2" data-name="图层 1"><path class="cls-1" d="M81.27,24.36a2.64,2.64,0,0,1-1-2.25c0-6.61,0-13.22,0-19.83C80.34.45,80.79,0,82.62,0h7.87c1.39,0,2,.56,2,2,0,1.79,0,3.58,0,5.44h-3.7V3.25H84.11V21.1h4.54V14.46H86.1V11.3h6.36v2.48c0,2.8,0,5.6,0,8.4a2.27,2.27,0,0,1-1.07,2.18Z"/><path class="cls-1" d="M0,0H3.63V9.91H8.52V.07h3.76V24.36H8.62V13.52h-5V24.36H0Z"/><path class="cls-1" d="M30.39,24.36q-1.29-5.82-2.57-11.64c-.29-1.33-.57-2.66-.86-4h3.48l1.59,9,.23,0,1.52-9h2.81l1.61,9.2.16,0L40,8.71h3.5L40.09,24.36H36.86l-1.57-7.77H35l-1.39,7.77Z"/><path class="cls-1" d="M120.72,24.36V.07h3.59V13.79l.25.06c.7-1.46,1.44-2.91,2.09-4.4a1.15,1.15,0,0,1,1.28-.84c.93.06,1.86,0,3,0-.28.59-.5,1.1-.74,1.59s-.47,1.08-.76,1.58a4.25,4.25,0,0,1-.34.51c-1.87,2.41-1.71,4.72-.1,7.22a40.91,40.91,0,0,1,2.33,4.84h-4.1l-2.57-6.43-.23.1v6.33Z"/><path class="cls-1" d="M15.74,24.36A2.88,2.88,0,0,1,14.85,22c0-3.76,0-7.53,0-11.29,0-1.56.5-2.06,2-2.07,2.15,0,4.3,0,6.45,0,1.35,0,1.91.53,1.92,1.88,0,4,0,8,0,11.93,0,.65-.58,1.28-.89,1.92Zm6-12.65H18.48v9.58h3.26Z"/><path class="cls-1" d="M61.44,24.36A2.88,2.88,0,0,1,60.55,22c0-3.76,0-7.53,0-11.29,0-1.56.5-2.06,2-2.07,2.15,0,4.3,0,6.45,0,1.35,0,1.91.53,1.92,1.88,0,4,0,8,0,11.93,0,.65-.58,1.28-.89,1.92Zm6-3V11.7H64.17v9.62Z"/><path class="cls-1" d="M95.93,24.36A2.88,2.88,0,0,1,95,22c0-3.73,0-7.47,0-11.21,0-1.68.47-2.14,2.19-2.14,2,0,4,0,6,0,1.36,0,1.9.54,1.91,1.88q0,2.64,0,5.28a1.52,1.52,0,0,1-1.59,1.61c-1.65,0-3.3,0-5,0v4.24h3.17V19.18h3.49c-.34,1.76.68,3.66-.9,5.18Zm5.77-9.47V11.36H98.58v3.53Z"/><path class="cls-1" d="M108.64,24.36a2.88,2.88,0,0,1-.88-2.38c0-3.73,0-7.47,0-11.21,0-1.68.47-2.14,2.19-2.14,2,0,4,0,6,0,1.36,0,1.9.54,1.91,1.88q0,2.64,0,5.28a1.52,1.52,0,0,1-1.59,1.61c-1.65,0-3.3,0-5,0v4.24h3.17V19.18H118c-.34,1.76.68,3.66-.9,5.18Zm5.78-9.47V11.35h-3.13V14.9Z"/><path class="cls-1" d="M52.81,24.36q0-5.92.06-11.84c0-3,0-6.09,0-9.26H48.93V.08H60.52V3.19h-4V4.55q0,9.26,0,18.52c0,.43,0,.86-.07,1.28Z"/><path class="cls-1" d="M44.6,16.54v-3.1h5.1v3.1Z"/></g></g></svg>