<?xml version="1.0" standalone="no"?>
<!DOCTYPE svg PUBLIC "-//W3C//DTD SVG 20010904//EN"
 "http://www.w3.org/TR/2001/REC-SVG-20010904/DTD/svg10.dtd">
<svg version="1.0" xmlns="http://www.w3.org/2000/svg"
 width="554.000000pt" height="554.000000pt" viewBox="0 0 554.000000 554.000000"
 preserveAspectRatio="xMidYMid meet">

<g transform="translate(0.000000,554.000000) scale(0.100000,-0.100000)"
fill="#000000" stroke="none">
<path d="M4745 3808 c-14 -40 -32 -124 -27 -132 3 -5 20 9 38 31 39 47 92 66
174 61 l55 -3 0 -300 0 -299 -25 -13 c-14 -6 -34 -15 -45 -18 -44 -14 14 -24
133 -24 100 0 122 2 122 14 0 8 -7 15 -15 15 -9 0 -29 7 -46 15 l-29 16 2 297
3 297 80 0 c106 0 140 -17 160 -79 10 -33 24 -4 31 68 l7 68 -31 -16 c-43 -22
-503 -23 -542 -1 -31 18 -39 18 -45 3z"/>
<path d="M3683 3791 c-102 -35 -169 -97 -215 -201 -16 -34 -20 -68 -21 -140
-1 -85 2 -101 27 -150 37 -74 88 -125 161 -161 55 -27 69 -29 167 -29 95 0
114 3 162 26 68 32 127 91 163 162 25 50 28 65 28 161 0 83 -4 115 -19 146
-51 107 -116 165 -216 192 -65 18 -176 15 -237 -6z m240 -48 c89 -60 137 -169
137 -312 0 -75 -4 -100 -25 -148 -75 -169 -264 -203 -391 -71 -51 53 -66 83
-89 173 -39 159 15 315 130 369 46 22 65 25 133 21 48 -3 73 -11 105 -32z"/>
<path d="M4372 3788 c-62 -30 -92 -81 -92 -155 1 -76 32 -122 125 -185 39 -27
84 -59 102 -73 62 -49 81 -131 42 -186 -68 -95 -210 -69 -264 48 -21 44 -45
57 -45 23 0 -10 5 -41 10 -68 15 -66 47 -82 171 -82 108 0 156 20 194 80 36
57 36 152 -1 206 -32 46 -36 50 -140 119 -97 64 -124 97 -124 154 0 51 22 86
62 100 71 25 143 2 174 -55 11 -20 26 -34 37 -34 16 0 18 5 12 33 -18 84 -35
95 -150 96 -51 0 -81 -6 -113 -21z"/>
<path d="M200 3786 c0 -11 9 -16 29 -16 50 0 56 -32 56 -320 0 -260 -5 -300
-39 -300 -8 0 -19 -6 -25 -14 -18 -21 7 -26 125 -26 81 0 104 3 104 14 0 7
-15 17 -32 22 -25 7 -36 18 -45 44 -16 47 -17 232 -1 248 8 8 66 12 195 12
216 0 203 9 203 -135 0 -116 -14 -158 -60 -173 -17 -6 -29 -16 -25 -22 8 -13
232 -13 240 0 3 5 -11 17 -32 27 l-38 18 -3 284 c-2 254 -1 286 14 303 10 10
26 18 36 18 11 0 18 5 16 11 -4 12 -227 15 -230 2 -2 -4 10 -10 26 -13 40 -7
54 -51 55 -167 1 -81 -1 -94 -18 -103 -11 -6 -90 -10 -186 -10 -96 0 -175 4
-186 10 -17 9 -19 22 -18 103 0 114 14 161 49 165 14 2 29 8 35 13 5 5 -29 9
-87 9 -52 0 -110 3 -127 6 -24 5 -31 3 -31 -10z"/>
<path d="M1024 3791 c-12 -12 -1 -21 26 -21 19 0 33 -7 40 -19 6 -11 10 -88
10 -178 0 -387 43 -463 266 -463 107 0 160 17 204 67 59 64 71 122 77 358 5
210 11 235 54 235 10 0 21 5 24 10 4 6 -28 10 -89 10 -52 0 -101 3 -110 6 -11
4 -16 1 -16 -10 0 -11 9 -16 31 -16 50 0 59 -38 59 -252 0 -214 -13 -270 -76
-325 -78 -69 -206 -61 -275 15 -52 59 -64 122 -64 327 0 202 4 223 46 232 61
12 20 24 -90 26 -62 1 -115 0 -117 -2z"/>
<path d="M1824 3791 c-10 -11 -2 -21 16 -21 44 0 50 -40 50 -315 0 -165 -4
-264 -11 -277 -6 -11 -27 -26 -46 -35 -59 -24 -26 -34 102 -31 84 2 120 7 123
16 2 7 -5 12 -18 12 -11 0 -32 11 -45 25 -24 23 -25 30 -25 138 0 138 7 148
91 146 71 -2 115 -23 128 -61 6 -17 16 -28 23 -26 9 3 13 31 13 94 0 72 -3 89
-15 89 -8 0 -16 -9 -18 -20 -6 -36 -31 -45 -123 -45 -70 0 -88 3 -93 16 -10
26 -7 234 4 255 9 16 21 19 83 18 98 0 136 -15 160 -62 25 -48 39 -36 35 29
l-3 49 -213 5 c-118 3 -216 3 -218 1z"/>
<path d="M2364 3791 c-10 -10 -2 -21 15 -21 11 0 27 -10 35 -22 14 -19 16 -64
16 -294 l0 -273 -26 -20 c-14 -11 -35 -23 -46 -27 -16 -5 -18 -8 -7 -15 19
-12 236 -12 243 0 4 5 -11 18 -31 28 -46 22 -51 38 -52 169 -1 122 7 134 88
134 67 0 116 -23 131 -61 22 -53 34 -28 35 71 0 62 -4 95 -12 97 -6 2 -14 -6
-18 -19 -16 -50 -32 -58 -125 -58 -71 0 -89 3 -94 16 -10 26 -7 234 4 255 9
16 22 19 84 19 94 0 138 -18 160 -65 23 -47 36 -36 36 30 l0 54 -216 3 c-119
2 -218 1 -220 -1z"/>
<path d="M2940 3792 l-55 -7 35 -19 c19 -10 38 -24 42 -30 4 -6 8 -133 8 -283
0 -295 1 -292 -57 -314 -48 -18 -11 -29 100 -29 136 0 158 10 93 38 l-46 21 2
298 3 298 42 3 c92 7 173 -69 173 -163 0 -60 -58 -155 -95 -155 -6 0 -20 -9
-30 -20 -17 -19 -17 -20 -1 -20 38 0 128 33 156 57 59 49 78 149 41 221 -40
78 -92 101 -245 106 -61 2 -136 1 -166 -2z"/>
<path d="M420 2920 c-25 -4 -39 -8 -31 -8 8 -1 27 -15 42 -32 l29 -30 0 -280
c0 -232 -3 -286 -15 -310 -9 -18 -24 -30 -35 -30 -10 0 -22 -4 -25 -10 -4 -7
50 -10 154 -10 211 0 285 18 343 84 54 62 45 190 -18 246 -19 16 -40 30 -47
30 -7 0 -23 7 -35 16 l-22 15 29 30 c76 76 80 180 9 246 -47 44 -235 65 -378
43z m264 -36 c52 -26 79 -82 74 -156 -4 -53 -9 -65 -35 -89 -37 -32 -136 -59
-162 -42 -13 8 -17 32 -19 134 -4 168 -3 169 58 169 27 0 65 -7 84 -16z m34
-329 c77 -33 112 -86 112 -170 0 -69 -23 -106 -83 -135 -45 -22 -116 -26 -150
-9 -51 26 -57 45 -57 185 0 72 3 134 7 137 12 13 134 7 171 -8z"/>
<path d="M983 2918 c-2 -5 7 -8 20 -8 13 0 32 -9 43 -21 17 -19 20 -44 25
-258 4 -143 11 -251 18 -275 18 -55 85 -118 144 -133 118 -32 254 -6 317 58
64 66 72 104 79 354 6 191 9 224 25 248 13 19 27 27 49 27 17 0 28 3 24 6 -9
9 -228 11 -233 2 -3 -4 8 -8 24 -8 17 0 37 -9 48 -21 18 -20 19 -39 19 -253 0
-255 -3 -270 -65 -334 -41 -43 -67 -52 -155 -52 -87 0 -133 22 -170 80 -35 55
-45 133 -45 337 0 211 8 243 60 243 17 0 30 3 30 8 0 9 -250 9 -257 0z"/>
<path d="M1965 2921 c-16 -6 -9 -10 32 -16 61 -8 112 -39 131 -78 19 -40 32
-33 32 16 0 29 -6 49 -17 60 -21 18 -147 31 -178 18z"/>
<path d="M2290 2918 c0 -5 13 -8 30 -8 56 0 60 -24 60 -338 0 -311 -5 -342
-50 -342 -16 0 -32 -4 -35 -10 -4 -6 42 -10 132 -10 93 0 133 3 123 10 -8 5
-24 10 -36 10 -13 0 -27 12 -38 33 -15 29 -17 63 -14 318 3 266 4 288 22 308
11 12 31 21 49 21 17 0 28 3 25 6 -9 9 -268 10 -268 2z"/>
<path d="M2630 2922 c0 -6 13 -13 29 -17 43 -9 69 -39 76 -90 4 -24 5 -156 3
-292 -4 -266 -9 -293 -53 -293 -13 0 -27 -4 -30 -10 -4 -6 35 -10 110 -10 75
0 114 4 110 10 -3 6 -19 10 -35 10 -54 0 -59 28 -60 291 0 129 -1 240 0 247 0
14 27 17 32 3 2 -5 28 -37 58 -72 126 -145 215 -247 252 -289 52 -58 189 -200
194 -200 1 0 4 145 6 323 3 294 5 324 22 349 10 15 22 25 27 22 5 -3 17 0 26
5 22 13 30 12 -105 14 -61 1 -112 -1 -112 -5 0 -5 6 -8 13 -9 6 -1 20 -2 31
-3 10 0 27 -17 37 -36 17 -31 19 -59 19 -257 0 -122 -4 -224 -8 -227 -11 -6
-41 23 -117 110 -33 37 -83 93 -111 124 -27 30 -77 86 -110 125 -32 38 -65 76
-72 84 -8 8 -25 31 -38 53 -23 35 -28 38 -72 38 -26 0 -64 3 -84 6 -24 4 -38
3 -38 -4z"/>
<path d="M3526 2921 c-3 -5 7 -14 23 -19 56 -20 60 -41 59 -335 0 -302 -5
-326 -66 -338 -76 -15 -32 -19 220 -19 201 0 268 3 275 13 10 12 43 104 43
119 0 19 -18 5 -48 -38 -42 -59 -80 -74 -187 -74 -96 0 -141 16 -150 53 -3 12
-4 78 -3 147 l3 125 75 3 c99 4 116 -2 136 -43 9 -19 19 -35 23 -35 3 0 6 43
6 95 0 52 -1 95 -1 95 -1 0 -13 -18 -28 -40 l-26 -40 -95 0 -95 0 0 155 c0
141 2 155 18 156 72 3 182 -4 209 -12 32 -10 63 -46 63 -74 0 -18 16 -20 22
-2 3 6 2 35 -1 62 l-6 50 -232 3 c-133 1 -234 -2 -237 -7z"/>
<path d="M4352 2921 c-9 -5 2 -10 31 -14 65 -9 113 -35 133 -73 10 -19 22 -34
26 -34 11 0 10 82 -1 99 -14 22 -162 40 -189 22z"/>
<path d="M4875 2921 c-15 -6 -8 -9 30 -14 61 -9 110 -37 133 -77 22 -39 32
-38 32 3 0 48 -10 76 -29 81 -35 10 -147 15 -166 7z"/>
<path d="M1895 2900 c-32 -13 -66 -50 -86 -94 -20 -47 -15 -92 18 -148 18 -32
118 -117 138 -118 13 0 60 -37 101 -78 23 -22 35 -45 39 -76 17 -113 -94 -189
-207 -141 -38 15 -94 73 -109 112 -15 40 -32 16 -24 -35 9 -62 26 -84 77 -99
51 -15 174 -17 183 -3 3 6 16 10 27 10 52 0 128 98 128 165 0 44 -31 111 -72
153 -23 23 -46 42 -51 42 -4 0 -23 11 -41 25 -18 14 -38 25 -45 25 -6 0 -32
20 -56 45 -42 42 -45 48 -45 97 0 54 16 85 54 105 24 13 0 24 -29 13z"/>
<path d="M4295 2902 c-25 -5 -73 -49 -91 -84 -8 -15 -14 -47 -14 -71 0 -70 44
-127 162 -204 112 -73 148 -117 148 -178 0 -104 -107 -164 -212 -120 -38 15
-92 71 -111 114 -11 25 -11 25 -15 -18 -5 -70 12 -98 71 -116 57 -17 173 -20
182 -5 3 6 15 10 25 10 56 0 130 93 130 165 0 66 -66 170 -123 195 -7 3 -44
26 -84 52 -81 53 -103 86 -103 152 0 39 4 48 36 74 36 30 36 42 -1 34z"/>
<path d="M4815 2902 c-25 -5 -73 -49 -91 -84 -24 -46 -18 -108 15 -161 22 -34
56 -63 131 -112 59 -39 110 -81 125 -103 85 -124 -56 -263 -194 -192 -42 21
-88 69 -102 108 -13 33 -24 19 -21 -26 5 -67 20 -89 70 -106 51 -18 177 -22
187 -6 3 6 15 10 27 10 38 0 78 34 103 87 30 62 31 97 6 156 -24 56 -65 94
-168 158 -101 62 -123 90 -123 157 0 46 3 53 36 80 36 30 36 42 -1 34z"/>
</g>
</svg>
