<?xml version="1.0" encoding="UTF-8" standalone="no"?>
<!-- Created with Inkscape (http://www.inkscape.org/) -->

<svg
   xmlns:dc="http://purl.org/dc/elements/1.1/"
   xmlns:cc="http://creativecommons.org/ns#"
   xmlns:rdf="http://www.w3.org/1999/02/22-rdf-syntax-ns#"
   xmlns:svg="http://www.w3.org/2000/svg"
   xmlns="http://www.w3.org/2000/svg"
   xmlns:sodipodi="http://sodipodi.sourceforge.net/DTD/sodipodi-0.dtd"
   xmlns:inkscape="http://www.inkscape.org/namespaces/inkscape"
   width="52.724239mm"
   height="17.94384mm"
   viewBox="0 0 52.72424 17.94384"
   version="1.1"
   id="svg8"
   inkscape:version="0.92.1 r15371"
   sodipodi:docname="drawing.svg">
  <defs
     id="defs2" />
  <sodipodi:namedview
     id="base"
     pagecolor="#ffffff"
     bordercolor="#666666"
     borderopacity="1.0"
     inkscape:pageopacity="0.0"
     inkscape:pageshadow="2"
     inkscape:zoom="2.1606942"
     inkscape:cx="112.16833"
     inkscape:cy="4.4773496"
     inkscape:document-units="mm"
     inkscape:current-layer="layer1"
     showgrid="false"
     inkscape:pagecheckerboard="true"
     fit-margin-top="0"
     fit-margin-left="0"
     fit-margin-right="0"
     fit-margin-bottom="0"
     inkscape:window-width="768"
     inkscape:window-height="659"
     inkscape:window-x="560"
     inkscape:window-y="47"
     inkscape:window-maximized="0" />
  <metadata
     id="metadata5">
    <rdf:RDF>
      <cc:Work
         rdf:about="">
        <dc:format>image/svg+xml</dc:format>
        <dc:type
           rdf:resource="http://purl.org/dc/dcmitype/StillImage" />
        <dc:title></dc:title>
      </cc:Work>
    </rdf:RDF>
  </metadata>
  <g
     inkscape:label="Layer 1"
     inkscape:groupmode="layer"
     id="layer1"
     transform="translate(44.787038,-155.31404)">
    <g
       id="g27"
       transform="translate(-5.195757,-24.920172)">
      <path
         style="fill:#f95600;stroke-width:0.04810606"
         d="m -28.815526,194.80435 c -0.560194,-0.15229 -0.968,-0.37543 -1.339096,-0.73269 -0.600031,-0.57766 -0.868899,-1.24738 -0.87173,-2.17138 -0.003,-0.97107 0.243942,-1.62714 0.834743,-2.21794 1.118252,-1.11825 3.16174,-1.18093 4.233544,-0.12985 0.274128,0.26883 0.624877,0.78488 0.570454,0.83931 -0.04265,0.0427 -1.288025,0.57041 -1.346015,0.57041 -0.02088,0 -0.06439,-0.0595 -0.09669,-0.13229 -0.195482,-0.44033 -0.651345,-0.73253 -1.143356,-0.73288 -0.625359,-4.3e-4 -1.011595,0.25039 -1.307485,0.84908 -0.18093,0.36608 -0.183803,0.38058 -0.183803,0.92761 0,0.52841 0.0078,0.57212 0.158072,0.88952 0.285257,0.6024 0.731439,0.90908 1.322073,0.90873 0.430572,-2.4e-4 0.710119,-0.11432 0.960017,-0.39176 0.182897,-0.20305 0.251644,-0.36542 0.221119,-0.52225 -0.01548,-0.0795 -0.07377,-0.088 -0.605647,-0.088 h -0.588522 l 4.8e-5,-0.56525 7.5e-5,-0.56524 h 1.474585 1.474585 l -0.03016,0.52707 c -0.07989,1.39635 -0.835371,2.39662 -2.055285,2.72127 -0.298918,0.0795 -1.409559,0.0905 -1.681531,0.0165 z m 5.435985,-0.0641 c -0.893319,-0.29007 -1.441311,-1.05169 -1.442661,-2.00506 -0.0012,-0.86664 0.431082,-1.56446 1.193447,-1.92644 0.184787,-0.0877 0.311602,-0.10728 0.707233,-0.10901 0.450657,-0.002 0.503167,0.008 0.805777,0.15726 0.178037,0.0876 0.323704,0.17965 0.323704,0.20445 0,0.0248 0.02165,0.0451 0.04811,0.0451 0.02646,0 0.04811,-0.0649 0.04811,-0.14432 v -0.14432 h 0.697538 0.697538 v 1.92425 1.92424 h -0.697538 -0.697538 v -0.19802 -0.19802 l -0.191352,0.17287 c -0.105244,0.0951 -0.273014,0.20768 -0.372822,0.25021 -0.256202,0.10918 -0.850898,0.13405 -1.119538,0.0468 z m 1.283655,-1.22569 c 0.550501,-0.24993 0.630185,-1.09588 0.13855,-1.47087 -0.190724,-0.14547 -0.515934,-0.20378 -0.819205,-0.14689 -0.388829,0.0729 -0.692843,0.54004 -0.633462,0.97327 0.08034,0.58618 0.735189,0.90734 1.314117,0.64449 z m 10.463393,1.19873 c -1.069206,-0.2801 -1.61567,-1.0535 -1.532025,-2.16825 0.04748,-0.63272 0.331773,-1.18014 0.769201,-1.48109 0.117315,-0.0807 0.383587,-0.20403 0.591716,-0.27403 0.340293,-0.11445 0.429304,-0.12495 0.88353,-0.10429 0.9695613,0.0441 1.5816214,0.44362 1.876972,1.22513 0.09718,0.25715 0.2015538,0.99781 0.1481383,1.05123 -0.012801,0.0128 -0.6631051,0.0213 -1.4451203,0.0189 l -1.421846,-0.004 -0.01311,0.1594 c -0.0489,0.5946 0.925244,0.94048 1.376916,0.4889 l 0.161155,-0.16112 h 0.6446213 c 0.7132483,0 0.7014787,-0.007 0.5531023,0.31269 -0.376175,0.80962 -1.5122526,1.22005 -2.5932516,0.93686 z m 1.434013,-2.63914 c 0,-0.13426 -0.333295,-0.43379 -0.546611,-0.49124 -0.102199,-0.0275 -0.269158,-0.036 -0.371021,-0.0187 -0.243279,0.0411 -0.548183,0.26601 -0.613104,0.45224 l -0.05176,0.14847 h 0.791247 c 0.743228,0 0.791248,-0.006 0.791248,-0.0907 z m 2.0297875,2.64245 c -0.3516264,-0.0954 -0.9233482,-0.32925 -0.9233482,-0.37771 0,-0.0142 0.029835,-0.0599 0.066299,-0.10167 0.1094288,-0.12535 0.3166562,-0.5461 0.3459985,-0.70251 l 0.027435,-0.14624 0.3213269,0.1583 c 0.6813314,0.33566 1.3075011,0.30438 1.3075011,-0.0653 0,-0.155 -0.1540736,-0.24203 -0.6754625,-0.38157 -0.6198274,-0.16587 -0.7901479,-0.2716 -0.9439343,-0.58593 -0.1100051,-0.22484 -0.122275,-0.29632 -0.097111,-0.5658 0.035554,-0.38074 0.1607603,-0.63461 0.4241944,-0.8601 0.3548938,-0.30377 0.6489522,-0.38921 1.3404196,-0.38943 0.4605348,-1.4e-4 0.6632739,0.0208 0.8659091,0.0895 0.1455209,0.0493 0.2804579,0.104 0.2998596,0.12147 0.036895,0.0332 -0.3193983,0.75088 -0.3964233,0.79848 -0.024356,0.0151 -0.1726642,-0.006 -0.3295727,-0.0465 -0.156909,-0.0407 -0.3471074,-0.0738 -0.4226633,-0.0737 -0.189293,2.5e-4 -0.4500639,0.16738 -0.4500639,0.28846 0,0.12757 0.2371316,0.26999 0.5202213,0.31244 0.5452192,0.0818 1.0043632,0.35787 1.141707,0.68658 0.039349,0.0942 0.06989,0.31997 0.06989,0.5167 0,0.62476 -0.3281185,1.0472 -0.9955901,1.2818 -0.4124166,0.14495 -1.0525952,0.16328 -1.4965921,0.0428 z m -11.7953185,-1.97445 v -1.92425 h 0.673485 0.673485 v 0.21648 c 0,0.11906 0.0093,0.21648 0.02063,0.21648 0.01134,0 0.103348,-0.0781 0.204451,-0.17347 0.293173,-0.27665 0.519045,-0.36968 0.95352,-0.39272 0.511942,-0.0272 0.865387,0.0992 1.19648,0.42779 l 0.234359,0.23258 0.2155,-0.21246 c 0.310508,-0.30612 0.586612,-0.42559 1.038948,-0.44956 0.679006,-0.036 1.095857,0.22362 1.279117,0.79655 0.09552,0.29863 0.104627,0.43864 0.114204,1.75567 l 0.01041,1.43116 h -0.685512 l -0.685511,-1e-5 v -1.08002 c 0,-0.59401 -0.02281,-1.18639 -0.05069,-1.31639 -0.122652,-0.57191 -0.731157,-0.70419 -1.076379,-0.23399 -0.09369,0.12762 -0.100524,0.21002 -0.114615,1.38305 l -0.01498,1.24735 h -0.694582 -0.694581 l -2.89e-4,-1.16657 c -1.44e-4,-0.64724 -0.02219,-1.24551 -0.04951,-1.34388 -0.106148,-0.38218 -0.585072,-0.55772 -0.88276,-0.32356 -0.269858,0.21227 -0.286716,0.30058 -0.309123,1.61933 l -0.02062,1.21468 h -0.667713 -0.667712 z m 18.6385434,0.28863 c 0,-0.85989 0.00652,-1.21167 0.014496,-0.78172 0.00797,0.42995 0.00797,1.1335 0,1.56345 -0.00797,0.42994 -0.014496,0.0782 -0.014496,-0.78173 z"
         id="path31"
         inkscape:connector-curvature="0" />
      <path
         style="fill:#1f1c1e;stroke-width:0.04810606"
         d="m -4.1258104,197.4438 -0.7331735,-0.73432 0.012165,-8.22543 0.012165,-8.22544 8.2494872,-0.0122 8.2494867,-0.0122 0.73432,0.73318 0.73432,0.73317 v 8.23875 8.23874 H 4.8701617 -3.3926365 Z M 10.43902,188.46054 V 181.485 l -7.0114581,0.0122 -7.0114585,0.0122 -0.012189,6.96335 -0.012188,6.96336 H 3.4153733 10.43902 Z m -13.2291666,3.36758 v -2.83826 h 0.7450648 0.7450652 l 0.2939665,0.37283 c 0.16168163,0.20505 0.50289408,0.63995 0.75824971,0.96645 0.25535516,0.3265 0.57252131,0.7304 0.70481298,0.89755 0.13229167,0.16716 0.40288827,0.51022 0.60132581,0.76236 l 0.3607954,0.45844 0.012626,-1.72881 0.012627,-1.72882 h 0.7450436 0.7450441 v 2.83948 2.83948 l -0.754687,-0.0132 -0.7546864,-0.0132 -0.73816493,-0.93807 c -0.83183607,-1.05711 -1.5450094,-1.97462 -1.78917987,-2.30182 -0.1455762,-0.19507 -0.1682505,-0.20931 -0.2001001,-0.12566 -0.019756,0.0519 -0.032466,0.83577 -0.028244,1.74197 l 0.00768,1.64763 h -0.7336174 -0.7336175 z m -30.1459284,2.98059 c -0.587374,-0.11621 -1.296683,-0.53483 -1.713431,-1.01124 -0.417299,-0.47703 -0.594315,-0.91399 -0.688066,-1.69847 l -0.02799,-0.23423 -0.160867,0.23887 c -0.333982,0.49593 -0.817955,0.68333 -1.864,0.72173 l -0.709564,0.026 v 0.90748 0.90748 h -0.745644 -0.745644 v -2.81421 -2.8142 h 1.384091 c 1.197022,0 1.4273,0.012 1.7038,0.0887 0.746348,0.20696 1.169885,0.70434 1.2706,1.49214 l 0.03297,0.25788 0.196306,-0.37814 c 0.388065,-0.74753 1.116539,-1.31935 1.954661,-1.53432 0.478133,-0.12264 1.453718,-0.077 1.876136,0.0878 0.422232,0.16473 0.57645,0.24268 0.576897,0.29159 1.93e-4,0.0226 -0.09163,0.14393 -0.204075,0.26969 -0.112448,0.12575 -0.278919,0.37788 -0.369935,0.56028 -0.09101,0.18241 -0.170087,0.33856 -0.175715,0.34701 -0.0056,0.008 -0.115165,-0.0334 -0.243418,-0.093 -0.185144,-0.086 -0.322385,-0.10891 -0.66614,-0.1112 -0.403879,-0.003 -0.453294,0.008 -0.735809,0.16096 -0.330708,0.17891 -0.532172,0.3989 -0.693833,0.75763 -0.08347,0.18522 -0.104189,0.32011 -0.102187,0.66528 0.0022,0.37171 0.02146,0.47241 0.136475,0.71184 0.149776,0.31181 0.410199,0.5531 0.767567,0.71118 0.321916,0.1424 0.932644,0.14285 1.253494,9.2e-4 0.125609,-0.0556 0.232929,-0.10102 0.238491,-0.10102 0.0056,0 0.09339,0.16187 0.195163,0.35971 0.101778,0.19785 0.279424,0.4676 0.394768,0.59946 l 0.209717,0.23974 -0.247237,0.12528 c -0.539998,0.27364 -1.457549,0.38795 -2.097575,0.26132 z m -4.124101,-3.2821 c 0.399051,-0.21063 0.407404,-0.91286 0.01419,-1.19286 -0.133313,-0.0949 -0.233019,-0.1168 -0.606768,-0.13315 l -0.447241,-0.0196 v 0.73307 0.73306 l 0.444981,-0.0207 c 0.284391,-0.0132 0.499064,-0.0493 0.594839,-0.0998 z"
         id="path29"
         inkscape:connector-curvature="0" />
    </g>
  </g>
</svg>
