<?xml version="1.0" encoding="utf-8"?>
<!-- Generator: Adobe Illustrator 19.0.0, SVG Export Plug-In . SVG Version: 6.00 Build 0)  -->
<svg version="1.1" id="Layer_1" xmlns="http://www.w3.org/2000/svg" xmlns:xlink="http://www.w3.org/1999/xlink" x="0px" y="0px"
	 viewBox="0 0 500 500" style="enable-background:new 0 0 500 500;" xml:space="preserve">
<style type="text/css">
	.st0{fill:#DA2128;}
	.st1{fill:#831418;}
	.st2{fill:#FFFFFF;}
	.st3{fill:#231F20;}
</style>
<g id="XMLID_1_">
	<polyline id="XMLID_3_" class="st0" points="67.5,204.6 432.5,204.6 432.5,295.4 67.5,295.4 67.5,204.6 	"/>
	<path id="XMLID_14_" class="st1" d="M342.8,232c-6.3,0-10.3,3.5-13.3,9.2h-0.1v-8.6h-15.4v54.8h15.7v-32.7c0-8.2,7-9.5,11.1-9.5
		c1.2,0,4.3,0.2,7,0.6v-13.2C346.4,232.1,344.1,232,342.8,232 M286.7,277.2c-5.4,0-7.7-3.4-7.7-8.3v-17.4c0-4.8,2.2-8.7,7.5-8.7
		c4.9,0,7.5,3.7,7.5,8.5v17.5C294,273.4,292.2,277.2,286.7,277.2 M286.4,231.4c-12.1,0-23.2,6.8-23.2,21.1v15.8
		c0,14.9,11.2,20.4,23.3,20.4c11.8,0,23.3-5.9,23.3-20.6v-16C309.8,237.3,298.4,231.4,286.4,231.4 M93.1,249v-22.3h9
		c6.2,0,9.3,4.5,9.3,10.8c0,7-3.5,11.5-10.1,11.5H93.1 M104.9,213.7H77.6v73.7h15.8v-25.9h10.9c15.5,0,22.4-11.1,22.4-24.7
		C126.7,223.9,119.7,213.7,104.9,213.7 M267.3,213.7h-14.5L244,260h-0.1l-8.9-46.3h-14.5l-9.2,46.3h-0.3l-8.9-46.3h-15.5l15.4,73.9
		h14.5l11-48.8h0.4l9.1,48.8h14.9L267.3,213.7 M401,276.9c-4.2,0-7.1-3-7.1-7.9v-18.3c0-6,3.2-8.1,7.1-8.1c3.7,0,8.3,2.3,8.3,9.1
		v15.1C409.3,273.1,405.2,276.9,401,276.9 M424.8,213.7h-15.6v24H409c-2.8-4.5-8.3-6.3-13-6.3c-10.2,0-17.9,6.8-17.9,16.7v23.7
		c0,9.8,5.6,16.7,16.8,16.7c5.1,0,10.7-2.6,14.2-8.4h0.4l0.1,7.2h15V213.7 M367,213.6h-15.7v61.8c0,8.4,5.4,13,14.5,13
		c3.2,0,6.5-0.6,9.5-1.6v-12.1c-1.5,0.2-2.8,0.4-3.9,0.4c0,0,0,0,0,0c-3.7,0-4.5-1.9-4.5-4.3V213.6 M156,212.5
		c-14,0-26.2,8.2-26.2,23.8v28.3c0,16.9,12.3,24.1,26.3,24.1c13,0,24.3-7.5,24.3-21.9v-5.6l-14.6-0.2v4.8c0,5.9-4.1,9.4-9.8,9.4
		c-6.5,0-10.2-3.6-10.2-11.1v-27.5c0-6.6,3.5-10.6,10.1-10.6c5.9,0,9.9,3.6,9.9,9.6l-0.1,4.6h14.6v-5.8
		C180.4,219.9,168.9,212.5,156,212.5"/>
	<path id="XMLID_19_" class="st2" d="M399.3,274.8c-4.2,0-7.1-3-7.1-7.9v-18.3c0-6,3.2-8.1,7.1-8.1c3.7,0,8.3,2.3,8.3,9.1v15.1
		C407.6,271,403.5,274.8,399.3,274.8 M393.4,286.4c5.1,0,10.7-2.6,14.2-8.4h0.4l0.1,7.2h15v-73.7h-15.6v24h-0.2
		c-2.8-4.5-8.3-6.3-13-6.3c-10.2,0-17.9,6.8-17.9,16.7v23.7C376.5,279.5,382.2,286.4,393.4,286.4 M364.2,286.3
		c3.2,0,6.5-0.6,9.5-1.6v-12.1c-1.5,0.2-2.8,0.4-3.9,0.4c-3.7,0-4.5-1.9-4.5-4.3v-57.1h-15.7v61.8
		C349.6,281.7,355.1,286.3,364.2,286.3 M312.4,285.3h15.7v-32.7c0-8.2,7-9.5,11.1-9.5c1.2,0,4.3,0.2,7,0.6v-13.2
		c-1.5-0.4-3.8-0.5-5-0.5c-6.3,0-10.3,3.5-13.3,9.2h-0.1v-8.6h-15.4V285.3"/>
	<path id="XMLID_24_" class="st3" d="M399.3,274.8v-0.1c-2.1,0-3.8-0.7-5-2.1c-1.2-1.3-1.9-3.2-1.9-5.7v-18.3c0-3,0.8-4.9,2.1-6.2
		c1.3-1.2,3-1.7,4.9-1.7c1.8,0,3.8,0.6,5.4,2c1.6,1.4,2.7,3.6,2.7,7v15.1c0,6.2-4,9.9-8.1,9.9v0.3c2.1,0,4.2-0.9,5.8-2.7
		c1.6-1.7,2.6-4.3,2.6-7.5v-15.1c0-3.4-1.2-5.8-2.8-7.2c-1.6-1.5-3.7-2-5.6-2c-2,0-3.8,0.5-5.1,1.8c-1.3,1.3-2.1,3.3-2.1,6.4v18.3
		c0,2.5,0.7,4.5,2,5.8c1.3,1.4,3.1,2.2,5.2,2.2L399.3,274.8 M393.4,286.4v0.1c5.2,0,10.7-2.6,14.3-8.4l-0.1-0.1v0.1h0.3l0.1,7.2
		h15.3v-73.9h-15.9v24h-0.1v0.1l0.1-0.1c-2.9-4.6-8.3-6.4-13.1-6.4c-5.1,0-9.6,1.7-12.9,4.7c-3.2,3-5.1,7.2-5.1,12.2v23.7
		c0,4.9,1.4,9.2,4.3,12.1c2.8,3,7.1,4.7,12.7,4.7v-0.3c-5.6,0-9.7-1.7-12.5-4.6c-2.8-2.9-4.2-7.1-4.2-11.9V246
		c0-9.8,7.6-16.6,17.7-16.6c4.7,0,10.1,1.7,12.8,6.2l0,0.1h0.4v-24H423v73.4h-14.8l-0.1-7.2h-0.6l0,0.1c-3.5,5.7-9,8.3-14.1,8.3
		L393.4,286.4 M364.2,286.3v0.1c3.3,0,6.5-0.6,9.6-1.7l0.1,0v-12.3l-0.2,0c-1.5,0.2-2.8,0.4-3.9,0.4c-1.8,0-2.9-0.5-3.5-1.2
		c-0.6-0.7-0.8-1.8-0.8-3v-57.3h-16v61.9c0,4.2,1.4,7.5,3.9,9.8c2.5,2.2,6.2,3.4,10.8,3.4v-0.3c-4.5,0-8.1-1.2-10.6-3.3
		c-2.5-2.2-3.8-5.4-3.8-9.5v-61.6h15.4v57c0,1.3,0.2,2.4,0.9,3.2c0.7,0.8,1.9,1.3,3.7,1.3c1.1,0,2.4-0.2,3.9-0.4l0-0.1h-0.1v12.1
		h0.1l0-0.1c-3,1-6.2,1.6-9.5,1.6L364.2,286.3 M312.4,285.3v0.1h15.8v-32.9c0-4,1.7-6.4,3.9-7.7c2.2-1.3,5-1.7,7-1.7
		c1.1,0,4.3,0.2,7,0.6l0.2,0v-13.5l-0.1,0c-1.5-0.4-3.8-0.5-5.1-0.5c-6.3,0-10.5,3.6-13.4,9.3l0.1,0.1V239h-0.1v0.1h0.1v-8.7h-15.6
		v55h0.1V285.3h0.1v-54.6h15.1v8.6h0.3l0-0.1c2.9-5.7,6.9-9.1,13.1-9.1c1.2,0,3.5,0.1,5,0.5l0-0.1H346v13.2h0.1l0-0.1
		c-2.7-0.4-5.9-0.6-7-0.6c-2.1,0-4.8,0.3-7.1,1.7c-2.3,1.4-4.1,3.8-4.1,7.9v32.6h-15.5V285.3h0.1H312.4"/>
	<path id="XMLID_27_" class="st2" d="M91.4,246.9v-22.3h9c6.2,0,9.3,4.5,9.3,10.8c0,7-3.5,11.5-10.1,11.5H91.4 M75.9,285.3h15.8
		v-25.9h10.9c15.5,0,22.4-11.1,22.4-24.7c0-12.9-7-23-21.8-23H75.9V285.3z"/>
	<path id="XMLID_30_" class="st3" d="M91.4,246.9h0.1v-22.2h8.9c3.1,0,5.3,1.1,6.9,3c1.5,1.9,2.3,4.6,2.3,7.7c0,3.5-0.9,6.3-2.6,8.3
		c-1.7,2-4.2,3-7.4,3h-8.2L91.4,246.9h0.1H91.4v0.1h8.2c3.3,0,5.9-1.1,7.7-3.1c1.7-2,2.6-4.9,2.6-8.5c0-3.2-0.8-5.9-2.4-7.9
		c-1.6-2-4-3.1-7.1-3.1h-9.2V247h0.1V246.9 M75.9,285.3v0.1h16v-25.9h10.8c7.8,0,13.4-2.8,17.1-7.3c3.7-4.5,5.4-10.7,5.4-17.5
		c0-6.5-1.7-12.3-5.4-16.5c-3.6-4.2-9.1-6.7-16.6-6.7H75.7v73.9h0.1V285.3H76v-73.5h27.2c7.4,0,12.8,2.5,16.4,6.6
		c3.6,4.1,5.3,9.8,5.3,16.3c0,6.8-1.7,12.9-5.4,17.4c-3.6,4.4-9.2,7.2-16.9,7.2H91.6v25.9H75.9V285.3H76H75.9"/>
	<path id="XMLID_31_" class="st2" d="M154.4,286.5c13,0,24.3-7.5,24.3-21.9V259l-14.6-0.2v4.8c0,5.9-4.1,9.4-9.8,9.4
		c-6.5,0-10.2-3.6-10.2-11.1v-27.5c0-6.6,3.5-10.6,10.1-10.6c5.9,0,9.9,3.6,9.9,9.6l-0.1,4.6h14.6v-5.8c0-14.4-11.5-21.8-24.4-21.8
		c-14,0-26.2,8.2-26.2,23.8v28.3C128.1,279.4,140.4,286.5,154.4,286.5"/>
	<path id="XMLID_32_" class="st3" d="M154.4,286.5v0.1c6.5,0,12.6-1.9,17.1-5.6c4.5-3.7,7.3-9.2,7.3-16.4v-5.7l-14.9-0.2v4.9
		c0,2.9-1,5.2-2.7,6.8c-1.7,1.6-4.1,2.5-6.9,2.5c-3.2,0-5.7-0.9-7.4-2.7c-1.7-1.8-2.6-4.5-2.6-8.2v-27.5c0-3.3,0.9-5.9,2.5-7.7
		c1.7-1.8,4.1-2.8,7.4-2.8c2.9,0,5.4,0.9,7.1,2.5c1.7,1.6,2.7,4,2.7,6.9h0.1H164l0,4.7h14.9v-5.9c0-7.2-2.9-12.7-7.4-16.4
		c-4.5-3.7-10.6-5.5-17.1-5.5c-7,0-13.6,2.1-18.4,6.1c-4.8,4-7.9,10-7.9,17.8v28.3c0,8.5,3.1,14.6,7.9,18.5
		c4.9,3.9,11.4,5.7,18.5,5.7v-0.3c-7,0-13.5-1.8-18.3-5.7c-4.8-3.9-7.8-9.8-7.8-18.3v-28.3c0-7.8,3-13.7,7.8-17.6
		c4.8-4,11.3-6,18.2-6c6.4,0,12.5,1.8,16.9,5.5c4.4,3.6,7.3,9,7.3,16.2v5.6h-14.3l0-4.4c0-3-1-5.5-2.8-7.1c-1.8-1.7-4.3-2.6-7.3-2.6
		c-3.3,0-5.9,1-7.6,2.9c-1.7,1.9-2.6,4.6-2.6,7.9V262c0,3.7,0.9,6.5,2.7,8.4c1.8,1.9,4.3,2.8,7.6,2.8c2.9,0,5.4-0.9,7.1-2.5
		c1.8-1.6,2.8-4,2.8-7V259l14.3,0.2v5.5c0,7.1-2.8,12.6-7.2,16.2c-4.4,3.7-10.5,5.5-16.9,5.5L154.4,286.5"/>
	<polyline id="XMLID_33_" class="st2" points="200.2,285.5 214.7,285.5 225.7,236.7 226.1,236.7 235.3,285.5 250.2,285.5 
		265.6,211.6 251.1,211.6 242.3,257.9 242.2,257.9 233.3,211.6 218.8,211.6 209.5,257.9 209.2,257.9 200.3,211.6 184.8,211.6 
		200.2,285.5 	"/>
	<polyline id="XMLID_34_" class="st3" points="200.2,285.5 200.2,285.6 214.9,285.6 225.9,236.9 226,236.9 235.2,285.6 250.3,285.6 
		265.7,211.5 251,211.5 242.1,257.9 242.3,257.9 242.3,257.8 242.2,257.8 242.2,257.9 242.3,257.9 233.4,211.5 218.7,211.5 
		209.4,257.8 209.3,257.8 200.4,211.5 184.6,211.5 200.1,285.6 200.2,285.6 200.2,285.5 200.3,285.5 184.9,211.8 200.2,211.8 
		209.1,258.1 209.6,258.1 218.9,211.8 233.2,211.8 242.1,258.1 242.4,258.1 251.2,211.8 265.4,211.8 250.1,285.4 235.4,285.4 
		226.3,236.6 225.6,236.6 214.6,285.4 200.2,285.4 200.2,285.5 200.3,285.5 200.2,285.5 	"/>
	<path id="XMLID_37_" class="st2" d="M285,275.1c-5.4,0-7.7-3.4-7.7-8.3v-17.4c0-4.8,2.2-8.7,7.5-8.7c4.9,0,7.5,3.7,7.5,8.5v17.5
		C292.4,271.2,290.5,275.1,285,275.1 M284.8,286.5c11.8,0,23.3-5.9,23.3-20.6v-16c0-14.8-11.4-20.7-23.4-20.7
		c-12.1,0-23.2,6.8-23.2,21.1v15.8C261.5,281.1,272.7,286.5,284.8,286.5"/>
	<path id="XMLID_40_" class="st3" d="M285,275.1v-0.1c-2.7,0-4.6-0.8-5.8-2.3c-1.2-1.4-1.8-3.5-1.8-5.9v-17.4c0-2.4,0.5-4.5,1.7-6
		c1.2-1.5,3-2.5,5.6-2.5c2.4,0,4.3,0.9,5.5,2.4c1.2,1.5,1.9,3.6,1.9,5.9v17.5c0,2.2-0.5,4.3-1.6,5.8c-1.1,1.5-2.9,2.4-5.6,2.4v0.3
		c2.7,0,4.6-1,5.8-2.5c1.2-1.6,1.6-3.7,1.6-6v-17.5c0-2.4-0.7-4.6-2-6.1c-1.3-1.6-3.2-2.5-5.7-2.5c-2.7,0-4.6,1-5.9,2.6
		c-1.2,1.6-1.8,3.8-1.8,6.2v17.4c0,2.4,0.6,4.5,1.9,6c1.3,1.5,3.3,2.4,6,2.4V275.1 M284.8,286.5v0.1c5.9,0,11.8-1.5,16.2-4.8
		c4.4-3.3,7.3-8.5,7.3-15.9v-16c0-7.4-2.9-12.6-7.2-16c-4.4-3.3-10.3-4.8-16.3-4.8c-6.1,0-11.9,1.7-16.2,5.2
		c-4.3,3.5-7.1,8.8-7.1,16v15.8c0,7.5,2.8,12.6,7.2,15.9c4.4,3.2,10.2,4.6,16.3,4.6v-0.3c-6,0-11.8-1.4-16.1-4.6
		c-4.3-3.2-7-8.2-7-15.6v-15.8c0-7.1,2.8-12.3,7-15.8c4.3-3.5,10-5.2,16.1-5.2c6,0,11.8,1.5,16.1,4.8c4.3,3.3,7.1,8.4,7.1,15.8v16
		c0,7.3-2.9,12.4-7.2,15.7c-4.3,3.3-10.1,4.8-16,4.8L284.8,286.5L284.8,286.5z"/>
</g>
</svg>
