<?xml version="1.0" encoding="utf-8"?>
<!-- Generator: Adobe Illustrator 18.1.1, SVG Export Plug-In . SVG Version: 6.00 Build 0)  -->
<svg version="1.1" id="XMLID_7_" xmlns="http://www.w3.org/2000/svg" xmlns:xlink="http://www.w3.org/1999/xlink" x="0px" y="0px"
	 viewBox="0 0 192.1075 60" enable-background="new 0 0 192.1075 60" xml:space="preserve">
<g id="site-nav">
	<line id="Do_not_delete_1_" fill="none" x1="3.6406" y1="0.0001" x2="3.6406" y2="60.0001"/>
	<g id="Guides_2_">
	</g>
	<g id="XMLID_8_">
		<g id="Guides_1_">
		</g>
		<g id="Center_guides_1_">
		</g>
		<g id="xovain_logo_1_" display="none">
			<g id="XO_Vain_main_2_" display="inline">
				<g>
					<path fill="#111011" d="M81.3024,36.0645c-0.768,0.7679-1.5096,1.2906-2.3623,1.8951c-1.8951,1.5096-3.8982,2.6893-6.424,3.101
						c-1.5914,0.3007-2.993-0.1635-4.1172-1.5096c-0.4672-0.6307-0.9344-1.2089-1.2089-1.8951
						c-0.3007-0.6307-0.4672-1.2089-0.4672-1.9214c0-0.4672-0.3007-0.9344-0.1635-1.4016c0.4672-1.9768,0.9344-3.8982,1.9214-5.6823
						c1.1242-2.0586,2.5258-3.8719,4.2019-5.4371c0.1635-0.1635,0.4117-0.3008,0.6307-0.4117
						c-0.1372-0.1372-0.1372-0.1372-0.1635-0.1372c1.0424-0.8789,2.3623-1.1242,3.6237-1.0424
						c1.2906,0.1372,2.6368-0.1372,4.0355,0.5752c0.3007,0.1372,0.5752-0.4672,0.9344-0.6307
						c0.4672-0.3008,0.5752-0.1635,0.8789,0.1372c0.1635-0.1372,0.4117-0.1635,0.4672-0.3008
						c0.4117-0.1372,0.6307,0.1635,0.9344-0.1372c0.1372-0.1372,0.4117,0,0.5752,0.1372c0.3008,0.1635,0.5752,0.1372,0.9344,0.1372
						c0.768,0.1372,1.5096,0.1372,2.1404,0.4117c0.4117,0.1635,0.5752,0.4672,0.768,0.8789c0.3008,0.9344,0.1635,1.8951,0,2.8266
						c-0.3008,2.0586-0.5752,4.2019-0.5752,6.3977l0.1372,1.7578c0.1372,0.1372,0.1635,0,0.3008,0l0.1372,0.3008
						c1.6761-2.3623,2.1404-5.2151,3.5683-7.8519c0,0,0.1635,0,0.1635-0.1372c0.3008,0,0.1635,0.3008,0.4117,0.3008l0.4672-0.3008
						l0.5752,0.1372c0.1372,0,0.1635-0.3007,0.4672-0.1635c0.8789,0.4672,1.8951,0.4672,2.8558,0.5752
						c0.5752,0.1372,0.9344,0.4117,1.0424,1.0424c0.1635,0.9344,0,1.8951-0.1372,2.8266c-0.1635,1.5914-0.1372,3.1565,0.1635,4.6662
						l0.4672,2.6893c0.3008,1.1242,0.5752,2.225,0.8789,3.2675c0.1372,0.3007,0.1635,0.6307,0.1635,0.8789
						c0.6307,1.1242,1.0424,2.1404,1.2906,3.4047c-0.4672,0.3007-0.6307,0.7679-0.9344,1.1242
						c-0.3007,0.4672-0.7679,0.5752-1.2906,0.4117c-0.9344-0.4672-1.7578-1.0424-2.3886-1.8951
						c-1.1242-1.5096-1.7578-3.101-2.6893-4.6662l-0.768-1.0424c-0.6307,0.3007-1.2089,0.4672-1.6761,0.9344
						c-0.3008,0.3008-0.6307,0.4672-0.9344,0.5752c-0.5752,0.1372-1.0424,0.4117-1.4016,0.6307
						c-0.4672,0.3007-0.9344,0.5752-1.5096,0.4672c-0.4672,0-0.8789,0.1372-1.2906,0c-1.2089-0.1635-2.0586-1.0424-2.6368-2.0586
						c-0.4117-0.7679-0.8789-1.4016-1.0424-2.225C82.0966,36.8588,81.6323,36.4763,81.3024,36.0645L81.3024,36.0645z
						 M74.7966,34.5549c1.7578-2.1404,4.5027-7.6037,4.3391-8.6491c-0.1372,0-0.1635,0.1372-0.4117,0.1372
						c-0.8789-0.1372-1.6761,0.1372-2.225,0.8789c-1.4016,1.7578-2.3886,3.6237-3.1011,5.7933
						c-0.3008,0.8789-0.1372,1.6761-0.1372,2.6368C73.9995,34.7476,74.3294,34.2804,74.7966,34.5549z"/>
					<path fill="#ED2B6D" d="M36.2759,20.5798c5.5188-0.3008,10.6259,4.5844,10.6259,10.5967
						c0,5.7933-4.9699,10.6259-10.6259,10.6259S25.65,36.8325,25.65,31.1239C25.5974,25.2196,30.7863,20.279,36.2759,20.5798z
						 M36.2759,26.922c-2.3623,0-4.2019,1.7578-4.3391,4.1172c0,2.3623,1.8951,4.3391,4.2019,4.3391
						c2.3068,0,4.2019-1.8951,4.2019-4.2019C40.4778,28.7879,38.6382,26.922,36.2759,26.922z"/>
					<path fill="#111011" d="M56.6751,34.0322c0.6307-1.1242,0.9344-2.5258,1.2089-3.8719l1.1242-5.1334
						c0.4117-1.6761,0.5752-3.2675,1.0424-4.9699c0.1635-0.8789,0.4117-1.6761,0.8789-2.3886
						c-0.1372-0.3008,0.1372-1.2906,0.3008-1.9214c0.3007-0.1372,0.3007,0.1635,0.3007,0.1635
						c0.4672,0.1372,0.5752-0.1635,0.6307-0.3008c1.4016,0.4672,2.8266,0.3008,4.2019,0.1372
						c0.1635,0.1372,0.4117,0.1635,0.6307,0.4117c0,0.3008,0.1372,0.5752,0.1635,0.768c-0.1635,1.5096-0.4672,2.993-0.6307,4.3654
						c-0.3008,2.1404-0.5752,4.3654-0.9344,6.5612c-0.3008,1.5096-0.6307,2.993-0.8789,4.5844
						c-0.1635,1.6761-0.768,3.1565-1.2906,4.6662c-0.4117,1.0424-0.9344,1.8951-1.9214,2.3886
						c-0.5752,0.3007-1.0424,0.7679-1.4016,1.2906c-0.3007-0.3008-0.4117,0.1635-0.6307,0.1635c0,0-0.1372-0.1372-0.1635-0.1372
						c-0.4672,0.8789-1.2906,1.0424-1.6761,1.7578c-1.7578-0.4672-3.101-1.2906-4.2019-2.6893
						c-0.5752-0.7679-1.2089-1.4016-1.6761-2.225c-0.768-1.2906-1.2906-2.6368-1.7578-4.1172
						c-1.0424-3.4047-1.2906-6.7277-1.1242-10.296c0-0.6307,0.1373-1.2906,0.4117-1.8951c0.4117-0.8789,1.1242-1.2906,1.9768-1.5914
						c0.8789-0.3008,2.225,0.3008,2.3623,1.5096l0.3008,3.7347c0.1635,1.6761,0.3007,3.4602,0.8789,5.1334
						c0.3008,0.8789,0.768,1.6761,1.1242,2.3886C55.8253,33.2088,55.9889,33.8687,56.6751,34.0322L56.6751,34.0322z"/>
					<path fill="#ED2B6D" d="M14.5335,26.5658l5.9568-5.9568C22,22.2004,23.4834,23.71,24.993,25.1116l-5.875,5.9276
						c2.1404,2.0586,4.1172,4.1172,5.9568,5.9568l-4.6136,4.6136c-1.8951-1.8951-3.8982-3.8719-5.9568-5.9305L8.495,41.6096
						c-1.5914-1.5914-3.101-3.1011-4.5027-4.5844c1.9214-1.8951,3.8719-3.8982,5.9568-6.0123
						c-2.1433-1.9768-4.1172-4.0909-6.0678-6.0123l4.6136-4.5844C10.4689,22.4749,12.5304,24.5072,14.5335,26.5658z"/>
					<path fill="#111011" d="M107.1094,37.326l-0.4672,0.4672c-0.4117,0.3008-0.768,0.6307-1.2906,0.4117
						c-0.1635-0.1372-0.5752,0.1372-0.8789,0c-1.6761-2.8558-1.7578-2.6893-1.6761-3.8719
						c-0.4117-0.5752-0.4672-1.2089-0.6307-1.7578c-0.3008-1.2906-0.5752-2.6893-0.4672-4.0355
						c0.1372-1.5914,0.1635-3.1565,0.1635-4.7509c0-0.3008-0.1373-0.5752,0.1635-0.768c0.3008,0,0.5752,0.1372,0.768-0.1635
						c0.1635,0.1372,0.3008,0.1372,0.4672,0.1372l0.4117-0.3008c1.5097,0.1372,2.8266,0.5752,4.0355,1.5096
						c0.4117,0.3008,0.4672,0.5752,0.5752,0.9344c0.1635,0.768,0.1635,1.5914,0.1635,2.225c0,0.3007,0.1635,0.1635,0.3007,0.3007
						v0.4672c0.3008,0,0.4672-0.1635,0.6307-0.4117l1.0424-1.0424c0.6307-0.768,1.5914-1.0424,2.3886-1.2089
						c1.1242,0.1635,2.0586,0.5752,3.1011,0.8789c0.768,0.1635,1.5096,0.1635,2.1404,0.7679
						c0.9344,0.7679,1.1242,1.7578,1.2906,2.8266c0.1635,1.1242,0.3007,2.3623,0.7679,3.4047
						c0.6307,1.8951,2.0586,3.2675,3.6237,4.3654c1.4016,0.9344,2.8266,1.7578,4.3654,2.3623
						c0.3008,0.1372,0.4672,0.3008,0.6307,0.4672c0.3008,0.3008,0.1635,0.6307-0.1635,0.8789
						c-0.9344,0.4672-1.7578,0.9344-2.8266,1.0424c-1.0424,0-2.0586,0.4117-3.1011-0.1372h-0.1372
						c-1.2906,0.1635-2.3623-0.6307-3.4047-1.2906c-2.6893-1.7578-4.6662-4.2019-5.9568-7.192l-0.1635-0.3008
						c-0.4672,0.9344-1.0424,1.6761-1.6761,2.3886c-0.4672,0.5752-1.0424,1.1242-1.9768,1.0424
						c-0.4117,0-0.768,0.1635-1.1242,0.4672C107.8219,37.326,107.4656,37.5187,107.1094,37.326L107.1094,37.326z"/>
					<path fill="#111011" d="M94.0394,18.9329c-0.4672-1.2906,0-2.5258,0.1372-3.6237c0.5752-0.4117,0.8789-0.9344,1.0424-1.5914
						c0.1372-0.4672,0.4117-0.9344,0.8789-1.2906c0.3008,0.1372,0.5752,0,0.768-0.1372c0.1635,0,0.1635,0.1635,0.4672,0.1635
						c0.6307-0.4672,1.2089-0.4672,2.5258-0.1635c0.1372,0.8789,0.8789,1.4016,1.1242,2.3623c0,0.4672-0.3008,1.0424-0.4117,1.5096
						c-0.1372,0.6307-0.1635,1.2906-0.3008,1.8951c-0.1635,1.2089-0.768,2.1404-1.7578,2.8266l-0.4117,0.3008
						c-0.5752,0.5752-1.2089,0.4672-1.8951,0.1635c-0.4117-0.1635-0.768-0.4672-1.1242-0.768
						c-0.3008-0.1635-0.4672-0.5752-0.4672-0.9344C94.3431,19.4818,94.1767,19.0701,94.0394,18.9329L94.0394,18.9329z"/>
				</g>
			</g>
		</g>
		<g id="readwrite_logo_1_">
			<g id="XO_Vain_main_1_">
				<g>
					<polygon fill="#CB3733" points="165.9962,22.4736 168.4922,22.4736 168.4922,27.6974 165.9962,27.6974 165.9962,39.7903 
						168.108,39.7903 168.108,44.9583 160.8311,44.9583 160.8311,44.9583 160.8311,27.6974 158.1884,27.6974 158.1884,22.4736 
						160.8311,22.4736 160.8311,15.2232 165.9962,15.2232 					"/>
					<path fill="#CB3733" d="M150.674,27.6974h-1.6425v-5.2237h6.8692v17.3167h2.144v5.2237h-9.5089v-5.2237h2.1441V27.6974H150.674
						z M150.674,20.3882v-5.1651h5.2237v5.1651H150.674z M6.0254,27.6974H3.8814v-5.2237h7.3678v2.3787
						c1.3785-1.2612,4.3438-2.6427,7.9837-2.6427v5.3411c-6.2826,0.1466-7.9837,3.2293-7.9837,6.1359v6.1066h2.0854v5.2237H3.8814
						v-5.2237h2.1441V27.6974z M68.2234,27.6974v-5.2237h-6.9865v1.5839c-1.8185-1.2025-3.9039-1.8185-6.1653-1.8185
						c-3.1999,0-5.9306,1.1439-8.1304,3.4053s-3.4053,4.9598-3.4053,8.189s1.1439,5.9306,3.4053,8.1304
						c2.2614,2.2614,4.9598,3.4053,8.1304,3.4053c2.32,0,4.3438-0.5573,6.1653-1.8185v1.4372h6.9865v-5.2238h-1.6425V27.7267h1.6425
						L68.2234,27.6974L68.2234,27.6974z M55.453,40.4062c-3.7279,0-6.6639-3.024-6.6639-6.6639c0-3.7279,3.024-6.6639,6.6639-6.6639
						c3.7279,0,6.5465,3.024,6.5465,6.6639C61.9995,37.3823,59.0929,40.4062,55.453,40.4062z M92.0279,39.7903V12.7271h-7.4851
						v5.2237h2.1441v6.2826c-1.8771-1.2612-3.9625-1.9387-6.4292-1.9387c-3.1999,0-5.9306,1.1439-8.1304,3.4053
						c-2.2027,2.2614-3.4053,4.9598-3.4053,8.1304c0,3.1706,1.1439,5.9306,3.4053,8.1304c2.2614,2.2614,4.9598,3.4053,8.1304,3.4053
						c2.3787,0,4.5198-0.6159,6.4292-1.9387v1.6425h7.4851v-5.2237h-2.1441V39.7903z M80.6096,40.4062
						c-3.7279,0-6.6639-3.024-6.6639-6.6639c0-3.7279,3.0239-6.6639,6.6639-6.6639c3.6399,0,6.5465,3.024,6.5465,6.6639
						C87.1562,37.3823,84.2789,40.4062,80.6096,40.4062z M147.5327,27.6974v-5.2237c-3.6399,0-6.5465,1.1439-7.9837,2.3787v-2.3787
						h-17.258v5.2237h2.1441l-6.2239,10.8317V22.5323h-6.6639l-9.4503,16.0555V27.6974h2.1441v-5.2237h-9.4503v5.2237h2.1441v17.258
						h7.4265l8.6877-14.6769v14.6769h7.3091l10.1278-17.258h3.8452v12.0929h-2.1441v5.2237h9.4503v-5.2237h-2.1441v-6.1066
						C139.549,30.78,141.1915,27.8147,147.5327,27.6974L147.5327,27.6974z M41.7762,35.3878
						c0.0587-0.4986,0.1173-0.9972,0.1173-1.5839c0-6.3706-5.0477-11.5063-11.2717-11.5063S19.3502,27.4627,19.3502,33.804
						s5.0478,11.5063,11.2717,11.5063c4.8425,0,9.0103-3.1413,10.5677-7.4851h-5.3997c-1.2025,1.7012-3.0826,2.76-5.2237,2.76
						c-3.0826,0-5.605-2.2027-6.2825-5.2237C24.2806,35.3878,41.7762,35.3878,41.7762,35.3878z M30.5632,26.9935
						c2.7013,0,5.0478,1.7598,5.9893,4.2265H24.6062C25.5448,28.7533,27.8619,26.9935,30.5632,26.9935z M191.6808,35.3878
						c0.0587-0.4986,0.1173-0.9972,0.1173-1.5839c0-6.3706-5.0478-11.5063-11.2717-11.5063
						c-6.2239,0-11.2717,5.1651-11.2717,11.5063s5.0478,11.5063,11.2717,11.5063c4.8425,0,9.0103-3.1413,10.5677-7.4851h-5.3997
						c-1.2025,1.7012-3.0826,2.76-5.2237,2.76c-3.0826,0-5.605-2.2027-6.2825-5.2237h17.4956v0.0264H191.6808z M180.4678,26.9935
						c2.7013,0,5.0478,1.7598,5.9892,4.2265h-11.9462C175.4171,28.7533,177.7665,26.9935,180.4678,26.9935z"/>
				</g>
			</g>
		</g>
		<g id="bio_logo_1_" display="none">
			<g display="inline">
				<path fill="#020202" d="M11.0266,10.6435v13.9376c0,0,0.0882,0,0.0882,0.0882l0.2646-0.3528
					c0.8821-0.8821,1.8525-1.7642,3.1168-2.3523c1.382-0.6763,2.8522-0.7645,4.3518-0.6763
					c1.235,0.0882,2.3523,0.3528,3.4991,0.8821c2.1171,0.9703,3.4991,2.617,4.3518,4.8811c0.6763,1.382,0.8527,2.764,0.9703,4.1166
					c0.0882,1.382,0.0882,2.8522,0.0882,4.1166c-0.2646,2.47-0.8527,4.8811-2.4699,6.8806
					c-1.4996,1.8525-3.4991,3.0286-5.8514,3.4991c-0.3528,0.0882-0.6763,0.0882-0.9703,0.0882h-1.9995
					c-0.3528-0.0882-0.6763-0.0882-0.9703-0.0882c-2.3523-0.4117-4.2636-1.5878-5.381-3.7637l-0.0882-0.2646
					c-0.147,0.0882-0.147,0.2646-0.147,0.2646c-0.3529,0.8527-0.7645,1.8525-1.1174,2.8522
					c-0.147,0.0882-0.147,0.2646-0.3528,0.2646H3.8814V17.0242c0-0.2646,0-0.6763-0.147-0.8821
					c-0.147-0.7645-0.6175-1.235-1.382-1.235H0v-4.3224C0.0294,10.5847,11.0266,10.6435,11.0266,10.6435z M10.8795,34.1374
					c0.147,0.4999,0.147,1.4996,0.2646,2.3523c0.0882,0.9703,0.4999,1.9995,0.9703,3.0286
					c1.4996,2.4699,5.0869,2.4699,6.6159,0.2646c0.7645-0.9703,1.1174-2.3523,1.382-3.5873
					c0.2646-1.5878,0.2646-3.2345,0.0882-4.8811c-0.0882-1.235-0.3528-2.3523-0.9703-3.3815
					c-1.382-2.4699-3.8519-2.4699-5.381-1.4996c-0.9703,0.6763-1.4996,1.4996-1.9995,2.4699
					C11.0266,30.4031,10.8795,32.0497,10.8795,34.1374z M55.7503,45.6638l-1.5878-0.2646c-2.617-0.4117-4.9987-1.4996-6.8806-3.4991
					c-1.382-1.4996-2.3523-3.2345-2.764-5.2339c-0.6175-2.764-0.4999-5.4986,0.4999-8.1155c1.382-3.5873,3.999-5.8514,7.6157-6.8806
					c1.8525-0.4999,3.7637-0.6763,5.6456-0.4999c1.9995,0.0882,3.8519,0.6763,5.6456,1.5878
					c2.8522,1.5878,4.6165,3.999,5.381,7.0864c0.2646,0.9703,0.4117,1.9995,0.4117,3.0286c0.147,1.9995-0.2646,3.999-0.9703,5.7632
					c-1.382,3.1168-3.7637,5.2339-6.8806,6.2631c-1.1174,0.4117-2.2641,0.6175-3.3815,0.6175c-0.147,0-0.147,0-0.2646,0.0882
					C57.3381,45.6638,56.6324,45.6638,55.7503,45.6638z M62.131,33.3729l-0.147-2.2641c-0.147-1.382-0.4117-2.617-0.9703-3.7637
					c-1.235-2.2641-3.3815-2.8522-5.381-2.1171c-1.382,0.3528-2.1171,1.382-2.764,2.617c-0.6175,1.235-0.8527,2.617-0.9703,3.999
					c-0.147,1.4996-0.147,3.1168,0.2646,4.7341c0.2646,1.235,0.6175,2.3523,1.382,3.4991c1.4996,2.1171,4.5282,2.4699,6.3513,0.7645
					c0.7645-0.6175,1.235-1.4996,1.4996-2.3523C61.8663,36.7544,62.131,35.1666,62.131,33.3729z M39.872,11.0846v7.0864h-7.0864
					v-7.0864H39.872z M39.872,21.8171v17.1132c0,0.2646,0,0.4999,0.0882,0.7645c0.0882,0.8527,0.6175,1.235,1.4996,1.235h2.1171
					v3.8519H28.8455v-3.8519h2.2641c0.9703,0,1.4996-0.4999,1.4996-1.382l0.0882-0.9703V27.7861c0-0.2646,0-0.6763-0.0882-0.7645
					c-0.0882-0.8821-0.6175-1.235-1.4996-1.235h-2.1171v-3.9696C28.9925,21.8171,39.872,21.8171,39.872,21.8171z"/>
				<path fill="#D22729" d="M70.8346,41.018c0-2.3523,1.8525-4.1166,4.1166-4.1166c2.1171,0,4.1166,1.7348,4.1166,4.1166
					c0,2.3523-1.9995,4.1166-4.2636,4.1166C72.7165,45.2816,70.8346,43.3997,70.8346,41.018z"/>
			</g>
		</g>
		<g id="lifetime_moms_logo_1_" display="none">
			<g display="inline">
				<path fill="#010101" d="M125.965,29.837c0-0.3847-0.1909-0.4816-0.4816-0.4816H124.62v-3.3626h3.6034
					c1.0572,0,1.6827,0.4816,1.6827,1.345v0.4816c0.5756-0.8634,1.5359-2.0175,3.4595-2.0175c1.4419,0,2.6431,0.7195,3.3625,2.0175
					c0.5756-0.9603,2.0175-2.0175,3.7943-2.0175c2.1144,0,3.7943,1.1541,3.7943,4.4198v3.7473c0,0.3847,0.1909,0.4816,0.4816,0.4816
					h0.8634v3.3626h-3.7003c-1.1541,0-1.6827-0.4816-1.6827-1.6827v-5.2832c0-0.8634-0.0969-1.4419-0.9603-1.4419
					c-1.1541,0-1.9206,0.9603-2.1145,2.2584c-0.0969,0.3847-0.0969,0.8634-0.0969,1.345v4.9014h-3.9382v-7.1128
					c0-0.8634-0.0969-1.4419-0.9603-1.4419c-1.1541,0-1.8266,0.9603-2.1145,2.1145c-0.0969,0.4816-0.0969,0.9603-0.0969,1.4419
					v4.9014h-3.9382L125.965,29.837L125.965,29.837z M152.8185,25.8019c3.7003,0,6.6781,2.4991,6.6781,6.1965
					s-2.9778,6.1965-6.6781,6.1965c-3.7003,0-6.6781-2.4991-6.6781-6.1965C146.3342,28.3011,149.1681,25.8019,152.8185,25.8019z
					 M153.0123,34.8823c1.4419,0,2.6431-1.0572,2.6431-2.8839c0-1.8266-1.1541-2.8839-2.6431-2.8839
					c-1.4419,0-2.6431,1.0572-2.6431,2.8839C150.2254,33.7752,151.5704,34.8823,153.0123,34.8823z M161.705,29.837
					c0-0.3847-0.1909-0.4816-0.4816-0.4816h-0.9603v-3.3626h3.6034c1.0572,0,1.6827,0.4816,1.6827,1.345v0.4816
					c0.5756-0.8634,1.5359-2.0175,3.4595-2.0175c1.4419,0,2.6431,0.7195,3.3626,2.0175c0.5756-0.9603,2.0175-2.0175,3.7942-2.0175
					c2.1145,0,3.7943,1.1541,3.7943,4.4198v3.7473c0,0.3847,0.1909,0.4816,0.4816,0.4816h0.8634v3.3626h-3.7003
					c-1.1541,0-1.6827-0.4816-1.6827-1.6827v-5.2832c0-0.8634-0.097-1.4419-0.9603-1.4419c-1.1541,0-1.9206,0.9603-2.1144,2.2584
					c-0.0969,0.3847-0.0969,0.8634-0.0969,1.345v4.9014h-3.9381v-7.1128c0-0.8634-0.0969-1.4419-0.9603-1.4419
					c-1.1541,0-1.8267,0.9603-2.1145,2.1145c-0.0969,0.4816-0.0969,0.9603-0.0969,1.4419v4.9014h-3.9381L161.705,29.837
					L161.705,29.837z M183.8039,33.4404c0,0,1.6827,1.6827,3.4595,1.6827c0.5756,0,0.9603-0.0969,0.9603-0.5756
					c0-0.9603-5.9557-1.345-5.9557-5.1393c0-2.4991,2.4022-3.7003,4.9014-3.7003c1.9206,0,4.5167,0.5756,4.5167,2.6431v1.4419
					h-3.4595v-0.5756c0-0.3847-0.4816-0.5756-1.0572-0.5756c-0.5756,0-1.0572,0.1909-1.0572,0.5756
					c0,1.1541,5.9557,1.0572,5.9557,4.9954c0,2.4023-2.0175,3.7943-4.9014,3.7943c-3.3626,0-5.2362-2.1145-5.2362-2.1145
					L183.8039,33.4404L183.8039,33.4404z"/>
				<path fill="#E24645" d="M19.7934,13.312c-8.7426,0-15.8525,7.1098-15.8525,15.8525S11.0508,45.017,19.7934,45.017
					s15.8525-7.1098,15.8525-15.8525S28.586,13.312,19.7934,13.312z"/>
				<path fill="#E24645" d="M32.1395,39.9746h0.6725v0.0969h-0.2878v0.7195h-0.0969v-0.7195h-0.1909L32.1395,39.9746z
					 M32.9089,39.9746h0.1909l0.1909,0.6725l0.2878-0.6725h0.1909v0.9133h-0.0969v-0.7195l-0.1909,0.6725h-0.1439l-0.1909-0.6725
					v0.6725h-0.1439L32.9089,39.9746z"/>
				<path fill="#E24645" d="M43.2873,24.5039c0-0.3847-0.1909-0.4816-0.4816-0.4816h-1.0102v-2.4991h2.737
					c1.0572,0,1.5359,0.4816,1.5359,1.5359v14.7953h-2.9778V24.5039L43.2873,24.5039L43.2873,24.5039z M49.243,29.1645
					c0-0.3847-0.1909-0.4816-0.4816-0.4816H47.801v-2.4991h2.8839c1.0572,0,1.5359,0.4816,1.5359,1.5359v10.2316h-2.8839v-8.7867
					C49.3399,29.1645,49.243,29.1645,49.243,29.1645z M49.3399,21.526h2.4991v2.737h-2.4991V21.526z M83.1593,29.1645
					c0-0.3847-0.1909-0.4816-0.4816-0.4816h-0.9603v-2.4991h2.737c1.0572,0,1.5359,0.4816,1.5359,1.5359v10.2316h-2.8839
					C83.1593,37.9571,83.1593,29.1645,83.1593,29.1645z M83.2562,21.526h2.4992v2.737h-2.4992V21.526z M55.4395,28.445h-1.442
					v-2.4022h1.442V25.658c0-3.7943,3.0748-4.4198,4.7546-4.4198c0.5756,0,0.9603,0.0969,0.9603,0.0969v2.6431h-0.5756
					c-0.8634,0-2.2584,0.1909-2.2584,1.9206v0.1909h2.4991v2.4022h-2.4991v9.4151h-2.8839
					C55.4395,37.9071,55.4395,28.445,55.4395,28.445z M67.019,25.8019c3.3626,0,5.2362,2.4991,5.2362,5.6209
					c0,0.3847-0.0969,1.0572-0.0969,1.0572h-8.12c0.1909,2.0175,1.8266,3.2187,3.6034,3.2187c1.9206,0,3.3625-1.345,3.3625-1.345
					l1.1541,2.0175c0,0-1.8266,1.8266-4.7546,1.8266c-3.9382,0-6.2934-2.8839-6.2934-6.1965
					C61.0604,28.445,63.5595,25.8019,67.019,25.8019L67.019,25.8019z M69.2274,30.5095c0-1.4419-1.0572-2.4023-2.2584-2.4023
					c-1.5359,0-2.6431,0.9603-2.8839,2.4023H69.2274z M74.4636,28.445h-1.5359v-2.4022h1.5359v-3.2187h2.8839v3.2187h2.6431v2.4022
					h-2.6431v4.7546c0,1.9206,1.5359,2.2584,2.4023,2.2584h0.4816v2.4991c0,0-0.3847,0.0969-0.9603,0.0969
					c-1.6827,0-4.9014-0.4816-4.9014-4.4198C74.3696,33.7282,74.4636,28.445,74.4636,28.445z M89.3558,29.1645
					c0-0.3847-0.1909-0.4816-0.4816-0.4816h-1.0102v-2.4991h2.737c1.0572,0,1.5359,0.4816,1.5359,1.345v0.8634
					c0.5756-1.1541,1.9206-2.4991,3.7943-2.4991c1.8266,0,2.9778,0.8634,3.4594,2.4022c0.5756-1.345,2.1145-2.4022,4.0351-2.4022
					c2.4992,0,3.7943,1.4419,3.7943,4.5167v7.5415h-2.8839v-7.057c0-1.345-0.1909-2.4022-1.6827-2.4022
					c-1.4419,0-2.4992,1.1541-2.8839,2.737c-0.0969,0.4816-0.1909,0.9603-0.1909,1.5359v5.1393h-2.9309v-7.01
					c0-1.345-0.1909-2.4022-1.5359-2.4022c-1.4419,0-2.4992,1.1541-2.8839,2.737c-0.0969,0.4816-0.1909,0.9603-0.1909,1.4419v5.1393
					h-2.8839v-8.5019L89.3558,29.1645L89.3558,29.1645z M114.8671,25.8019c3.3626,0,5.2362,2.4991,5.2362,5.6209
					c0,0.3847-0.0969,1.0572-0.0969,1.0572h-8.1201c0.1909,2.0175,1.8266,3.2187,3.6034,3.2187c1.9206,0,3.3626-1.345,3.3626-1.345
					l1.1541,2.0175c0,0-1.8266,1.8266-4.7546,1.8266c-3.9382,0-6.2934-2.8839-6.2934-6.1965
					C108.7646,28.445,111.2638,25.8019,114.8671,25.8019L114.8671,25.8019z M116.9816,30.5095c0-1.4419-1.0572-2.4023-2.2584-2.4023
					c-1.5359,0-2.4991,0.9603-2.8839,2.4023H116.9816z"/>
				<path fill="#E24645" d="M121.1605,36.4182l0.1909-0.3847c0.0969-0.0969,0.1909-0.1909,0.3847-0.1909l0.4816-0.0969
					c0,0,0.3847,0,0.4816,0.0969c0.0969,0,0.1909,0.0969,0.3847,0.1909c0.0969,0.0969,0.1909,0.1909,0.1909,0.3847
					c0.0969,0.0969,0.0969,0.3847,0.0969,0.4816c0,0.1909,0,0.3847-0.0969,0.4816l-0.1909,0.3847
					c-0.0969,0.0969-0.1909,0.1909-0.3847,0.1909l-0.4816,0.0969c0,0-0.3847,0-0.4816-0.0969c-0.0969,0-0.1909-0.0969-0.3847-0.1909
					c-0.0969-0.0969-0.1909-0.1909-0.1909-0.3847c-0.0969-0.0969-0.0969-0.3847-0.0969-0.4816
					C121.1605,36.8029,121.1605,36.659,121.1605,36.4182z M121.4953,37.3785c0,0.0969,0.0969,0.1909,0.1909,0.1909l0.1909,0.1909
					l0.3847,0.0969c0.0969,0,0.1909,0,0.3847-0.0969c0.0969,0,0.1909-0.0969,0.1909-0.1909
					c0.0969-0.0969,0.0969-0.1909,0.1909-0.1909l0.0969-0.3847c0-0.0969,0-0.1909-0.0969-0.3847
					c0-0.0969-0.0969-0.1909-0.1909-0.1909l-0.1909-0.1909l-0.3847-0.0969c-0.0969,0-0.1909,0-0.3847,0.0969
					c-0.0969,0-0.1909,0.0969-0.1909,0.1909c-0.0969,0.0969-0.0969,0.1909-0.1909,0.1909l-0.0969,0.3847
					C121.4014,36.9938,121.4953,37.2845,121.4953,37.3785z M122.3617,36.3213c0.0969,0,0.1909,0,0.3847,0.0969
					c0.0969,0,0.0969,0.0969,0.0969,0.3847v0.0969c0,0,0,0.0969-0.0969,0.0969c0,0-0.0969,0-0.0969,0.0969h-0.0969l0.3847,0.5756
					h-0.1909l-0.3847-0.5756h-0.0969v0.5756h-0.1909v-1.298C121.88,36.4652,122.3617,36.3213,122.3617,36.3213L122.3617,36.3213z
					 M122.3617,36.8029h0.1909l0.0969-0.0969v-0.0969h-0.5756v0.3847h0.1909v-0.1439L122.3617,36.8029L122.3617,36.8029z"/>
				<path fill="#FFFFFF" d="M19.6995,40.9819c-5.7648,0-10.3755-5.0453-10.3755-11.048c0-13.741,10.8101-13.741,10.8101-5.9087
					C20.1312,29.1175,15.1828,36.5151,19.6995,40.9819z"/>
				<path fill="#FFFFFF" d="M23.5906,40.791c-1.8266,0-3.2657-1.5359-3.2657-3.3626c0-1.8736,1.4419-3.4096,3.2657-3.4096
					c1.8237,0,3.4595,1.5359,3.4595,3.4096C27.0002,39.2522,25.4143,40.791,23.5906,40.791z"/>
			</g>
		</g>
		<g id="not_impossible_logo_1_" display="none">
			<g display="inline">
				<path fill="#D55335" d="M48.511,26.61h2.1171v2.8257H48.511V26.61z M137.4409,30.9882h-4.0019V45.111h4.0019V30.9882z
					 M72.9899,45.017h2.1171v-5.4133h-2.1171V45.017z M63.3395,45.017h2.07v-5.4133h-2.07V45.017z M53.642,45.017h2.1171v-5.4133
					H53.642V45.017z M48.558,45.017h2.1171v-5.4133H48.558V45.017z M34.9998,39.6037v1.6937c0,2.8728,1.7407,4.0019,4.0019,4.0019
					c1.035,0,1.7878-0.2352,2.5435-0.6116v-1.7878c-0.7527,0.3764-1.3173,0.5175-2.07,0.5175c-1.4114,0-2.4023-0.6116-2.4023-2.3553
					v-1.4114C37.0698,39.6507,34.9998,39.6037,34.9998,39.6037z M18.0042,39.6037c0.7057,3.2492,3.4844,5.7426,7.157,5.7426
					s6.4954-2.4964,7.2511-5.7426H30.201c-0.6116,2.2112-2.4964,3.8608-4.9899,3.8608c-2.4494,0-4.3783-1.5996-4.9899-3.8608
					C20.2183,39.6037,18.0042,39.6037,18.0042,39.6037z M14.1434,45.017h2.1171v-5.4133h-2.1171V45.017z M3.8814,45.017h2.1171
					v-5.4133H3.8814C3.8814,39.6036,3.8814,45.017,3.8814,45.017z M16.2634,37.4395v-1.2232c0-3.3903-1.976-5.6485-5.4133-5.6485
					c-2.4494,0-3.9078,1.2232-4.8487,2.7787v-2.4494h-2.12v6.5895h2.1171V36.969c0-2.6376,1.7878-4.4253,4.2371-4.4253
					c2.4964,0,3.9078,1.6466,3.9078,4.2842v0.7057L16.2634,37.4395z M32.5504,37.4395c-0.2352-3.7667-3.2492-6.8747-7.3452-6.8747
					s-7.1099,3.108-7.3452,6.8747h2.1641c0.1882-2.7787,2.2612-5.0369,5.1781-5.0369c2.8257,0,4.9899,2.2112,5.2251,5.0369
					C30.4333,37.4395,32.5504,37.4395,32.5504,37.4395z M37.1169,32.7319h4.4724V30.85h-4.4724v-4.2871h-2.1171v4.2842h-1.9289
					v1.8819h1.976v4.7076h2.1171L37.1169,32.7319z M50.6751,30.8471H48.558v6.5895h2.1171V30.8471z M75.11,37.4395v-1.1762
					c0-3.4844-1.976-5.6956-5.2722-5.6956c-2.4494,0-3.9549,1.2703-4.9899,2.8257c-0.7527-1.5996-2.2612-2.8257-4.5665-2.8257
					c-2.4023,0-3.6255,1.2703-4.5665,2.6846V30.85h-2.1171v6.5895h2.1171V36.922c0-2.5905,1.6937-4.4724,3.9549-4.4724
					s3.6255,1.5525,3.6255,4.2371v0.7527h2.07v-0.6116c0-2.7787,1.7878-4.3783,3.9078-4.3783c2.3082,0,3.6726,1.5055,3.6726,4.2842
					v0.7057H75.11L75.11,37.4395z M92.0585,38.0982c0-4.7547-3.1551-7.3452-6.4483-7.3452c-2.0701,0-3.4373,0.988-4.4253,2.3082
					v-2.023H77.183v6.4483h4.0019c0.2352-2.023,1.6937-3.2962,3.3903-3.2962c1.8819,0,3.4373,1.5525,3.4373,3.9078v0.047
					c0,2.3553-1.5996,3.9078-3.4373,3.9078c-1.4584,0-2.6846-0.8939-3.2021-2.4023H77.183v9.7445h4.0019v-6.119
					c0.9409,1.1291,2.2612,2.1171,4.4253,2.1171C88.9505,45.3963,92.0585,42.8058,92.0585,38.0982 M104.2024,38.1452
					c0,2.0701-1.3644,3.8608-3.6726,3.8608c-2.2112,0-3.7196-1.8348-3.7196-3.9078v-0.0471c0-2.07,1.3644-3.8608,3.6726-3.8608
					c2.2112,0,3.7196,1.8348,3.7196,3.9078V38.1452z M108.1573,38.0982c0-4.096-3.2492-7.3452-7.6274-7.3452
					c-4.3783-0.047-7.6745,3.2492-7.6745,7.3452v0.047c0,4.049,3.2492,7.2981,7.6274,7.2981
					C104.9111,45.4433,108.1573,42.1471,108.1573,38.0982 M119.7396,40.8298c0-2.6376-2.3082-3.5785-4.2842-4.2371
					c-1.5055-0.5175-2.8728-0.8939-2.8728-1.6937v-0.0471c0-0.5646,0.5175-0.988,1.4584-0.988c1.035,0,2.4023,0.5175,3.8137,1.3173
					l1.5055-2.7787c-1.5055-1.035-3.4844-1.6466-5.2722-1.6466c-2.8728,0-5.1781,1.5996-5.1781,4.4724v0.047
					c0,2.7316,2.2612,3.6726,4.2371,4.2371c1.5525,0.4705,2.9198,0.7527,2.9198,1.6466v0.047c0,0.6116-0.5175,1.035-1.6937,1.035
					c-1.3173,0-2.9198-0.5646-4.4724-1.6937l-1.6937,2.6376c1.8819,1.4584,4.096,2.1171,6.072,2.1171
					C117.3843,45.3963,119.7396,43.9819,119.7396,40.8298 M131.8864,40.8298c0-2.6376-2.3082-3.5785-4.2842-4.2371
					c-1.5055-0.5175-2.8728-0.8939-2.8728-1.6937v-0.0471c0-0.5646,0.5175-0.988,1.4584-0.988c1.035,0,2.4023,0.5175,3.8137,1.3173
					l1.5055-2.7787c-1.5055-1.035-3.4844-1.6466-5.2722-1.6466c-2.8728,0-5.1781,1.5996-5.1781,4.4724v0.047
					c0,2.7316,2.2612,3.6726,4.2371,4.2371c1.5525,0.4705,2.9198,0.7527,2.9198,1.6466v0.047c0,0.6116-0.5175,1.035-1.6937,1.035
					c-1.3173,0-2.9198-0.5646-4.4724-1.6937l-1.6937,2.6376c1.8819,1.4584,4.096,2.1171,6.072,2.1171
					C129.5312,45.3963,131.8864,43.9819,131.8864,40.8298 M133.2978,29.4357h4.2372v-3.5785h-4.2372V29.4357z M150.9521,38.0982
					c0,2.3553-1.5996,3.9078-3.4373,3.9078c-1.8348,0-3.4373-1.5525-3.4373-3.9078v-0.0471c0-2.3553,1.5526-3.9078,3.4373-3.9078
					C149.3996,34.1433,150.9521,35.6958,150.9521,38.0982z M155.001,38.0982c0-4.7547-3.1551-7.3452-6.4483-7.3452
					c-2.07,0-3.4373,0.988-4.4253,2.3082v-7.204h-4.0019V45.111h4.0019v-1.8348c0.9409,1.1291,2.2612,2.1171,4.4253,2.1171
					C151.893,45.3963,155.001,42.8058,155.001,38.0982 M156.2713,45.111h4.0019V25.8572h-4.0019V45.111z M171.4762,36.922h-6.0249
					c0.3293-1.8348,1.4114-3.0139,3.061-3.0139C170.206,33.9551,171.241,35.1783,171.4762,36.922 M175.384,38.3804
					c0-4.0019-2.1641-7.6745-6.8747-7.6745c-4.096,0-6.9688,3.3433-6.9688,7.3452v0.047c0,4.3312,3.155,7.2981,7.3922,7.2981
					c2.5435,0,4.4724-0.988,5.7897-2.6376l-2.3082-2.023c-1.1291,1.035-2.07,1.4584-3.4373,1.4584
					c-1.7878,0-3.061-0.9409-3.4373-2.7787h9.8386C175.337,39.0861,175.384,38.7098,175.384,38.3804"/>
				<path fill="none" d="M48.511,26.61h2.1171v2.8257H48.511V26.61z M137.4409,30.9882h-4.0019V45.111h4.0019V30.9882z
					 M72.9899,45.017h2.1171v-5.4133h-2.1171V45.017z M63.3395,45.017h2.07v-5.4133h-2.07V45.017z M53.642,45.017h2.1171v-5.4133
					H53.642V45.017z M48.558,45.017h2.1171v-5.4133H48.558V45.017z M34.9998,39.6037v1.6937c0,2.8728,1.7407,4.0019,4.0019,4.0019
					c1.035,0,1.7878-0.2352,2.5435-0.6116v-1.7878c-0.7527,0.3764-1.3173,0.5175-2.07,0.5175c-1.4114,0-2.4023-0.6116-2.4023-2.3553
					v-1.4114C37.0698,39.6507,34.9998,39.6037,34.9998,39.6037z M18.0042,39.6037c0.7057,3.2492,3.4844,5.7426,7.157,5.7426
					s6.4954-2.4964,7.2511-5.7426H30.201c-0.6116,2.2112-2.4964,3.8608-4.9899,3.8608c-2.4494,0-4.3783-1.5996-4.9899-3.8608
					C20.2183,39.6037,18.0042,39.6037,18.0042,39.6037z M14.1434,45.017h2.1171v-5.4133h-2.1171V45.017z M3.8814,45.017h2.1171
					v-5.4133H3.8814C3.8814,39.6036,3.8814,45.017,3.8814,45.017z M16.2634,37.4395v-1.2232c0-3.3903-1.976-5.6485-5.4133-5.6485
					c-2.4494,0-3.9078,1.2232-4.8487,2.7787v-2.4494h-2.12v6.5895h2.1171V36.969c0-2.6376,1.7878-4.4253,4.2371-4.4253
					c2.4964,0,3.9078,1.6466,3.9078,4.2842v0.7057L16.2634,37.4395z M32.5504,37.4395c-0.2352-3.7667-3.2492-6.8747-7.3452-6.8747
					s-7.1099,3.108-7.3452,6.8747h2.1641c0.1882-2.7787,2.2612-5.0369,5.1781-5.0369c2.8257,0,4.9899,2.2112,5.2251,5.0369
					C30.4333,37.4395,32.5504,37.4395,32.5504,37.4395z M37.1169,32.7319h4.4724V30.85h-4.4724v-4.2871h-2.1171v4.2842h-1.9289
					v1.8819h1.976v4.7076h2.1171L37.1169,32.7319z M50.6751,30.8471H48.558v6.5895h2.1171V30.8471z M75.11,37.4395v-1.1762
					c0-3.4844-1.976-5.6956-5.2722-5.6956c-2.4494,0-3.9549,1.2703-4.9899,2.8257c-0.7527-1.5996-2.2612-2.8257-4.5665-2.8257
					c-2.4023,0-3.6255,1.2703-4.5665,2.6846V30.85h-2.1171v6.5895h2.1171V36.922c0-2.5905,1.6937-4.4724,3.9549-4.4724
					s3.6255,1.5525,3.6255,4.2371v0.7527h2.07v-0.6116c0-2.7787,1.7878-4.3783,3.9078-4.3783c2.3082,0,3.6726,1.5055,3.6726,4.2842
					v0.7057H75.11L75.11,37.4395z M92.0585,38.0982c0-4.7547-3.1551-7.3452-6.4483-7.3452c-2.0701,0-3.4373,0.988-4.4253,2.3082
					v-2.023H77.183v6.4483h4.0019c0.2352-2.023,1.6937-3.2962,3.3903-3.2962c1.8819,0,3.4373,1.5525,3.4373,3.9078v0.047
					c0,2.3553-1.5996,3.9078-3.4373,3.9078c-1.4584,0-2.6846-0.8939-3.2021-2.4023H77.183v9.7445h4.0019v-6.119
					c0.9409,1.1291,2.2612,2.1171,4.4253,2.1171C88.9505,45.3963,92.0585,42.8058,92.0585,38.0982L92.0585,38.0982z
					 M104.2024,38.1452c0,2.0701-1.3644,3.8608-3.6726,3.8608c-2.2112,0-3.7196-1.8348-3.7196-3.9078v-0.0471
					c0-2.07,1.3644-3.8608,3.6726-3.8608c2.2112,0,3.7196,1.8348,3.7196,3.9078V38.1452z M108.1573,38.0982
					c0-4.096-3.2492-7.3452-7.6274-7.3452c-4.3783-0.047-7.6745,3.2492-7.6745,7.3452v0.047c0,4.049,3.2492,7.2981,7.6274,7.2981
					C104.9111,45.4433,108.1573,42.1471,108.1573,38.0982z M119.7396,40.8298c0-2.6376-2.3082-3.5785-4.2842-4.2371
					c-1.5055-0.5175-2.8728-0.8939-2.8728-1.6937v-0.0471c0-0.5646,0.5175-0.988,1.4584-0.988c1.035,0,2.4023,0.5175,3.8137,1.3173
					l1.5055-2.7787c-1.5055-1.035-3.4844-1.6466-5.2722-1.6466c-2.8728,0-5.1781,1.5996-5.1781,4.4724v0.047
					c0,2.7316,2.2612,3.6726,4.2371,4.2371c1.5525,0.4705,2.9198,0.7527,2.9198,1.6466v0.047c0,0.6116-0.5175,1.035-1.6937,1.035
					c-1.3173,0-2.9198-0.5646-4.4724-1.6937l-1.6937,2.6376c1.8819,1.4584,4.096,2.1171,6.072,2.1171
					C117.3843,45.3963,119.7396,43.9819,119.7396,40.8298L119.7396,40.8298z M131.8864,40.8298
					c0-2.6376-2.3082-3.5785-4.2842-4.2371c-1.5055-0.5175-2.8728-0.8939-2.8728-1.6937v-0.0471c0-0.5646,0.5175-0.988,1.4584-0.988
					c1.035,0,2.4023,0.5175,3.8137,1.3173l1.5055-2.7787c-1.5055-1.035-3.4844-1.6466-5.2722-1.6466
					c-2.8728,0-5.1781,1.5996-5.1781,4.4724v0.047c0,2.7316,2.2612,3.6726,4.2371,4.2371c1.5525,0.4705,2.9198,0.7527,2.9198,1.6466
					v0.047c0,0.6116-0.5175,1.035-1.6937,1.035c-1.3173,0-2.9198-0.5646-4.4724-1.6937l-1.6937,2.6376
					c1.8819,1.4584,4.096,2.1171,6.072,2.1171C129.5312,45.3963,131.8864,43.9819,131.8864,40.8298z M133.2978,29.4357h4.2372
					v-3.5785h-4.2372V29.4357z M150.9521,38.0982c0,2.3553-1.5996,3.9078-3.4373,3.9078c-1.8378,0-3.4373-1.5525-3.4373-3.9078
					v-0.0471c0-2.3553,1.5526-3.9078,3.4373-3.9078C149.3996,34.1433,150.9521,35.6958,150.9521,38.0982z M155.001,38.0982
					c0-4.7547-3.1551-7.3452-6.4483-7.3452c-2.07,0-3.4373,0.988-4.4253,2.3082v-7.204h-4.0019V45.111h4.0019v-1.8348
					c0.9409,1.1291,2.2612,2.1171,4.4253,2.1171C151.893,45.3963,155.001,42.8058,155.001,38.0982z M156.2713,45.111h4.0019V25.8572
					h-4.0019V45.111z M171.4762,36.922h-6.0249c0.3293-1.8348,1.4114-3.0139,3.061-3.0139
					C170.206,33.9551,171.241,35.1783,171.4762,36.922z M175.384,38.3804c0-4.0019-2.1641-7.6745-6.8747-7.6745
					c-4.096,0-6.9688,3.3433-6.9688,7.3452v0.047c0,4.3312,3.155,7.2981,7.3922,7.2981c2.5435,0,4.4724-0.988,5.7897-2.6376
					l-2.3082-2.023c-1.1291,1.035-2.07,1.4584-3.4373,1.4584c-1.7878,0-3.061-0.9409-3.4373-2.7787h9.8386
					C175.337,39.0861,175.384,38.7098,175.384,38.3804L175.384,38.3804z"/>
				<g>
					<path fill="#919395" d="M167.3361,25.9043v0.7998h-2.7787v-0.7998h0.8939v-6.4483h-0.8939v-0.7998h2.023l3.3903,5.8838v-5.084
						h-0.8468v-0.7998h2.7787v0.7998h-0.8939v7.4392h-0.7998l-3.7226-6.3572v5.4133L167.3361,25.9043z M176.7983,18.468
						c0.9409,0,1.7407,0.2823,2.4494,0.7527c1.0821,0.7998,1.6937,2.023,1.6937,3.4373c0,2.3553-1.7878,4.1901-4.1901,4.1901
						s-4.1901-1.8348-4.1901-4.1901C172.6553,20.3028,174.3961,18.468,176.7983,18.468L176.7983,18.468z M176.7983,25.9043
						c1.6937,0,3.061-1.3173,3.061-3.2492s-1.3644-3.2492-3.061-3.2492c-1.6966,0-3.061,1.3173-3.061,3.2492
						C173.7374,24.634,175.1017,25.9043,176.7983,25.9043z M184.0935,26.8452l-2.2112-7.3922h-0.7057v-0.7998h2.5905v0.7998h-0.8468
						l1.5996,5.3663l1.5996-5.3663h-0.9409v-0.7998h2.7316v0.7998h-0.9409l1.6466,5.3663l1.5996-5.3663h-0.8468v-0.7998h2.4964
						v0.7998h-0.7057l-2.2112,7.3922h-0.7057l-1.6937-5.7897l-1.7407,5.7897H184.0935L184.0935,26.8452z"/>
				</g>
			</g>
		</g>
		<g id="fashionista_logo_1_" display="none">
			<g display="inline">
				<path fill="#333333" d="M35.5981,44.0672l-6.6924-24.1614h-1.9466l-7.1217,24.1614h-2.467v0.9498h5.6956v-0.9498h-2.2788
					l2.1847-7.404h5.8867l1.9936,7.404h-2.1347v0.9498h9.0183v-0.9498H35.5981z M23.2101,35.7135l2.7993-9.5416l2.564,9.5416
					C28.5734,35.7135,23.2101,35.7135,23.2101,35.7135z M3.8416,19.9058v0.9498h2.2318v23.2116H3.8416v0.9498h9.4946v-0.9498h-2.517
					V32.626h2.3729c1.7084,0,2.3729,1.8995,2.42,4.0342h0.9498V27.642h-0.9498c-0.047,2.1847-0.7586,4.0342-2.42,4.0342h-2.3729
					V20.8556h4.8429c2.3729,0,3.799,2.8493,3.799,6.219h0.9498v-7.1687C20.4079,19.9058,3.8416,19.9058,3.8416,19.9058z
					 M39.4441,29.5886c0.3793,1.5672,1.4702,2.7522,2.8963,3.4668c0.9968,0.5234,1.9936,0.8557,3.0845,1.282
					c0.9968,0.4264,2.3729,0.8057,3.3227,1.3291c1.0438,0.5704,1.4702,1.282,1.8525,2.2318
					c0.4264,0.9968,0.4734,1.8995,0.2382,2.9904c-0.3323,1.5672-1.0438,2.9434-2.467,3.702l-0.1411,0.0471
					c-0.7116,0.2852-1.4702,0.3793-2.2318,0.2852c-0.5704-0.0941-1.1879-0.3323-1.7554-0.6645
					c-0.6175-0.3793-1.1879-0.7586-1.6143-1.235c-1.7554-1.8525-2.1347-4.3195-2.517-5.9808h-0.9027v7.9274h0.9498v-0.7116
					c0-0.2852,0.3323-0.4734,0.6645-0.2852c1.8995,1.1879,5.4104,1.9466,7.9744,1.3291c1.8525-0.5704,3.3697-1.3291,4.4636-3.0845
					c0.9498-1.5672,1.5202-3.2286,1.4702-5.1281c-0.0471-2.6581-1.1879-4.6047-3.6079-5.8867
					c-1.6143-0.8557-3.6079-1.235-5.2222-1.9936c-1.0909-0.5234-2.0877-1.1879-2.6111-2.2788
					c-0.8557-1.8525-0.6645-4.7458,1.1379-6.1719c0.9498-0.7586,2.2788-0.7586,3.4168-0.6645
					c4.3665,0.7586,4.5576,5.6956,4.6047,7.6892h0.9498v-7.1187l-2.0877-0.5234c-2.0406-0.4734-4.3195-1.282-6.5042-0.6645
					c-2.3729,0.7116-4.0813,2.0406-4.984,4.4635C38.9678,25.8866,38.9678,27.6891,39.4441,29.5886z"/>
				<polygon fill="#333333" points="55.7722,19.9999 55.7722,20.9497 57.8629,20.9497 57.8629,44.0672 55.7722,44.0672 
					55.7722,45.017 57.8629,45.017 62.6087,45.017 64.7464,45.017 64.7464,44.0672 62.6087,44.0672 62.6087,32.9583 69.207,32.9583 
					69.207,44.0672 67.1193,44.0672 67.1193,45.017 69.207,45.017 74.0028,45.017 76.0905,45.017 76.0905,44.0672 74.0028,44.0672 
					74.0028,20.9497 76.0905,20.9497 76.0905,19.9999 74.0028,19.9999 69.207,19.9999 67.1193,19.9999 67.1193,20.9497 
					69.207,20.9497 69.207,32.0086 62.6087,32.0086 62.6087,20.9497 64.7464,20.9497 64.7464,19.9999 62.6087,19.9999 
					57.8629,19.9999 				"/>
				<polygon fill="#333333" points="77.6107,19.9999 77.6107,20.9497 80.0777,20.9497 80.0777,44.0672 77.6107,44.0672 
					77.6107,45.017 80.0777,45.017 84.8735,45.017 86.9612,45.017 86.9612,44.0672 84.8735,44.0672 84.8735,20.9497 
					86.9612,20.9497 86.9612,19.9999 84.8735,19.9999 80.0777,19.9999 				"/>
				<polygon fill="#333333" points="129.6825,19.9058 129.6825,20.8556 131.8202,20.8556 131.8202,44.0672 129.6825,44.0672 
					129.6825,45.017 131.8202,45.017 136.566,45.017 138.6566,45.017 138.6566,44.0672 136.566,44.0672 136.566,20.8556 
					138.6566,20.8556 138.6566,19.9058 136.566,19.9058 131.8202,19.9058 				"/>
				<path fill="#333333" d="M156.552,20.8556v6.219h0.9498c0-3.3697,1.4232-6.219,3.799-6.219h1.7084v23.2116h-2.467v0.9498h9.7269
					v-0.9498h-2.467V20.8556h1.7084c2.3729,0,3.799,2.8493,3.799,6.219h0.9498v-7.1687h-17.8013v0.9498H156.552z"/>
				<polygon fill="#333333" points="109.5554,20.047 109.5554,20.9967 111.549,20.9967 111.549,44.0202 109.7935,44.0202 
					109.7935,44.9699 111.6931,44.9699 112.6428,44.9699 114.4923,44.9699 114.4923,44.0202 112.6428,44.0202 112.6428,22.8962 
					123.9869,45.017 126.551,45.017 126.551,20.8556 128.2123,20.8556 128.2123,19.9058 126.3628,19.9058 125.416,19.9058 
					123.5135,19.9058 123.5135,20.8556 125.416,20.8556 125.416,38.5128 115.9655,20.047 111.6931,20.047 				"/>
				<path fill="#333333" d="M102.5307,32.3408"/>
				<path fill="#333333" d="M98.3553,19.6206c-5.6015,0-10.1121,4.1313-10.1121,12.8173c0,8.5448,4.5106,12.8173,10.1121,12.8173
					c5.6015,0,10.1121-4.0343,10.1121-12.8173C108.4645,23.7019,103.9068,19.6206,98.3553,19.6206z M98.3553,44.5406
					c-2.7993,0-5.0781-4.0343-5.0781-12.1057c0-8.2126,2.2788-12.1057,5.0781-12.1057c2.7993,0,5.0781,3.8461,5.0781,12.1057
					C103.4364,40.7445,101.1575,44.5406,98.3553,44.5406z M190.0169,44.0672l-6.7394-24.1143h-1.9465l-7.1217,24.1143h-2.467v0.9498
					h5.6956v-0.9498h-2.2788l2.1847-7.404h5.8867l1.9936,7.404h-2.1348v0.9498h9.0182v-0.9498H190.0169z M177.6319,35.7135
					l2.7993-9.5416l2.564,9.5416C182.9952,35.7135,177.6319,35.7135,177.6319,35.7135z M140.6973,29.5886
					c0.3793,1.5672,1.4702,2.7522,2.8963,3.4668c0.9968,0.5234,1.9936,0.8557,3.0845,1.282
					c0.9968,0.4264,2.3729,0.8057,3.3227,1.3291c1.0439,0.5704,1.4702,1.282,1.8525,2.2318
					c0.4264,0.9968,0.4734,1.8995,0.2382,2.9904c-0.3323,1.5672-1.0438,2.9434-2.467,3.702l-0.1411,0.0471
					c-0.7116,0.2852-1.4702,0.3793-2.2318,0.2852c-0.5704-0.0941-1.1879-0.3323-1.7554-0.6645
					c-0.6175-0.3793-1.1879-0.7586-1.6143-1.235c-1.7554-1.8525-2.1348-4.3195-2.517-5.9808h-0.9027v7.9274h0.9498v-0.7116
					c0-0.2852,0.3323-0.4734,0.6645-0.2852c1.8995,1.1879,5.4104,1.9466,7.9744,1.3291c1.8525-0.5704,3.3697-1.3291,4.4635-3.0845
					c0.9498-1.5672,1.5202-3.2286,1.4702-5.1281c-0.047-2.6581-1.1879-4.6047-3.6079-5.8867
					c-1.6143-0.8557-3.6079-1.235-5.2222-1.9936c-1.0909-0.5234-2.0877-1.1879-2.6111-2.2788
					c-0.8557-1.8525-0.6645-4.7458,1.1379-6.1719c0.9498-0.7586,2.2788-0.7586,3.4168-0.6645
					c4.3665,0.7586,4.5576,5.6956,4.6047,7.6892h0.9497v-7.1187l-2.0877-0.5234c-2.0406-0.4734-4.3195-1.282-6.5042-0.6645
					c-2.3729,0.7116-4.0813,2.0406-4.984,4.4635C140.2739,25.8866,140.2739,27.6891,140.6973,29.5886z"/>
			</g>
		</g>
		<g id="beauty_editor_logo_1_" display="none">
			<g display="inline">
				<polygon fill="#010101" points="60.4726,44.9993 59.0847,44.9993 59.0847,11.5198 54.9181,11.5198 54.9181,10.2554 
					64.645,10.2554 64.645,11.5198 60.4726,11.5198 				"/>
				<path fill="#010101" d="M3.8814,45.017V10.2613c0,0,4.0637-0.1235,6.0308,0.0941c2.0201,0.2294,3.3521,1.9024,3.4168,4.1048
					c0.0941,3.0639,0.0823,6.1396,0.0118,9.2064c-0.0412,1.679-0.9145,2.9228-2.567,3.6461
					c1.8848,0.2411,2.8522,2.4258,2.8287,4.3518c-0.0294,2.8228,0.0059,5.6427-0.0118,8.4713
					c-0.0176,3.0757-1.7966,4.8487-4.8605,4.884C7.1511,45.0346,3.8814,45.017,3.8814,45.017L3.8814,45.017z M5.378,28.0919v15.4872
					c0,0,2.5023,0.047,3.7226-0.0118c1.7848-0.0823,3.0404-1.2673,3.0639-3.0286v-9.4064
					c-0.0235-1.5378-0.9733-2.6523-2.4964-2.8875C8.289,28.0272,7.7392,28.0919,5.378,28.0919z M5.3545,26.6541
					c1.3614,0.0235,2.367,0.0529,3.4873-0.0235c1.8319-0.1235,2.9639-1.1967,3.011-3.0345
					c0.0823-2.9933,0.0647-6.0014,0.0059-9.0006c-0.0353-1.5614-1.0674-2.8287-2.4847-2.9933
					c-1.3085-0.147-2.6523-0.0294-4.0107-0.0294C5.3545,16.6273,5.3545,21.6054,5.3545,26.6541z M98.7039,10.2495
					c1.9789,0,3.8519-0.0823,5.7132,0.0235c2.2729,0.1235,3.8755,1.873,3.9637,4.1695c0.0353,0.9145,0.0176,1.8319,0.0176,2.7522
					c0,7.6216,0,15.2402,0.0059,22.8617c0,1.1144-0.1647,2.1788-0.8233,3.1051c-0.8057,1.1379-1.973,1.7495-3.3227,1.8201
					c-1.8201,0.0941-3.6579,0.0235-5.5544,0.0235C98.7039,33.3994,98.7039,21.8524,98.7039,10.2495L98.7039,10.2495z
					 M100.1594,43.6144c0.6645,0,1.2262,0,1.7907,0c0.5646,0,1.1321,0.0118,1.6907-0.0118
					c2.1436-0.1059,3.3697-1.2732,3.3697-3.4462V16.2626c0,0,0.0059-1.1967-0.0706-1.8201
					c-0.1647-1.3849-0.9733-2.4376-2.3141-2.7581c-1.479-0.3528-2.9816-0.1-4.4665-0.1588
					C100.1594,22.2905,100.1594,32.8701,100.1594,43.6144z M145.4418,44.9699h-1.3908V10.1966c0,0,1.8907-0.0118,3.3227,0
					c1.3026,0.0118,2.0201-0.0235,3.0286,0.1823c1.9495,0.394,3.2286,2.0318,3.2639,4.0342
					c0.047,2.9992,0.0412,6.0014,0.0059,9.0006c-0.0235,1.8848-0.9027,3.0757-2.9698,4.1636
					c1.7848,0.8851,2.3788,2.4611,2.5199,4.2636c0.3234,4.1871,0.9145,13.1201,0.9145,13.1201h-1.3967
					c0,0-0.7057-10.1974-0.9674-13.3612c-0.1941-2.3788-1.479-3.5109-3.8813-3.5344c-0.7704-0.0118-2.4376,0-2.4376,0
					L145.4418,44.9699L145.4418,44.9699z M145.4476,26.6247c0,0,2.6317,0.0823,3.9166-0.0235
					c1.6849-0.1294,2.8228-1.2908,2.8522-2.9875V14.519c-0.0235-1.4673-0.9674-2.664-2.3847-2.8522
					c-1.432-0.1882-4.3842-0.0823-4.3842-0.0823V26.6247L145.4476,26.6247z M139.5462,27.5862c0,4.1283,0,8.2596,0,12.388
					c0,1.4026-0.1764,2.7346-1.2085,3.8167c-1.3261,1.3967-3.6755,1.873-5.6838,1.1262c-1.8554-0.6881-2.911-2.22-2.9169-4.34
					c-0.0118-8.6478-0.0059-17.3014-0.0118-25.955c0-2.6405,1.7907-4.7664,5.0899-4.6958c2.3906,0.047,4.0578,1.3202,4.5606,3.3756
					c0.1647,0.6704,0.1529,1.3967,0.1588,2.1024C139.5521,19.4618,139.5462,23.5196,139.5462,27.5862L139.5462,27.5862z
					 M138.0495,27.5391c0-2.6081,0-5.2192,0-7.8333c0-1.7672,0.0235-3.5285-0.0353-5.2898
					c-0.0412-1.479-0.8645-2.4552-2.2024-2.8875c-2.1377-0.6822-4.6606,0.5469-4.6194,3.4638
					c0.0706,5.4309,0.0235,10.8619,0.0235,16.2987c0,3.1051-0.0176,6.2102,0.0118,9.3123c0.0118,1.6319,1.0791,2.8757,2.5905,3.1404
					c1.9083,0.3352,3.4991-0.4411,4.0284-2.0554c0.1823-0.5528,0.1941-1.1791,0.1941-1.7672
					C138.0554,35.7899,138.0495,31.6616,138.0495,27.5391L138.0495,27.5391z M42.8419,10.2436h1.4908v29.1248
					c0,0.3176,0.0118,0.6351,0,0.9556c-0.0941,2.8463,2.367,4.0519,4.8135,3.2403c1.3085-0.4352,1.7966-1.4967,1.9789-2.7463
					c0.0588-0.3764,0.0294-0.7763,0.0294-1.1615V10.2554h1.4849c0,0,0.0118,20.2301,0,29.9011c0,2.7581-1.2026,4.4665-3.652,4.9722
					c-3.3697,0.6881-6.1014-1.2379-6.1278-4.4488c0-0.3528-0.0235-0.7057-0.0235-1.0556
					C42.8419,39.6213,42.8419,10.2436,42.8419,10.2436z M32.9356,9.9319h1.4967l5.1193,35.0145h-1.4849l-1.432-10.2738H30.745
					l-1.4496,10.2856h-1.4261L32.9356,9.9319z M36.4229,33.1112l-2.7463-19.5155L30.942,33.1112
					C30.9479,33.1112,36.4229,33.1112,36.4229,33.1112z"/>
				<polygon fill="#010101" points="72.9399,45.0052 71.4609,45.0052 71.4609,32.4437 66.4769,10.2613 67.903,10.2613 
					72.2607,29.1417 76.6331,10.2613 78.0327,10.2613 72.9399,32.4437 				"/>
				<polygon fill="#010101" points="122.8741,44.9993 121.4774,44.9993 121.4774,11.5198 117.3137,11.5198 117.3137,10.2554 
					127.0436,10.2554 127.0436,11.5198 122.8741,11.5198 				"/>
				<polygon fill="#010101" points="112.6297,10.2377 114.0205,10.2377 114.0205,44.9699 112.6297,44.9758 				"/>
				<path fill="#010101" d="M86.757,26.6776V10.2671h8.3949v1.2379h-6.91v15.1755L86.757,26.6776L86.757,26.6776z"/>
				<polygon fill="#010101" points="86.757,28.0566 86.757,44.9581 95.1107,44.9581 95.1107,43.6026 88.2654,43.6026 
					88.2654,28.0566 				"/>
				<circle fill="#010101" cx="90.953" cy="27.3627" r="0.6881"/>
				<path fill="#010101" d="M17.3249,26.6776V10.2671h8.3949v1.2379h-6.91v15.1755C18.8157,26.6776,17.3249,26.6776,17.3249,26.6776
					z M17.3249,28.0566V44.964h8.3537v-1.3614h-6.8453v-15.546H17.3249z"/>
				<circle fill="#010101" cx="21.518" cy="27.3627" r="0.6881"/>
			</g>
		</g>
		<g id="mom_spark_logo_1_" display="none">
			<g display="inline">
				<g>
					<g>
						<path fill="#59595B" d="M3.8814,35.1054h0.9503v1.7665c0.6429-1.0286,1.5373-2.0013,3.3039-2.0013
							c1.7274,0,2.8007,0.9895,3.343,2.1355c0.6429-1.1069,1.7106-2.1355,3.5777-2.1355c2.3535,0,3.807,1.6491,3.807,4.1368v6.0039
							h-0.9503v-5.8809c0-2.1355-1.1069-3.3821-2.9349-3.3821c-1.6715,0-3.1305,1.2802-3.1305,3.4995v5.7691h-0.9503v-5.948
							c0-2.0572-1.1292-3.3206-2.8958-3.3206s-3.1697,1.5541-3.1697,3.5554v5.7133H3.8813L3.8814,35.1054z"/>
					</g>
					<g>
						<path fill="#59595B" d="M21.6863,40.0975v-0.0391c0-2.7784,2.1578-5.1877,5.1095-5.1877c2.9349,0,5.0704,2.3703,5.0704,5.1486
							v0.0391c0,2.7784-2.1578,5.1877-5.1095,5.1877C23.8218,45.2518,21.6863,42.8759,21.6863,40.0975z M30.8376,40.0975v-0.0391
							c0-2.3926-1.7889-4.2933-4.0809-4.2933c-2.3535,0-4.0417,1.9231-4.0417,4.2542v0.0391c0,2.3926,1.7889,4.2933,4.0809,4.2933
							C29.1493,44.3573,30.8376,42.4287,30.8376,40.0975z"/>
					</g>
					<g>
						<path fill="#59595B" d="M34.8066,35.1054h0.9503v1.7665c0.6429-1.0286,1.5373-2.0013,3.3038-2.0013
							c1.7274,0,2.8007,0.9895,3.343,2.1355c0.6429-1.1069,1.7106-2.1355,3.5778-2.1355c2.3535,0,3.807,1.6491,3.807,4.1368v6.0039
							h-0.9503v-5.8809c0-2.1355-1.1069-3.3821-2.9349-3.3821c-1.6715,0-3.1305,1.2802-3.1305,3.4995v5.7691h-0.9503v-5.948
							c0-2.0572-1.1292-3.3206-2.8957-3.3206c-1.7721,0-3.1697,1.5541-3.1697,3.5554v5.7132h-0.9503L34.8066,35.1054
							L34.8066,35.1054z"/>
					</g>
					<g>
						<path fill="#59595B" d="M69.9246,43.7703l0.5646-0.7603c1.0901,0.833,2.292,1.3025,3.5554,1.3025
							c1.3417,0,2.3927-0.7379,2.3927-1.8839v-0.0391c0-1.1684-1.241-1.5932-2.6218-1.9845
							c-1.6156-0.464-3.3989-0.9503-3.3989-2.7224v-0.0391c0-1.5932,1.3417-2.7392,3.2647-2.7392
							c1.1851,0,2.5268,0.4249,3.5163,1.0901l-0.5031,0.7994c-0.9112-0.6038-2.0013-0.9895-3.0523-0.9895
							c-1.3584,0-2.2529,0.7379-2.2529,1.7274v0.0391c0,1.1069,1.3417,1.515,2.7616,1.923
							c1.5932,0.4472,3.2647,1.0286,3.2647,2.7784v0.0391c0,1.7665-1.515,2.8958-3.4212,2.8958
							C72.5465,45.2126,70.9756,44.6256,69.9246,43.7703z"/>
					</g>
					<g>
						<path fill="#59595B" d="M80.4399,35.1054h0.9503v2.2137c0.8553-1.3025,2.1187-2.4485,4.0809-2.4485
							c2.3926,0,4.8188,1.923,4.8188,5.1486v0.0391c0,3.2256-2.4318,5.1877-4.8188,5.1877c-1.9845,0-3.2647-1.1292-4.0809-2.3703
							v5.2493h-0.9503V35.1054z M89.2613,40.0975v-0.0391c0-2.6051-1.8056-4.2765-3.8852-4.2765
							c-2.0572,0-4.0418,1.7274-4.0418,4.2542v0.0391c0,2.5436,1.9846,4.2542,4.0418,4.2542
							C87.5339,44.3349,89.2613,42.7641,89.2613,40.0975z"/>
					</g>
					<g>
						<path fill="#59595B" d="M92.4533,42.138v-0.0391c0-2.0572,1.7665-3.2256,4.3324-3.2256c1.3808,0,2.3311,0.1733,3.2815,0.4249
							v-0.4249c0-2.0013-1.2243-3.0299-3.2647-3.0299c-1.2019,0-2.197,0.3298-3.1082,0.7994l-0.3522-0.833
							c1.0901-0.5031,2.1578-0.8553,3.5163-0.8553c1.3417,0,2.4094,0.369,3.1305,1.0901c0.6597,0.6597,1.0118,1.5764,1.0118,2.8007
							v6.1772h-0.9336v-1.6491c-0.682,0.9503-1.9063,1.8839-3.7902,1.8839C94.4323,45.2518,92.4533,44.2008,92.4533,42.138z
							 M100.0896,41.305v-1.1292c-0.833-0.2124-1.9454-0.4472-3.3597-0.4472c-2.0963,0-3.2647,0.9336-3.2647,2.3144v0.0391
							c0,1.4367,1.3584,2.2752,2.8734,2.2752C98.3567,44.3573,100.0896,43.1107,100.0896,41.305z"/>
					</g>
					<g>
						<path fill="#59595B" d="M104.4221,35.1054h0.9503v2.8175c0.777-1.7665,2.4318-3.0523,4.3939-2.974v1.051h-0.095
							c-2.292,0-4.2933,1.7274-4.2933,4.953v4.0641h-0.9503v-9.9115L104.4221,35.1054L104.4221,35.1054z"/>
					</g>
					<g>
						<path fill="#59595B" d="M112.1981,30.8289h0.9503V41.456l6.1381-6.3561h1.2634l-4.3324,4.394l4.4666,5.5176h-1.2075
							l-3.9244-4.8412l-2.4094,2.4318v2.4094h-0.9503V30.8289L112.1981,30.8289L112.1981,30.8289z"/>
					</g>
				</g>
				<g>
					<path fill="#A282BF" d="M62.238,40.0193h-0.8609l0.4304,0.7435l5.5567,3.2088c0.0671,0.0391,0.1398,0.0559,0.2124,0.0559
						c0.1509,0,0.2907-0.0783,0.3745-0.218c0.1174-0.2068,0.0503-0.4696-0.1565-0.587L62.238,40.0193 M53.6905,35.1502
						c-0.1509,0-0.2907,0.0783-0.3745,0.2124c-0.1174,0.2068-0.0503,0.4696,0.1565,0.587l5.5567,3.2088h0.8609l-0.4304-0.7435
						l-5.5567-3.2088C53.8414,35.1725,53.7632,35.1502,53.6905,35.1502"/>
					<path fill="#7FCDEF" d="M68.6556,39.1639h-6.412l-0.7435,0.4304l0.7435,0.4304h6.412c0.2348,0,0.4304-0.1957,0.4304-0.4304
						C69.0861,39.354,68.8904,39.1639,68.6556,39.1639"/>
					<polyline fill="#5069B3" points="61.4945,39.5888 61.2206,39.7509 61.3827,40.0193 62.238,40.0193 61.4945,39.5888 					"/>
					<path fill="#7FCDEF" d="M59.0348,39.1639h-6.4176c-0.2348,0-0.4304,0.1957-0.4304,0.4304s0.1901,0.4304,0.4304,0.4304h6.412
						l0.7435-0.4304L59.0348,39.1639"/>
					<polyline fill="#5069B3" points="59.8901,39.1639 59.0348,39.1639 59.7783,39.5888 60.0522,39.4323 59.8901,39.1639 					"/>
					<path fill="#80D2A9" d="M59.8901,40.0193h-0.8609l-5.5567,3.2088c-0.2068,0.1174-0.2739,0.3801-0.1565,0.587
						c0.0783,0.1398,0.2236,0.218,0.3745,0.218c0.0727,0,0.1453-0.0168,0.2124-0.0559l5.5567-3.2088L59.8901,40.0193
						 M67.5823,35.1502c-0.0727,0-0.1453,0.0168-0.2124,0.0559l-5.5567,3.2088l-0.4304,0.7435h0.8609l5.5567-3.2088
						c0.2068-0.1174,0.2739-0.3801,0.1565-0.587C67.873,35.2284,67.7276,35.1502,67.5823,35.1502"/>
					<path fill="#40A99E" d="M59.7783,39.5888l-0.7435,0.4304h0.8609l0.1565-0.2739L59.7783,39.5888 M62.238,39.1639h-0.8609
						l-0.1565,0.2739l0.2739,0.1565L62.238,39.1639"/>
					<path fill="#285676" d="M61.2206,39.4323l-0.0894,0.1565l0.0894,0.1565l0.2739-0.1565L61.2206,39.4323 M60.0522,39.4323
						l-0.2739,0.1565l0.2739,0.1565l0.0894-0.1565L60.0522,39.4323"/>
					<path fill="#D7E966" d="M64.6474,32.2153c-0.1509,0-0.2907,0.0783-0.3745,0.2124l-3.2088,5.5567v0.8609l0.7435-0.4304
						l3.2088-5.5567c0.1174-0.2068,0.0503-0.4696-0.1565-0.587C64.7928,32.2376,64.7201,32.2153,64.6474,32.2153"/>
					<polyline fill="#6CC044" points="61.8076,38.4205 61.0641,38.8453 61.0641,39.1639 61.3827,39.1639 61.8076,38.4205 					"/>
					<polyline fill="#369B40" points="61.3827,39.1639 61.0641,39.1639 61.0641,39.3428 61.2206,39.4323 61.3827,39.1639 					"/>
					<polyline fill="#214E2F" points="61.0641,39.3428 61.0641,39.477 61.1311,39.5888 61.2206,39.4323 61.0641,39.3428 					"/>
					<path fill="#D7E966" d="M60.2088,40.3323l-0.7435,0.4304l-3.2088,5.5567c-0.1174,0.2068-0.0503,0.4696,0.1565,0.587
						c0.0671,0.0391,0.1398,0.0559,0.2124,0.0559c0.1509,0,0.2907-0.0783,0.3745-0.2124l3.2088-5.5567L60.2088,40.3323"/>
					<polyline fill="#6CC044" points="60.2088,40.0193 59.8901,40.0193 59.4653,40.7628 60.2088,40.3323 60.2088,40.0193 					"/>
					<polyline fill="#369B40" points="60.0522,39.7509 59.8901,40.0193 60.2088,40.0193 60.2088,39.8404 60.0522,39.7509 					"/>
					<polyline fill="#214E2F" points="60.1417,39.5888 60.0522,39.7509 60.2088,39.8404 60.2088,39.7062 60.1417,39.5888 					"/>
					<path fill="#FDD866" d="M60.6336,40.4497l-0.4304,0.7435v6.4176c0,0.2348,0.1901,0.4304,0.4304,0.4304
						c0.2348,0,0.4304-0.1957,0.4304-0.4304v-6.4176L60.6336,40.4497 M60.6336,31.1419c-0.2348,0-0.4304,0.1957-0.4304,0.4304V37.99
						l0.4304,0.7435l0.4304-0.7435v-6.4176C61.0641,31.3376,60.874,31.1419,60.6336,31.1419"/>
					<polyline fill="#D5C529" points="61.0641,37.99 60.6336,38.7335 60.7957,39.0074 61.0641,38.8453 61.0641,37.99 					"/>
					<polyline fill="#6BA21B" points="61.0641,38.8453 60.7957,39.0074 60.8852,39.1639 61.0641,39.1639 61.0641,38.8453 					"/>
					<polyline fill="#35831A" points="61.0641,39.1639 60.8852,39.1639 60.9523,39.2758 61.0641,39.3428 61.0641,39.1639 					"/>
					<polyline fill="#214113" points="60.9523,39.2758 61.0641,39.477 61.0641,39.3428 60.9523,39.2758 					"/>
					<polyline fill="#D5C529" points="60.4771,40.1758 60.2088,40.3323 60.2088,41.1932 60.6336,40.4497 60.4771,40.1758 					"/>
					<polyline fill="#6BA21B" points="60.3876,40.0193 60.2088,40.0193 60.2088,40.3323 60.4771,40.1758 60.3876,40.0193 					"/>
					<polyline fill="#35831A" points="60.2088,39.8404 60.2088,40.0193 60.3876,40.0193 60.3206,39.9075 60.2088,39.8404 					"/>
					<polyline fill="#214113" points="60.2088,39.7062 60.2088,39.8404 60.3206,39.9075 60.2088,39.7062 					"/>
					<path fill="#F380AF" d="M56.6254,32.2153c-0.0727,0-0.1453,0.0168-0.2124,0.0559c-0.2068,0.1174-0.2739,0.3801-0.1565,0.587
						l3.2088,5.5567l0.7435,0.4304v-0.8609L57,32.4333C56.9217,32.2935,56.7763,32.2153,56.6254,32.2153"/>
					<polyline fill="#9A4184" points="59.4653,38.4205 59.8901,39.1639 60.2088,39.1639 60.2088,38.8453 59.4653,38.4205 					"/>
					<polyline fill="#4C357C" points="60.2088,39.1639 59.8901,39.1639 60.0522,39.4323 60.2088,39.3428 60.2088,39.1639 					"/>
					<polyline fill="#262B50" points="60.2088,39.3428 60.0522,39.4323 60.1417,39.5888 60.2088,39.477 60.2088,39.3428 					"/>
					<path fill="#F380AF" d="M61.0641,40.3323v0.8609l3.2088,5.5567c0.0783,0.1398,0.2236,0.2124,0.3745,0.2124
						c0.0727,0,0.1453-0.0168,0.2124-0.0559c0.2068-0.1174,0.2739-0.3801,0.1565-0.587l-3.2088-5.5567L61.0641,40.3323"/>
					<polyline fill="#9A4184" points="61.3827,40.0193 61.0641,40.0193 61.0641,40.3323 61.8076,40.7628 61.3827,40.0193 					"/>
					<polyline fill="#4C357C" points="61.2206,39.7509 61.0641,39.8404 61.0641,40.0193 61.3827,40.0193 61.2206,39.7509 					"/>
					<polyline fill="#262B50" points="61.1311,39.5888 61.0641,39.7062 61.0641,39.8404 61.2206,39.7509 61.1311,39.5888 					"/>
					<path fill="#202720" d="M61.0641,39.477v0.2292l0.0671-0.1174L61.0641,39.477 M60.2088,39.477l-0.0671,0.1174l0.0671,0.1174
						V39.477"/>
					<polyline fill="#F16C46" points="60.2088,37.99 60.2088,38.8453 60.4771,39.0074 60.6336,38.7335 60.2088,37.99 					"/>
					<polyline fill="#993735" points="60.2088,38.8453 60.2088,39.1639 60.3876,39.1639 60.4771,39.0074 60.2088,38.8453 					"/>
					<polyline fill="#4B2C32" points="60.3876,39.1639 60.2088,39.1639 60.2088,39.3428 60.3206,39.2758 60.3876,39.1639 					"/>
					<polyline fill="#262420" points="60.3206,39.2758 60.2088,39.3428 60.2088,39.477 60.3206,39.2758 					"/>
					<polyline fill="#F16C46" points="60.7957,40.1758 60.6336,40.4497 61.0641,41.1932 61.0641,40.3323 60.7957,40.1758 					"/>
					<polyline fill="#993735" points="61.0641,40.0193 60.8852,40.0193 60.7957,40.1758 61.0641,40.3323 61.0641,40.0193 					"/>
					<polyline fill="#4B2C32" points="61.0641,39.8404 60.9523,39.9075 60.8852,40.0193 61.0641,40.0193 61.0641,39.8404 					"/>
					<polyline fill="#262420" points="61.0641,39.7062 60.9523,39.9075 61.0641,39.8404 61.0641,39.7062 					"/>
					<path fill="#CB621C" d="M60.6336,40.0864l-0.1565,0.0894l0.1565,0.2739l0.1565-0.2739L60.6336,40.0864 M60.6336,38.7335
						l-0.1565,0.2739l0.1565,0.0894l0.1565-0.0894L60.6336,38.7335"/>
					<path fill="#803215" d="M60.8852,40.0193H60.751l-0.1118,0.0671l0.1565,0.0894L60.8852,40.0193 M60.4771,39.0074
						l-0.0894,0.1565h0.1342l0.1118-0.0671L60.4771,39.0074"/>
					<polyline fill="#3F2914" points="60.9523,39.9075 60.751,40.0193 60.8852,40.0193 60.9523,39.9075 					"/>
					<polyline fill="#3F2914" points="60.5218,39.1639 60.3876,39.1639 60.3206,39.2758 60.5218,39.1639 					"/>
					<polyline fill="#665113" points="60.7957,39.0074 60.6336,39.0969 60.751,39.1639 60.8852,39.1639 60.7957,39.0074 					"/>
					<polyline fill="#41290E" points="60.6336,39.0969 60.5218,39.1639 60.751,39.1639 60.6336,39.0969 					"/>
					<polyline fill="#665113" points="60.5218,40.0193 60.3876,40.0193 60.4771,40.1758 60.6336,40.0864 60.5218,40.0193 					"/>
					<polyline fill="#41290E" points="60.751,40.0193 60.5218,40.0193 60.6336,40.0864 60.751,40.0193 					"/>
					<path fill="#324112" d="M60.3206,39.9075l0.0671,0.1174h0.1342L60.3206,39.9075 M60.8852,39.1639H60.751l0.2012,0.1174
						L60.8852,39.1639"/>
					<polyline fill="#20210D" points="60.751,39.1639 60.5218,39.1639 60.3206,39.2758 60.2088,39.477 60.2088,39.7062 
						60.3206,39.9075 60.5218,40.0193 60.751,40.0193 60.9523,39.9075 61.0641,39.7062 61.0641,39.477 60.9523,39.2758 
						60.751,39.1639 					"/>
				</g>
				<g>
					<path fill="#BCBDBE" d="M128.3036,45.5592c-0.1174,0-0.2068-0.0336-0.2795-0.1062c-0.0671-0.0671-0.1286-0.1565-0.1677-0.2571
						c-0.0447-0.1006-0.0727-0.2068-0.0894-0.3187c-0.0168-0.1118-0.0223-0.2068-0.0223-0.2851
						c0-0.3969,0.0559-0.8162,0.1621-1.2578c0.1062-0.4472,0.2739-0.8553,0.4919-1.2299c0.218-0.3745,0.5031-0.6876,0.8497-0.9336
						c0.3466-0.246,0.7491-0.3745,1.2131-0.3745c0.0223,0,0.0559,0.0112,0.1006,0.0336c0.0447,0.0224,0.0894,0.0503,0.1342,0.0839
						s0.0894,0.0671,0.123,0.1062s0.0559,0.0727,0.0615,0.1062c0.0056,0.0336,0,0.1062-0.0168,0.2292
						c-0.0168,0.1174-0.0447,0.2516-0.0783,0.3913c-0.0335,0.1398-0.0615,0.2739-0.1006,0.3969
						c-0.0335,0.123-0.0615,0.2068-0.0782,0.2571c0,0.0615,0,0.1677-0.0056,0.3186c-0.0056,0.1509-0.0112,0.3074-0.0168,0.4696
						c-0.0056,0.1621-0.0112,0.3187-0.0168,0.464c-0.0056,0.1453-0.0112,0.246-0.0168,0.3019v0.1845
						c0,0.0447,0,0.1174,0.0056,0.2124c0.0056,0.095,0.0112,0.1957,0.028,0.3019c0.0168,0.1062,0.0447,0.1957,0.0839,0.2739
						c0.0391,0.0783,0.095,0.1174,0.1621,0.1174c0.0671,0,0.123-0.0336,0.1565-0.1006c0.0335-0.0671,0.0839-0.1006,0.1453-0.1006
						c0.0615,0,0.1006,0.0279,0.1174,0.0783c0.0168,0.0503,0.0223,0.1062,0.0223,0.1677c0,0.1565-0.0615,0.2907-0.1901,0.4081
						s-0.2683,0.1733-0.4249,0.1733c-0.1174,0-0.2124-0.0447-0.2851-0.1398c-0.0727-0.095-0.1342-0.2012-0.1733-0.3242
						c-0.0447-0.123-0.0727-0.246-0.095-0.3745c-0.0168-0.123-0.028-0.218-0.028-0.2795c0-0.0391,0-0.123,0-0.2571
						s0-0.2683,0-0.4193c0-0.1565,0-0.2963,0-0.4304c0-0.1342,0-0.218,0-0.2571c0-0.0391,0-0.1062-0.0056-0.2012
						c-0.0056-0.095-0.0112-0.1453-0.028-0.1453h-0.0671c-0.0168,0.0559-0.0336,0.1062-0.0559,0.1621
						c-0.0168,0.0447-0.0336,0.095-0.0503,0.1398c-0.0168,0.0447-0.0391,0.0839-0.0503,0.1174
						c-0.0559,0.1565-0.1286,0.3634-0.218,0.6205c-0.095,0.2571-0.2012,0.5143-0.3242,0.7603
						c-0.123,0.246-0.2683,0.464-0.4305,0.6429C128.6782,45.4697,128.4993,45.5592,128.3036,45.5592z M128.3875,44.7933
						c0,0.0223,0.0056,0.0559,0.0112,0.1006c0.0056,0.0447,0.0336,0.0615,0.0671,0.0615c0.0783,0,0.1677-0.0783,0.2795-0.2348
						c0.1062-0.1565,0.218-0.3522,0.3298-0.587c0.1118-0.2348,0.2236-0.4975,0.3298-0.777
						c0.1062-0.2851,0.2068-0.5534,0.2907-0.8218c0.0838-0.2628,0.1565-0.4975,0.2068-0.7044
						c0.0559-0.2068,0.0839-0.3466,0.0839-0.4249c-0.0671,0-0.1342,0.0112-0.1901,0.0391c-0.0559,0.0279-0.123,0.0615-0.1901,0.1006
						c-0.436,0.3466-0.7491,0.7379-0.9448,1.174s-0.2963,0.9224-0.2963,1.4646c0,0.0223,0,0.0671,0,0.1286
						c0,0.0615,0,0.123,0,0.1845c0,0.0615,0,0.123,0.0056,0.1789C128.3707,44.743,128.3763,44.7766,128.3875,44.7933z"/>
					<path fill="#BCBDBE" d="M136.3312,36.6148c0.1956,0.0839,0.313,0.2012,0.3578,0.3466v0.0223
						c-0.0559,0.2348-0.1062,0.3466-0.1509,0.3466l-0.0335-0.0447h-0.0336c-0.2068,0.246-0.3354,0.5367-0.3745,0.8609
						c-0.0559,0-0.1006,0.1901-0.1398,0.5702l-0.0447,0.0223l0.0839,0.1621l-0.1174,0.4863l0.0335,0.0336v0.0224l-0.0335,0.095
						l0.0335,0.2348l-0.0671,0.4416l0.0336,0.0839l-0.0671,0.0559l0.0335,0.0839l-0.0335,0.3019l0.0671,0.218h-0.0336l0.0336,0.0223
						v0.0224l-0.0335,0.3242l0.0335,0.0223v0.0336l-0.0671,0.3242l0.0671,0.3578l-0.0671,0.4863l0.0671,0.7882l-0.0335,0.0223
						l0.0335,0.2683v0.218c0,0.7826,0.1621,1.4702,0.4863,2.0572c0.1453,0.1621,0.2404,0.246,0.2795,0.246h0.0839
						c0.123-0.0447,0.246-0.2068,0.3745-0.4863c0.1062-0.1342,0.1789-0.3075,0.2068-0.5255c0.095,0,0.1677-0.2683,0.2348-0.8106
						l-0.0336-0.0336v-0.0223l0.0671-0.095l-0.0335-0.1733v-0.0559l0.0335-0.246c-0.0447-0.6373-0.1342-1.0621-0.2683-1.2913
						c0-0.1565-0.1845-0.2907-0.5479-0.4081l-0.3969-0.3019l-0.0335-0.1062c0.0559-0.1677,0.1733-0.2571,0.3578-0.2571
						l0.6876,0.3578l0.4528,0.0559l1.174-0.1398v0.0223l0.2068-0.0839l0.1621,0.0336c0-0.0447,0.0447-0.0727,0.1398-0.0839
						c0.1565,0.0168,0.2348,0.0447,0.2348,0.0839v0.0447c-0.0615,0.1174-0.3969,0.2236-1.0007,0.3242
						c-0.3019,0.1174-0.587,0.1845-0.8497,0.1957l-0.1062-0.0223l-0.1174,0.1062v0.218c0.123,0,0.1845,0.218,0.1845,0.6596
						l0.0671,0.2068l-0.0336,0.0839l0.0671,0.2795l-0.0671,0.1062l0.0336,0.0223v0.0224c-0.0223,0.3745-0.0559,0.587-0.1062,0.6373
						l0.0335,0.0223c-0.0447,0.2739-0.095,0.4081-0.1509,0.4081l0.0336,0.0223v0.0336c-0.2739,1.051-0.6261,1.582-1.0565,1.582
						h-0.1845c-0.1621,0-0.3578-0.1453-0.5926-0.4416c-0.1845-0.4249-0.3075-0.8274-0.3746-1.1963l-0.0671-0.6261l0.0336-0.0671
						l-0.0671-0.1509l0.0335-0.1062l-0.0335-0.1174l0.0335-0.0224v-0.0223l-0.0671-0.1733l0.0671-0.3242l-0.0335-0.0224
						l0.0335-0.0839l-0.0671-0.4863l0.0336-0.1621l-0.0336-0.1621l0.0336-0.218v-0.0559h-0.0671l0,0l0.0671-0.0839l-0.0336-0.5087
						c0.0224-1.3864,0.0559-2.0796,0.1062-2.0796l-0.0671-0.1621c0.0447-0.0671,0.1006-0.2683,0.1621-0.6038l-0.095-0.0559
						l0.2348-0.7211l-0.0336-0.0447v-0.0223c0.1174-0.7994,0.2851-1.1963,0.4975-1.1963h0.1342L136.3312,36.6148L136.3312,36.6148z"
						/>
					<path fill="#BCBDBE" d="M141.5246,37.0676c0,0.0447,0.0503,0.0671,0.1509,0.0671c0.1621,0.0839,0.2795,0.2124,0.3466,0.3857
						l0.1286,0.9783l-0.0336,0.0447l0.0336,0.3131v0.5255l0.0336,0.1957l-0.1286,0.9056l0.0335,0.0223l-0.0671,0.0671v0.1398
						c0,0.1453-0.0336,0.3298-0.095,0.5479v0.0336l0.0336,0.1509c-0.0783,0-0.1453,0.2068-0.1956,0.6261l-0.1174,0.4863
						l0.0223,0.095c-0.0671,0-0.2068,0.3913-0.4081,1.174c-0.0671,0.0336-0.1453,0.1957-0.218,0.4863
						c-0.1062,0.0447-0.1621,0.1565-0.1621,0.3242v0.0336c0,0.1174,0.1677,0.4081,0.5087,0.8721
						c0.0615,0,0.1062,0.0559,0.1286,0.1621l0.1286,0.0671l0.0223-0.0447c0.0224,0.0839,0.0894,0.1733,0.1957,0.2683l0.0559,0.1621
						l0.1621-0.0336c0.0615,0.0559,0.2068,0.1118,0.4304,0.1733l0.0559-0.0671l0.0335,0.0336h0.0336l0.095-0.0336l0.0335,0.0336
						l0.0224-0.0336l0.0335,0.0336v0.1845c0,0.0447-0.0335,0.0671-0.095,0.0671l-0.095-0.0336l-0.1062,0.095
						c-0.4193-0.0391-0.6373-0.1006-0.6485-0.1845l-0.0224,0.0223h-0.0335l-0.2572-0.1509l-0.0335,0.0336
						c-0.0168-0.0839-0.1509-0.2348-0.4081-0.4528l-0.2571-0.3019l-0.246-0.3578v-0.0336
						c-0.1174,0.0391-0.3075,0.3242-0.5702,0.8497c-0.0447,0-0.218,0.2068-0.5087,0.6261
						c-0.1621,0.1398-0.3074,0.3019-0.4305,0.4863c-0.0391,0.0615-0.1006,0.095-0.1845,0.095l-0.3242,0.4193l-0.0223-0.0336
						l-0.1286,0.1957l-0.0336-0.0336h-0.0335c0,0.0559-0.0503,0.095-0.1509,0.1286c0,0.0447-0.1789,0.1845-0.5367,0.4193
						c-0.2348,0.1006-0.3745,0.1901-0.4193,0.2683l-0.0223-0.0336h-0.0336l-0.1621,0.0671l-0.0336-0.0336
						c0,0.0391-0.1342,0.095-0.4081,0.1621l-0.0336-0.0336h-0.0223l-0.1845,0.1062l-0.1845-0.0336l-0.1621,0.0336l-0.0223-0.0336
						h-0.0336l-0.095,0.0336l-0.1286-0.0336l-0.095,0.0336l-0.1286-0.3242c0.0559-0.0336,0.1286-0.1342,0.218-0.3019l0.0335,0.0336
						h0.1509l0.095-0.0559l0.0335,0.0223h0.0336c0.123-0.0168,0.218-0.0447,0.2795-0.095l0.095,0.095l0.0224-0.0223h0.0336
						l0.095,0.0559c0.4025-0.0615,0.71-0.1845,0.9168-0.3578c0.5255-0.3354,0.7882-0.5478,0.7882-0.6373
						c0.1342,0,0.2795-0.1342,0.4416-0.3969c0.1957-0.1789,0.5702-0.6093,1.1292-1.3025l0.0559-0.1286
						c0-0.0671,0.0336-0.1062,0.1062-0.1062l0.246-0.4863l0.0336,0.0336l0.095-0.2571l-0.0223-0.0223v-0.0336l0.0223-0.1398
						c-0.0391-0.0056-0.1453-0.2012-0.3131-0.5814l0.0336-0.095l-0.095-0.4528h0.0223l-0.095-0.2683h0.0336l-0.0336-0.0336v-0.0559
						l0.0336-0.1733l-0.095-0.9615l0.1845-1.269l-0.0335-0.1286l0.0671-0.0671l-0.0336-0.0223v-0.0336l0.1286-0.6876v-0.0783
						l-0.0336-0.0224v-0.0336c0.0615-0.0559,0.1453-0.3913,0.2572-1.0118c0.0391,0,0.123-0.1845,0.2571-0.559l-0.0336-0.0223
						c0.2236-0.341,0.436-0.5702,0.6261-0.6876l0.0335,0.0223C141.3625,37.1123,141.4184,37.0844,141.5246,37.0676z
						 M141.0159,38.208l0.0335,0.0336l-0.1286,0.1621l0.0336,0.095c-0.1062,0-0.1845,0.1565-0.218,0.464l-0.0671,0.218
						l0.0336,0.0336c-0.0391,0-0.0671,0.095-0.095,0.2907l-0.0671,0.218l-0.0223,0.0336l-0.0336,0.1062l0.0336,0.095
						c-0.1006,0.3186-0.1733,0.9783-0.218,1.9845l0.0224,0.095h-0.028l0.0559,0.1286l-0.0336,0.095l0.0336,0.0336v0.0336
						l-0.0336,0.1062l0.0671,0.1845v0.1286c0,0.3969,0.0838,0.7994,0.2571,1.2075v0.095h0.1174
						c0.0168-0.1174,0.0839-0.2516,0.1957-0.4081l-0.0336-0.0447v-0.0336c0.1174-0.1677,0.218-0.4416,0.3131-0.8106
						c0.123-0.1453,0.218-0.5479,0.2907-1.1963l0.0559-0.0671v-0.1845l0.1845-0.8833v-0.1286l-0.0223-0.1286l0.0223-0.1286
						l-0.0223-0.1621c0.0391,0,0.0671-0.1062,0.095-0.3242l-0.0671-0.5814l0.0336-0.0447l-0.0336-0.1509l0.0336-0.1286
						l-0.0336-0.0336V38.577l0.0336-0.1398c-0.0839-0.5422-0.1901-0.8106-0.3131-0.8106c-0.1062,0.0671-0.2236,0.2348-0.3466,0.4975
						C141.055,38.1298,141.0159,38.1577,141.0159,38.208z"/>
					<path fill="#BCBDBE" d="M142.57,44.4803c0-0.1565,0.0391-0.3746,0.1174-0.6541c0.0783-0.2851,0.1845-0.559,0.3186-0.8385
						c0.1342-0.2739,0.2907-0.5143,0.464-0.7156c0.1733-0.2012,0.3522-0.3019,0.5422-0.3019c0.0782,0,0.1286,0.0168,0.1565,0.0503
						c0.028,0.0336,0.0447,0.0783,0.0503,0.123c0.0056,0.0447,0.0168,0.095,0.028,0.1398s0.0391,0.0839,0.0894,0.1062
						c0.1621,0.1062,0.313,0.1901,0.4472,0.2515c0.1342,0.0559,0.2516,0.1286,0.3522,0.2068
						c0.1006,0.0839,0.1789,0.1901,0.2404,0.3187c0.0559,0.1342,0.0894,0.3242,0.0894,0.5702c0,0.2068-0.0559,0.4249-0.1621,0.6485
						c-0.1062,0.2236-0.246,0.4304-0.4193,0.6093c-0.1677,0.1845-0.3633,0.3298-0.5814,0.4472
						c-0.218,0.1174-0.4361,0.1733-0.6485,0.1733c-0.1565,0-0.2963-0.0279-0.4249-0.0894c-0.1286-0.0559-0.2404-0.1398-0.341-0.246
						c-0.1006-0.1062-0.1789-0.2292-0.2348-0.3634C142.5979,44.7822,142.57,44.6368,142.57,44.4803z M143.1401,44.307
						c0,0.0671,0.0056,0.1453,0.0223,0.2348c0.0168,0.0839,0.0447,0.1621,0.0839,0.2404c0.0391,0.0727,0.0894,0.1342,0.1453,0.1845
						c0.0559,0.0503,0.1342,0.0783,0.2292,0.0783c0.1565,0,0.313-0.0336,0.4752-0.1062c0.1621-0.0671,0.3075-0.1621,0.4361-0.2795
						c0.1286-0.1174,0.2348-0.2516,0.3131-0.4137c0.0838-0.1565,0.123-0.3298,0.123-0.5031c0-0.0839-0.0168-0.1789-0.0559-0.2795
						c-0.0391-0.1006-0.095-0.1957-0.1621-0.2851c-0.0671-0.0894-0.1453-0.1621-0.2348-0.218
						c-0.0839-0.0559-0.1733-0.0894-0.2683-0.0894c-0.1565,0-0.3019,0.0503-0.4361,0.1509
						c-0.1342,0.1006-0.2515,0.2236-0.3466,0.3634c-0.095,0.1453-0.1733,0.2963-0.2348,0.464
						C143.1681,44.0163,143.1401,44.1672,143.1401,44.307z"/>
					<path fill="#BCBDBE" d="M146.9974,49.5562c0-0.4416,0.0559-0.8777,0.1621-1.3137c0.1062-0.436,0.2516-0.8609,0.4249-1.2802
						c0.1733-0.4193,0.369-0.8273,0.587-1.2243s0.436-0.7826,0.6596-1.146c0.0447-0.0671,0.1286-0.1677,0.2404-0.3019
						c0.1118-0.1342,0.2292-0.2628,0.3466-0.4025c0.1174-0.1342,0.2236-0.2628,0.3131-0.3913
						c0.0894-0.123,0.1341-0.218,0.1341-0.2795c0-0.0447-0.0279-0.0783-0.0839-0.1006c-0.0559-0.0168-0.1118-0.0336-0.1733-0.0336
						c-0.0615-0.0056-0.123,0-0.1845,0.0056c-0.0615,0.0056-0.095,0.0112-0.1062,0.0112c-0.3019,0-0.5758,0.0671-0.8274,0.2068
						c-0.246,0.1398-0.4863,0.2963-0.71,0.464c-0.2236,0.1677-0.4472,0.3242-0.6764,0.464
						c-0.2236,0.1398-0.4696,0.2068-0.7323,0.2068c-0.0168,0-0.0559,0-0.1174,0c-0.0615,0-0.1006-0.0056-0.1174-0.0112
						c-0.1454-0.1062-0.246-0.2348-0.2963-0.3745c-0.0503-0.1398-0.0726-0.2963-0.0726-0.4752c0-0.0671,0.0168-0.1509,0.0559-0.2404
						s0.0839-0.1789,0.1341-0.2739c0.0503-0.095,0.1006-0.1789,0.1565-0.2628c0.0559-0.0839,0.095-0.1509,0.1286-0.2012
						c0.1454-0.2236,0.3186-0.4249,0.5255-0.5982c0.2012-0.1733,0.4193-0.3186,0.6596-0.436
						c0.2404-0.1174,0.4919-0.2068,0.7491-0.2683c0.2571-0.0615,0.5143-0.095,0.7715-0.095c0.0559,0,0.1174,0.0112,0.1901,0.0279
						c0.0726,0.0168,0.1118,0.0727,0.1118,0.1565c0,0.0783-0.0223,0.1342-0.0671,0.1733c-0.0447,0.0391-0.1006,0.0671-0.1621,0.0839
						c-0.0615,0.0168-0.1286,0.028-0.1901,0.028c-0.0671,0.0056-0.123,0.0112-0.1677,0.0168c-0.0336,0-0.0894,0.0112-0.1677,0.0279
						c-0.0839,0.0168-0.1677,0.0391-0.2571,0.0615c-0.0894,0.0224-0.1789,0.0447-0.2628,0.0671
						c-0.0839,0.0223-0.1454,0.0391-0.1733,0.0447c-0.1174,0.1006-0.2571,0.2124-0.4305,0.341
						c-0.1677,0.1286-0.3298,0.2628-0.4808,0.4137c-0.1509,0.1453-0.2795,0.3019-0.3913,0.464
						c-0.1062,0.1621-0.1621,0.3298-0.1621,0.4975c0,0.1174,0.0559,0.1733,0.1621,0.1733c0.1454,0,0.3242-0.0503,0.5367-0.1565
						c0.2068-0.1062,0.4249-0.2292,0.6429-0.3634c0.218-0.1398,0.436-0.2795,0.6373-0.4193
						c0.2068-0.1398,0.3746-0.246,0.5031-0.3131c0.1062-0.0168,0.2068-0.028,0.2907-0.0336
						c0.0838-0.0056,0.1845-0.0112,0.2907-0.0112c0.0839,0,0.1677,0.0168,0.2516,0.0503c0.0839,0.0336,0.1621,0.0727,0.2404,0.1118
						c0.0783,0.0391,0.1509,0.0783,0.2292,0.1118c0.0727,0.0336,0.1509,0.0503,0.2292,0.0503h0.0671
						c0.1341-0.0783,0.2684-0.1509,0.4193-0.2292c0.1454-0.0727,0.2963-0.1398,0.4528-0.2012c0.0223,0,0.0391,0,0.0391,0.0056
						c0.0056,0.0056,0.0112,0.0056,0.0168,0.0056l0.0559,0.0447c0.0391,0.0783,0.0559,0.1677,0.0559,0.2795
						c-0.0391,0.0391-0.0671,0.0671-0.0839,0.095c-0.0168,0.0224-0.0335,0.0559-0.0447,0.1062
						c-0.1845,0.0391-0.3466,0.095-0.4752,0.1621c-0.1341,0.0671-0.2012,0.1453-0.2068,0.218c-0.0168,0.095-0.0168,0.1957,0,0.3019
						c0.0168,0.1062,0.0335,0.218,0.0559,0.3354c0.0224,0.1174,0.0447,0.2292,0.0615,0.341
						c0.0168,0.1118,0.0279,0.218,0.0279,0.3187c0,0.5087-0.0503,0.9951-0.1565,1.4591c-0.1062,0.4584-0.2068,0.928-0.3075,1.3975
						l-0.1733,0.218c-0.0783,0.2012-0.1901,0.4696-0.341,0.805c-0.1509,0.3354-0.3298,0.6708-0.5423,0.9951
						c-0.2068,0.3242-0.4417,0.6038-0.6932,0.8441c-0.2516,0.2348-0.5143,0.3522-0.7938,0.3522
						c-0.1565,0-0.2851-0.0391-0.3857-0.1118c-0.1006-0.0727-0.1845-0.1677-0.246-0.2795
						c-0.0615-0.1118-0.1062-0.2348-0.1342-0.3746C147.0087,49.8134,146.9974,49.6792,146.9974,49.5562z M147.4391,49.6848
						c0,0.0223,0.0112,0.0615,0.0279,0.123c0.0168,0.0559,0.0447,0.1174,0.0671,0.1789c0.0279,0.0615,0.0559,0.1174,0.0894,0.1621
						c0.0335,0.0447,0.0671,0.0671,0.1062,0.0671c0.0671,0,0.1621-0.0391,0.2851-0.123c0.1174-0.0839,0.2124-0.1509,0.2851-0.2012
						c0.3075-0.2795,0.5982-0.6261,0.8721-1.0398c0.2683-0.4137,0.5031-0.8553,0.6988-1.3193
						c0.1956-0.464,0.3466-0.9336,0.4584-1.4143c0.1118-0.4752,0.1677-0.9168,0.1677-1.3305c0-0.0391-0.0056-0.123-0.0168-0.2516
						c-0.0112-0.1286-0.0335-0.2571-0.0559-0.3969c-0.0279-0.1342-0.0615-0.2571-0.1006-0.3578
						c-0.0391-0.1062-0.0839-0.1565-0.1397-0.1565l-0.0112,0.0112c-0.0168,0.0168-0.0615,0.0503-0.1342,0.1062
						c-0.0726,0.0559-0.123,0.0894-0.1454,0.1062c-0.2795,0.246-0.5646,0.5982-0.8553,1.051
						c-0.2907,0.4528-0.5534,0.9392-0.7938,1.4646c-0.2403,0.5255-0.436,1.0454-0.587,1.5653
						c-0.1509,0.5199-0.2292,0.9671-0.2292,1.3472c0,0.0336,0,0.1006,0.0056,0.2012
						C147.4391,49.5842,147.4391,49.6513,147.4391,49.6848z"/>
					<path fill="#BCBDBE" d="M157.5015,36.9502l0.1733,0.1174l-0.0559,0.218v0.0559l0.0559,0.0839l-0.0839,0.1062v0.1733
						l0.0224,0.1062c-0.095,0.1789-0.1398,0.3466-0.1398,0.4975v0.1174l-0.0559,0.0671l0.0336,0.218l-0.1174,1.0789v0.0336
						c-0.0559,0.0559-0.0839,0.2292-0.0839,0.5255v0.0839l-0.0223,0.0336v0.0223l0.0447,0.0559
						c-0.095,0-0.1397,0.2851-0.1397,0.8609v0.0839l-0.0447,0.0839l-0.0559,0.9615l0.0223,0.1062l-0.0223,0.095h0.0839
						c0.1845-0.095,0.2795-0.1565,0.2795-0.1957l0.0223,0.0336h0.0336c0.2068-0.123,0.4472-0.2907,0.7211-0.4975
						c0.123,0,0.3857-0.1677,0.7883-0.4975l0.2907-0.1509v0.0336c0,0.3075-0.1118,0.464-0.3354,0.464
						c-0.2572,0.2571-0.5423,0.4472-0.8609,0.5702c-0.1174,0.1174-0.2739,0.2068-0.464,0.2683
						c-0.1341,0.1789-0.2516,0.2739-0.3578,0.2795c-0.0391,0-0.1062,0.0559-0.1956,0.1733v0.3578l0.1956,0.1509l0.0224-0.0223
						c0,0.0336,0.0559,0.0783,0.1621,0.1398l0.0336-0.0223h0.0223c0.123,0.1398,0.2851,0.2739,0.4752,0.4081
						c0.0671,0.0559,0.1062,0.1118,0.1062,0.1733l0.0224-0.0336h0.0335c0.0392,0.1062,0.1677,0.246,0.3857,0.4193
						c0,0.0615,0.0447,0.1286,0.1398,0.1957c0,0.0391,0.1006,0.1733,0.3019,0.4081l0.1398,0.2571
						c0,0.1006,0.0559,0.1845,0.1733,0.246h-0.0335l0.1733,0.4193c0.1789,0.4975,0.2851,0.8889,0.3242,1.1851l-0.0335,0.1398v0.3019
						l0.0335,0.1733c-0.095,0.1621-0.1398,0.3242-0.1398,0.4863v0.1174c-0.0559,0.0615-0.1286,0.2571-0.218,0.5814l-0.218,0.3857
						c-0.0615,0-0.1062,0.0559-0.1398,0.1733l-0.3578,0.1398h-0.218c-0.3075-0.095-0.5255-0.2068-0.6373-0.3354
						c-0.3634-0.4081-0.5479-0.7323-0.5479-0.9615c-0.0783-0.095-0.1621-0.3969-0.2571-0.9168l-0.0559-0.0559v-0.1621
						c0-0.1565-0.0168-0.2739-0.0447-0.3578l0.0224-0.0336v-0.0112l-0.1398-0.3578v-0.0671h0.0224l-0.0447-1.0007l-0.0559-0.0447
						l0.0559-0.0839v-0.218l-0.0336-0.1621l0.0336-0.0839l-0.0336-0.1733l0.0336-0.0223h0.0223
						c-0.0391-0.095-0.0559-0.2571-0.0559-0.4975v-0.2292l0.0335-0.3019c0-0.0615-0.1397-0.1453-0.4192-0.246l-0.0559-0.0559h-0.246
						l-0.1398,0.0224c0-0.0391-0.095-0.0615-0.2795-0.0671l-0.3354,0.0671h-0.2907l-0.218,0.0559h-0.1397l-0.1174-0.0223
						l-0.1062,0.0223c0-0.0391-0.1062-0.0671-0.313-0.0839l-0.0839-0.1398c0-0.1677,0.123-0.2571,0.3578-0.2571l0.3969-0.0447
						l0.0839,0.0336l0.2907-0.0671l0.2795,0.0671c0.464-0.0615,0.6988-0.1342,0.6988-0.2068l0.1398,0.0336
						c0.1677,0,0.3466-0.0615,0.5255-0.1845v-0.0336l-0.0559-0.1062l0.0336-0.1398l-0.0336-0.0839l0.0336-0.0336h0.0223
						l-0.0223-0.1398v-0.0336h0.0447v-0.1062l0.095-0.6596l-0.0336-0.1062v-0.2571l0.0559-0.0839v-0.1957l0.0559-0.218
						l-0.0559-0.0559c0.0391-0.0615,0.095-0.464,0.1621-1.2075l0.0559-0.0559v-0.4416c0.0559-0.1789,0.0839-0.3801,0.0839-0.6038
						v-0.0336l0.0336-0.0335l-0.0336-0.0112l0.0336-0.1398v-0.095l-0.0336-0.1286
						C157.222,37.2521,157.3226,36.9502,157.5015,36.9502z M157.0096,43.9828v0.2795l-0.0336,0.0223l0.0336,0.0224V44.62
						l0.0223,0.1062l-0.0223,0.1957v0.6596l0.0223,0.3019l-0.0223,0.1733l0.0447,0.3578l-0.0224,0.0112v0.0336
						c0.1342,0.8777,0.2516,1.4367,0.3578,1.6827l-0.0223,0.0336v0.0224c0.1789,0.4975,0.3074,0.7882,0.3857,0.8833
						c0.2795,0.3187,0.5255,0.4975,0.7435,0.5367c0.1845,0,0.3913-0.1789,0.6149-0.5367c0.1957-0.4863,0.2907-0.9224,0.2907-1.3025
						l-0.0112-0.0839l0.0112-0.1621c-0.0559-0.3634-0.1509-0.7379-0.2907-1.1181c-0.246-0.5422-0.464-0.9168-0.6485-1.1292
						c0-0.0559-0.0335-0.1062-0.1062-0.1621c0-0.0559-0.0279-0.0839-0.0839-0.0839l-0.1621-0.1957
						c0-0.1006-0.1118-0.2012-0.3354-0.3019c0-0.0447-0.1845-0.1957-0.5479-0.4416l-0.0559-0.0839l-0.0336,0.0223h-0.0224
						c-0.0392,0-0.0559-0.0279-0.0559-0.0839h-0.0503L157.0096,43.9828L157.0096,43.9828z"/>
					<path fill="#BCBDBE" d="M159.6258,44.4803c0-0.1565,0.0391-0.3746,0.1174-0.6541c0.0783-0.2851,0.1844-0.559,0.3186-0.8385
						c0.1341-0.2739,0.2907-0.5143,0.464-0.7156c0.1733-0.2012,0.3522-0.3019,0.5422-0.3019c0.0783,0,0.1286,0.0168,0.1565,0.0503
						s0.0447,0.0783,0.0503,0.123c0.0056,0.0447,0.0168,0.095,0.0279,0.1398c0.0112,0.0447,0.0391,0.0839,0.0894,0.1062
						c0.1621,0.1062,0.3131,0.1901,0.4472,0.2515c0.1342,0.0559,0.2516,0.1286,0.3522,0.2068
						c0.1006,0.0839,0.1789,0.1901,0.2404,0.3187c0.0559,0.1342,0.0894,0.3242,0.0894,0.5702c0,0.2068-0.0559,0.4249-0.1621,0.6485
						s-0.246,0.4304-0.4193,0.6093c-0.1677,0.1845-0.3634,0.3298-0.5814,0.4472c-0.218,0.1174-0.4361,0.1733-0.6485,0.1733
						c-0.1565,0-0.2963-0.0279-0.4249-0.0894c-0.1286-0.0559-0.2404-0.1398-0.341-0.246c-0.1006-0.1062-0.1789-0.2292-0.2348-0.3634
						C159.6538,44.7822,159.6258,44.6368,159.6258,44.4803z M160.196,44.307c0,0.0671,0.0056,0.1453,0.0223,0.2348
						c0.0168,0.0839,0.0447,0.1621,0.0839,0.2404c0.0391,0.0727,0.0894,0.1342,0.1454,0.1845
						c0.0559,0.0503,0.1341,0.0783,0.2292,0.0783c0.1565,0,0.313-0.0336,0.4752-0.1062c0.1621-0.0671,0.3075-0.1621,0.4361-0.2795
						c0.1286-0.1174,0.2348-0.2516,0.313-0.4137c0.0839-0.1565,0.123-0.3298,0.123-0.5031c0-0.0839-0.0168-0.1789-0.0559-0.2795
						c-0.0392-0.1006-0.095-0.1957-0.1621-0.2851c-0.0671-0.0894-0.1454-0.1621-0.2348-0.218
						c-0.0839-0.0559-0.1733-0.0894-0.2683-0.0894c-0.1565,0-0.3019,0.0503-0.436,0.1509
						c-0.1341,0.1006-0.2516,0.2236-0.3466,0.3634c-0.095,0.1453-0.1733,0.2963-0.2348,0.464
						C160.224,44.0163,160.196,44.1672,160.196,44.307z"/>
					<path fill="#BCBDBE" d="M162.147,45.6431c0-0.095,0.0391-0.1957,0.123-0.3131c0.0839-0.1174,0.1789-0.2348,0.2907-0.3466
						c0.1118-0.1174,0.2236-0.2236,0.3298-0.3242c0.1062-0.1006,0.1901-0.1733,0.246-0.218
						c0.1957-0.2404,0.3801-0.4975,0.559-0.7714c0.1789-0.2739,0.3354-0.559,0.4752-0.8553
						c0.1398-0.2963,0.246-0.5982,0.3242-0.9168c0.0783-0.3186,0.1174-0.6373,0.1174-0.9615
						c0.0447-0.1342,0.1342-0.1957,0.2683-0.1957c0.0839,0,0.1509,0.028,0.1901,0.0839c0.0447,0.0559,0.0726,0.123,0.1006,0.2012
						c0.0224,0.0839,0.0447,0.1677,0.0671,0.2571c0.0223,0.0894,0.0559,0.1621,0.095,0.2292
						c0.1062,0.1957,0.2348,0.3746,0.3801,0.5367c0.1454,0.1621,0.2795,0.3298,0.4025,0.4975
						c0.123,0.1677,0.2292,0.3522,0.313,0.5479s0.1286,0.4193,0.1286,0.6764c0,0.2012-0.0279,0.4025-0.0839,0.5982
						c-0.0559,0.1957-0.0839,0.3969-0.0839,0.5982c0,0.0671,0.0056,0.1118,0.0168,0.1342c0.0112,0.0168,0.0559,0.028,0.1342,0.028
						c0.1006,0,0.2012-0.0168,0.2963-0.0447c0.095-0.0336,0.1957-0.0671,0.2907-0.1118c0.095-0.0447,0.1901-0.0783,0.2795-0.1118
						c0.0894-0.0336,0.1789-0.0447,0.2739-0.0447c0.0223,0,0.0559,0,0.095,0c0.0447,0,0.0671,0.0168,0.0671,0.0559
						c0,0.0615-0.0671,0.1398-0.1956,0.2348c-0.1342,0.095-0.2795,0.1845-0.4472,0.2683s-0.3298,0.1565-0.4863,0.2124
						s-0.2628,0.0894-0.3186,0.0894c-0.1565,0-0.2851-0.0559-0.3969-0.1677c-0.1062-0.1118-0.1621-0.246-0.1621-0.4025
						c0-0.2236,0.0391-0.4416,0.123-0.6541c0.0839-0.2124,0.123-0.436,0.123-0.6708c0-0.1957-0.0279-0.369-0.0894-0.5311
						c-0.0559-0.1565-0.1397-0.3075-0.2404-0.4472s-0.2124-0.2683-0.341-0.3969c-0.1286-0.123-0.2628-0.246-0.4025-0.3745
						c-0.0056,0-0.0112-0.0056-0.0112-0.0112c0-0.0056-0.0056-0.0168-0.0112-0.0223c-0.0559,0-0.0894,0.0223-0.1062,0.0671
						c-0.0839,0.3466-0.218,0.6932-0.3969,1.0342c-0.1789,0.341-0.3801,0.6708-0.6093,0.9895
						c-0.2292,0.3186-0.4752,0.6205-0.7379,0.9112c-0.2627,0.2907-0.5255,0.5534-0.7771,0.7938c-0.0056,0-0.0112,0-0.0168,0.0056
						c-0.0056,0.0056-0.0112,0.0056-0.0279,0.0056c-0.0168,0.0056-0.0335,0.0112-0.0447,0.0112
						c-0.0615-0.0168-0.095-0.0391-0.1062-0.0671C162.1526,45.7045,162.147,45.671,162.147,45.6431z"/>
					<path fill="#BCBDBE" d="M171.5554,45.5145c-0.0391-0.7882-0.0894-1.5764-0.1565-2.3647s-0.1006-1.5764-0.1006-2.3647
						c0-0.0839,0.0335-0.1509,0.1006-0.1901c0.0671-0.0447,0.1341-0.0615,0.2012-0.0615c0.0615,0,0.1174,0.0168,0.1677,0.0503
						s0.0839,0.0727,0.1006,0.1118c0.0056,0.0336,0.0112,0.0671,0.0112,0.1174c0,0.0447,0,0.0783,0,0.095
						c0,0.1342-0.0056,0.2628-0.0168,0.3969c-0.0112,0.1342-0.0168,0.2739-0.0168,0.4304c0,0.4193,0.0224,0.8441,0.0615,1.2858
						c0.0447,0.436,0.0839,0.8665,0.123,1.2858h0.0335c0.0559,0,0.1118-0.0839,0.1733-0.246s0.1286-0.3634,0.1956-0.6038
						c0.0671-0.2404,0.1509-0.5031,0.2404-0.7826c0.0894-0.2851,0.1901-0.5422,0.2963-0.7826
						c0.1062-0.2404,0.2348-0.4416,0.369-0.6038c0.1398-0.1621,0.2963-0.246,0.4752-0.246c0.1006,0,0.1789,0.0391,0.2404,0.1174
						c0.0559,0.0783,0.1006,0.1677,0.1341,0.2739c0.0335,0.1062,0.0503,0.2124,0.0503,0.3242
						c0.0056,0.1118,0.0056,0.2068,0.0056,0.2851c0,0.3801-0.0279,0.7603-0.0894,1.1404c-0.0559,0.3801-0.0894,0.7547-0.0894,1.1292
						c0,0.0559,0.0056,0.123,0.0112,0.2068c0.0056,0.0839,0.0447,0.1342,0.1062,0.1509c0.0168-0.0056,0.0559-0.0671,0.1286-0.1789
						c0.0671-0.1118,0.1509-0.246,0.2516-0.4081c0.095-0.1565,0.2012-0.3354,0.3074-0.5255
						c0.1062-0.1901,0.2068-0.369,0.3019-0.5367c0.095-0.1677,0.1733-0.3074,0.2404-0.4249
						c0.0671-0.1174,0.1062-0.1845,0.123-0.2068c0.0224-0.0839,0.0447-0.1789,0.0559-0.2795
						c0.0168-0.1006,0.0447-0.1957,0.0839-0.2795c0.0391-0.0839,0.095-0.1565,0.1621-0.2124
						c0.0671-0.0559,0.1621-0.0894,0.2795-0.0894c0.0168,0,0.0447,0.0056,0.0839,0.0112c0.0391,0.0056,0.0671,0.0168,0.0839,0.0223
						c0.0223,0.1677,0.0335,0.4025,0.0279,0.6988c-0.0056,0.2963,0.0168,0.587,0.0559,0.8721
						c0.0447,0.2851,0.123,0.5367,0.2516,0.7491c0.123,0.2124,0.3242,0.3186,0.6038,0.3186c0.1565,0,0.2963-0.0223,0.4249-0.0615
						c0.1286-0.0447,0.2683-0.0727,0.4249-0.0894c0.0447-0.0168,0.0839,0.0056,0.1062,0.0559
						c0.0223,0.0559,0.0335,0.1006,0.0335,0.1398c0,0.1062-0.0671,0.1901-0.2012,0.246c-0.1342,0.0559-0.2907,0.095-0.464,0.1286
						c-0.1733,0.0336-0.341,0.0503-0.492,0.0503c-0.1565,0.0056-0.2571,0.0056-0.3019,0.0056c-0.1845,0-0.3354-0.0615-0.4528-0.1789
						c-0.1174-0.1174-0.2124-0.2628-0.2963-0.4304s-0.1509-0.3354-0.2124-0.5087c-0.0615-0.1733-0.1342-0.3131-0.2068-0.4249
						l-0.1062,0.095c-0.0671,0.1342-0.1398,0.2628-0.2068,0.3969c-0.0615,0.1062-0.123,0.218-0.1789,0.3354
						c-0.0559,0.1174-0.1062,0.2124-0.1454,0.2907c-0.0615,0.123-0.1174,0.2739-0.1677,0.4528s-0.1118,0.3466-0.1901,0.5087
						c-0.0783,0.1621-0.1733,0.3019-0.2851,0.4193c-0.1118,0.1174-0.2628,0.1733-0.4472,0.1733
						c-0.0839,0-0.1509-0.0279-0.1901-0.0839c-0.0447-0.0559-0.0727-0.1174-0.0895-0.1957
						c-0.0168-0.0783-0.0223-0.1565-0.0223-0.2348c0-0.0783,0-0.1398,0-0.1845c0-0.559,0.0168-1.1013,0.0447-1.6268
						c0.0335-0.5255,0.0447-1.0621,0.0447-1.6156c-0.095,0-0.1845,0.095-0.2795,0.2907c-0.095,0.1957-0.1901,0.436-0.2851,0.7323
						c-0.095,0.2963-0.1956,0.6093-0.2907,0.9448c-0.095,0.3354-0.1956,0.6541-0.2963,0.9448
						c-0.1006,0.2963-0.2012,0.5367-0.3074,0.7323c-0.1062,0.1957-0.2124,0.2907-0.3298,0.2907
						c-0.0671,0-0.1286-0.0336-0.1789-0.095C171.6169,45.6375,171.5778,45.576,171.5554,45.5145z"/>
					<path fill="#BCBDBE" d="M177.632,44.4803c0-0.1565,0.0391-0.3746,0.1174-0.6541c0.0783-0.2851,0.1845-0.559,0.3186-0.8385
						c0.1341-0.2739,0.2907-0.5143,0.464-0.7156c0.1733-0.2012,0.3522-0.3019,0.5423-0.3019c0.0783,0,0.1286,0.0168,0.1565,0.0503
						s0.0447,0.0783,0.0503,0.123s0.0168,0.095,0.0279,0.1398c0.0112,0.0447,0.0391,0.0839,0.0894,0.1062
						c0.1621,0.1062,0.3131,0.1901,0.4472,0.2515c0.1342,0.0559,0.2516,0.1286,0.3522,0.2068
						c0.1006,0.0839,0.1789,0.1901,0.2404,0.3187c0.0559,0.1342,0.0894,0.3242,0.0894,0.5702c0,0.2068-0.0559,0.4249-0.1621,0.6485
						c-0.1062,0.2236-0.246,0.4304-0.4192,0.6093c-0.1677,0.1845-0.3634,0.3298-0.5814,0.4472
						c-0.218,0.1174-0.4361,0.1733-0.6485,0.1733c-0.1565,0-0.2963-0.0279-0.4249-0.0894c-0.1286-0.0559-0.2404-0.1398-0.341-0.246
						c-0.1006-0.1062-0.1789-0.2292-0.2348-0.3634C177.66,44.7822,177.632,44.6368,177.632,44.4803z M178.2022,44.307
						c0,0.0671,0.0056,0.1453,0.0224,0.2348c0.0168,0.0839,0.0447,0.1621,0.0839,0.2404c0.0391,0.0727,0.0894,0.1342,0.1454,0.1845
						c0.0559,0.0503,0.1341,0.0783,0.2292,0.0783c0.1565,0,0.313-0.0336,0.4752-0.1062c0.1621-0.0671,0.3074-0.1621,0.436-0.2795
						c0.1286-0.1174,0.2348-0.2516,0.313-0.4137c0.0839-0.1565,0.123-0.3298,0.123-0.5031c0-0.0839-0.0168-0.1789-0.0559-0.2795
						c-0.0391-0.1006-0.095-0.1957-0.1621-0.2851c-0.0671-0.0894-0.1454-0.1621-0.2348-0.218
						c-0.0839-0.0559-0.1733-0.0894-0.2683-0.0894c-0.1565,0-0.3019,0.0503-0.436,0.1509
						c-0.1341,0.1006-0.2516,0.2236-0.3466,0.3634c-0.095,0.1453-0.1733,0.2963-0.2348,0.464
						C178.2302,44.0163,178.2022,44.1672,178.2022,44.307z"/>
					<path fill="#BCBDBE" d="M181.0924,45.5145c-0.0391-0.7882-0.0894-1.5764-0.1565-2.3647
						c-0.0671-0.7882-0.1006-1.5764-0.1006-2.3647c0-0.0839,0.0335-0.1509,0.1006-0.1901c0.0671-0.0447,0.1341-0.0615,0.2012-0.0615
						c0.0615,0,0.1174,0.0168,0.1677,0.0503c0.0503,0.0336,0.0839,0.0727,0.1006,0.1118c0.0056,0.0336,0.0112,0.0671,0.0112,0.1174
						c0,0.0447,0,0.0783,0,0.095c0,0.1342-0.0056,0.2628-0.0168,0.3969s-0.0168,0.2739-0.0168,0.4304
						c0,0.4193,0.0224,0.8441,0.0615,1.2858c0.0447,0.436,0.0839,0.8665,0.123,1.2858h0.0335c0.0559,0,0.1118-0.0839,0.1733-0.246
						s0.1286-0.3634,0.1957-0.6038c0.0671-0.2404,0.1509-0.5031,0.2403-0.7826c0.0894-0.2851,0.1901-0.5422,0.2963-0.7826
						c0.1062-0.2404,0.2348-0.4416,0.3746-0.6038c0.1397-0.1621,0.2963-0.246,0.4752-0.246c0.1006,0,0.1789,0.0391,0.2404,0.1174
						c0.0559,0.0783,0.1006,0.1677,0.1341,0.2739c0.0335,0.1062,0.0503,0.2124,0.0503,0.3242
						c0.0056,0.1118,0.0056,0.2068,0.0056,0.2851c0,0.3801-0.028,0.7603-0.0894,1.1404c-0.0559,0.3801-0.0894,0.7547-0.0894,1.1292
						c0,0.0559,0.0056,0.123,0.0112,0.2068c0.0056,0.0839,0.0447,0.1342,0.1062,0.1509c0.0168-0.0056,0.0559-0.0671,0.1286-0.1789
						c0.0671-0.1118,0.1509-0.246,0.2516-0.4081c0.095-0.1565,0.2012-0.3354,0.3074-0.5255
						c0.1062-0.1901,0.2068-0.369,0.3019-0.5367c0.095-0.1677,0.1733-0.3074,0.2404-0.4249
						c0.0671-0.1174,0.1062-0.1845,0.123-0.2068c0.0224-0.0839,0.0447-0.1789,0.0559-0.2795
						c0.0168-0.1006,0.0447-0.1957,0.0839-0.2795c0.0391-0.0839,0.095-0.1565,0.1621-0.2124s0.1621-0.0894,0.2795-0.0894
						c0.0168,0,0.0447,0.0056,0.0839,0.0112c0.0391,0.0056,0.0671,0.0168,0.0839,0.0223c0.0224,0.1677,0.0336,0.4025,0.0279,0.6988
						c-0.0056,0.2963,0.0168,0.587,0.0559,0.8721c0.0447,0.2851,0.123,0.5367,0.2516,0.7491
						c0.123,0.2124,0.3242,0.3186,0.6037,0.3186c0.1565,0,0.2963-0.0223,0.4249-0.0615c0.1286-0.0447,0.2683-0.0727,0.4249-0.0894
						c0.0447-0.0168,0.0839,0.0056,0.1062,0.0559c0.0224,0.0559,0.0335,0.1006,0.0335,0.1398c0,0.1062-0.0671,0.1901-0.2012,0.246
						c-0.1342,0.0559-0.2907,0.095-0.464,0.1286c-0.1733,0.0336-0.341,0.0503-0.492,0.0503
						c-0.1565,0.0056-0.2571,0.0056-0.3019,0.0056c-0.1845,0-0.3354-0.0615-0.4528-0.1789
						c-0.1174-0.1174-0.2124-0.2628-0.2963-0.4304s-0.1509-0.3354-0.2124-0.5087c-0.0615-0.1733-0.1342-0.3131-0.2068-0.4249
						l-0.1062,0.095c-0.0671,0.1342-0.1398,0.2628-0.2068,0.3969c-0.0615,0.1062-0.123,0.218-0.1789,0.3354
						c-0.0559,0.1174-0.1062,0.2124-0.1454,0.2907c-0.0614,0.123-0.1174,0.2739-0.1677,0.4528s-0.1118,0.3466-0.1901,0.5087
						c-0.0783,0.1621-0.1733,0.3019-0.2851,0.4193c-0.1118,0.1174-0.2628,0.1733-0.4472,0.1733
						c-0.0839,0-0.1509-0.0279-0.1901-0.0839c-0.0447-0.0559-0.0726-0.1174-0.0894-0.1957
						c-0.0168-0.0783-0.0223-0.1565-0.0223-0.2348c0-0.0783,0-0.1398,0-0.1845c0-0.559,0.0168-1.1013,0.0447-1.6268
						c0.0335-0.5255,0.0447-1.0621,0.0447-1.6156c-0.095,0-0.1845,0.095-0.2795,0.2907c-0.095,0.1957-0.1901,0.436-0.2851,0.7323
						c-0.095,0.2963-0.1956,0.6093-0.2907,0.9448c-0.095,0.3354-0.1956,0.6541-0.2963,0.9448
						c-0.1006,0.2963-0.2012,0.5367-0.3074,0.7323c-0.1062,0.1957-0.2124,0.2907-0.3298,0.2907
						c-0.0671,0-0.1286-0.0336-0.1789-0.095C181.1539,45.6375,181.1147,45.576,181.0924,45.5145z"/>
					<path fill="#BCBDBE" d="M187.2137,45.2797c0-0.2628,0.095-0.5087,0.2795-0.7379c0.1845-0.2292,0.3913-0.436,0.6093-0.6261
						c0.218-0.1901,0.4249-0.3578,0.6094-0.5031c0.1845-0.1453,0.2795-0.2739,0.2795-0.3857c0-0.0783-0.095-0.1174-0.2851-0.1286
						c-0.1901-0.0056-0.3969-0.0168-0.6261-0.0336c-0.2292-0.0168-0.436-0.0559-0.6261-0.123
						c-0.1901-0.0671-0.2851-0.1957-0.2851-0.3913c0-0.1565,0.0671-0.3298,0.1956-0.5255c0.1342-0.1957,0.2907-0.3801,0.4808-0.5534
						c0.1901-0.1733,0.3913-0.3187,0.5981-0.436c0.2068-0.1174,0.3913-0.1733,0.5479-0.1733c0.0447,0,0.1062,0.0112,0.1845,0.0336
						c0.0783,0.0224,0.1509,0.0559,0.218,0.095c0.0671,0.0391,0.1286,0.0839,0.1789,0.1286s0.0783,0.095,0.0783,0.1398
						c0,0.1062-0.0447,0.1789-0.1286,0.2068c-0.1453-0.0168-0.2963-0.0168-0.4417-0.0112
						c-0.1454,0.0056-0.2851,0.0447-0.4081,0.1174c-0.0224,0.0223-0.0615,0.0615-0.1118,0.1118
						c-0.0503,0.0503-0.1062,0.1062-0.1621,0.1621s-0.1118,0.1118-0.1621,0.1621s-0.0894,0.0894-0.1118,0.1118
						c-0.0392,0.0559-0.0671,0.095-0.0839,0.1174c-0.0168,0.0224-0.0223,0.0559-0.0223,0.1062c0,0.0839,0.0615,0.1565,0.1901,0.2124
						c0.1286,0.0559,0.2739,0.1062,0.436,0.1453c0.1621,0.0391,0.3186,0.0671,0.4752,0.0895
						c0.1565,0.0168,0.2628,0.028,0.3242,0.028c0.1621,0,0.3131-0.0447,0.4528-0.1398s0.2739-0.1957,0.4081-0.3131
						c0.1341-0.1174,0.2683-0.218,0.4081-0.3131c0.1397-0.095,0.2907-0.1398,0.4528-0.1398c0.0615,0,0.1062,0.0056,0.1286,0.0224
						c0.0223,0.0168,0.0335,0.0559,0.0335,0.1174c0,0.095-0.0671,0.1845-0.1957,0.2683c-0.1342,0.0839-0.2795,0.1677-0.4417,0.2516
						c-0.1621,0.0839-0.3075,0.1621-0.4417,0.246c-0.1342,0.0839-0.1957,0.1621-0.1957,0.2516c0,0.0783,0.0168,0.1509,0.0503,0.2292
						c0.0335,0.0727,0.0726,0.1453,0.1174,0.218c0.0447,0.0727,0.0839,0.1453,0.1174,0.218
						c0.0336,0.0727,0.0503,0.1509,0.0503,0.2292c0,0.2068-0.0894,0.4304-0.2628,0.6596c-0.1733,0.2348-0.3857,0.4416-0.6261,0.6317
						c-0.246,0.1901-0.4975,0.3466-0.7659,0.4696c-0.2683,0.123-0.4975,0.1845-0.6932,0.1845c-0.0783,0-0.1621-0.0056-0.2628-0.0168
						c-0.095-0.0112-0.1901-0.0336-0.2739-0.0559c-0.0839-0.0279-0.1565-0.0671-0.2124-0.1286
						C187.2473,45.453,187.2137,45.3747,187.2137,45.2797z M187.946,45.1064c0,0.0391,0.0056,0.0727,0.0168,0.1062
						c0.0112,0.0336,0.0503,0.0447,0.1118,0.0447c0.1845,0,0.3913-0.0559,0.6093-0.1621c0.218-0.1062,0.4249-0.246,0.6149-0.4193
						c0.1901-0.1677,0.3466-0.3578,0.4752-0.5702c0.1286-0.2068,0.1901-0.4137,0.1901-0.6149c0-0.0783-0.0447-0.1453-0.1341-0.2068
						c-0.0894-0.0615-0.1677-0.095-0.2404-0.095c-0.1062,0-0.2572,0.0783-0.4417,0.2292c-0.1844,0.1509-0.369,0.3298-0.5479,0.5422
						c-0.1789,0.2068-0.3354,0.4249-0.464,0.6373C188.0131,44.8157,187.946,44.9834,187.946,45.1064z"/>
					<path fill="#BCBDBE" d="M190.9927,45.3412c0-0.1174,0.0559-0.2124,0.1733-0.2851c0.1174-0.0727,0.2292-0.1118,0.3354-0.1118
						c0.0559,0,0.1062,0.0447,0.1565,0.1342s0.0783,0.1621,0.0783,0.2124c0,0.1062-0.0391,0.2068-0.123,0.2907
						s-0.1677,0.1286-0.2628,0.1286c-0.1062,0-0.1957-0.0336-0.2628-0.1062C191.0263,45.5369,190.9927,45.4474,190.9927,45.3412z"/>
				</g>
			</g>
		</g>
	</g>
</g>
<g>
</g>
</svg>
