<?xml version="1.0" encoding="UTF-8" standalone="no"?>
<svg
   xmlns:dc="http://purl.org/dc/elements/1.1/"
   xmlns:cc="http://creativecommons.org/ns#"
   xmlns:rdf="http://www.w3.org/1999/02/22-rdf-syntax-ns#"
   xmlns:svg="http://www.w3.org/2000/svg"
   xmlns="http://www.w3.org/2000/svg"
   height="257.471838266"
   width="388.391991425"
   version="1.1"
   id="svg2"
   viewBox="0 0 400.00001 265.16699">
  <metadata
     id="metadata78">
    <rdf:RDF>
      <cc:Work
         rdf:about="">
        <dc:format>image/svg+xml</dc:format>
        <dc:type
           rdf:resource="http://purl.org/dc/dcmitype/StillImage" />
        <dc:title></dc:title>
      </cc:Work>
    </rdf:RDF>
  </metadata>
  <defs
     id="defs76" />
  <g
     transform="translate(1.63996e-5,-231.523)"
     id="g3424">
    <path
       d="m 211.00541,357.10856 c -6.27312,0.14414 -12.55693,-0.18686 -18.83005,0 -2.85628,0.0801 -4.00947,-0.58194 -3.92404,-3.65176 0.0801,-2.87229 0.36838,-4.65012 3.96142,-4.42056 4.91706,0.30965 9.86081,0.16018 14.79923,0.1655 8.23247,0 4.85299,-6.34252 5.52035,-10.33596 0.71007,-4.21234 -1.37741,-6.19304 -5.66449,-6.15567 -4.86901,0.0426 -9.74338,-0.30966 -14.60171,-0.13349 -2.78687,0.10686 -4.0148,-0.41642 -4.05751,-3.55032 -0.0426,-3.25667 0.96632,-4.27105 4.22835,-4.11089 5.33883,0.24024 10.78978,-0.4965 16.09658,0.0801 5.87272,0.63531 7.14869,-2.26901 6.71625,-7.0259 -0.40041,-4.36717 2.29569,-10.54953 -6.26246,-10.28793 -10.47478,0.32033 -20.96559,0.31498 -31.4457,0.17618 -4.93841,-0.0641 -6.7376,2.13554 -6.72159,6.8337 0.0695,17.49534 0.0907,34.99069 -0.0801,52.4807 -0.0534,5.28012 2.31171,7.25548 7.3142,7.122 5.3762,-0.14415 10.75773,-0.032 16.13928,-0.032 l 0,-0.0695 16.81731,0 c 8.13104,0 4.95977,-6.27312 5.65383,-10.31462 0.74209,-4.33513 -0.69939,-6.89244 -5.65917,-6.76964 z"
       id="path4"
       style="fill:#402377" />
    <path
       d="m 268.29107,355.56029 c -1.87928,-3.02177 -1.76716,-4.52199 1.40944,-6.90843 6.9832,-5.24807 10.37869,-17.75162 6.73761,-26.26172 -3.5343,-8.25916 -9.65261,-14.30805 -19.47072,-15.06083 -1.35606,-0.10149 -3.26203,0.92896 -3.94539,-1.33471 l -2.69611,0 c -3.14458,2.13553 -6.28914,2.0768 -9.43906,0 l -13.48055,0 c -1.06776,2.01808 -4.13225,2.13553 -4.16427,5.33882 -0.17085,19.04362 -0.63533,38.08189 -0.82752,57.12549 -0.0266,2.62671 0.58726,5.31213 4.08419,6.05424 10.46946,2.22629 14.29739,-0.80083 14.22799,-11.47315 0,-1.79386 -0.15483,-3.59837 0,-5.3762 0.12813,-1.56962 -0.96099,-4.0148 1.88461,-4.1376 1.94867,-0.0801 4.12158,-1.0998 5.33883,2.22096 1.53759,4.13759 4.24437,7.83206 6.4066,11.74543 4.42055,7.96018 12.39142,10.67765 20.6239,6.94048 2.43985,-1.10515 2.40248,-2.73349 1.16386,-4.86368 -2.66408,-4.65545 -5.02384,-9.47643 -7.85341,-14.0091 z m -20.11672,-19.11834 c -3.51295,0.19219 -7.39428,1.21192 -7.25547,-5.24273 0.1228,-5.78731 1.74046,-7.77334 7.47436,-6.30517 3.94005,0.22958 9.73803,-1.60163 9.95692,5.22672 0.25092,7.11133 -5.74458,6.07559 -10.17581,6.32118 z"
       id="path6"
       style="fill:#402377" />
    <path
       d="m 30.830575,307.40939 c -2.952374,-0.32033 -6.219738,1.01971 -8.841103,-1.41479 l -2.701448,0 c -2.242309,2.18358 -4.489956,1.52157 -6.737604,0 l -8.0936667,0 c -2.514589,1.79919 -4.3244524,3.73718 -4.27106409,7.32487 0.10143772,18.07194 0.0106777,36.14922 -0.16016491,54.2265 -0.03203298,3.51295 0.88090697,5.63247 3.4542232,6.54007 0,-0.10685 0.048049,-0.21889 0.069406,-0.32567 l 0.3630404,0.0909 -0.096098,0.33634 a 8.0082452,8.0082452 0 0 0 0.8862456,0.21356 c 0.3310075,-0.25093 0.7527753,-0.2616 1.297336,0.14948 0.1868591,0 0.3683792,0.032 0.5659161,0.0374 9.5725214,0.35236 10.3199584,-0.15483 10.2665694,-9.6633 0,-1.57495 0.218892,-3.20329 0,-4.71418 -0.880906,-5.70187 2.002061,-6.82303 6.94048,-6.40659 a 40.751291,40.751291 0 0 0 9.30558,-0.1922 c -0.03737,-0.35771 -0.08543,-0.74211 -0.149487,-1.29734 0.421768,0.50184 0.891586,0.80082 0.533884,1.23327 a 26.341788,26.341788 0 0 0 6.780315,-1.99138 c 9.396341,-4.27107 13.544613,-14.22799 11.323658,-26.16028 -1.889945,-10.053 -9.802091,-16.80129 -20.736016,-17.98651 z M 8.8719659,366.28067 c -0.064065,-0.72608 -0.064065,-0.72608 2.0234171,-0.58193 z m 6.0435561,4.14826 -0.288296,-0.17617 c 0.138809,-0.27228 0.282956,-0.53388 0.427106,-0.81151 l 0.379056,0.2616 c -0.170842,0.24025 -0.341686,0.48584 -0.517866,0.72608 z m -0.202876,-19.75367 c -0.03202,0 -0.154826,-0.28296 -0.144148,-0.28828 0.293635,-0.18687 0.603288,-0.35237 0.907601,-0.53389 l 0.224231,0.58192 c -0.331007,0.10686 -0.656677,0.19221 -0.987684,0.25094 z m 9.220159,-13.58731 c -3.763874,0.29363 -7.089966,0.2616 -7.148694,-6.36923 -0.06939,-7.76801 4.804949,-5.8727 8.841104,-6.02754 4.271064,-0.17618 8.616872,0.37905 8.542128,5.99016 -0.06407,6.17703 -4.676815,6.67888 -10.234538,6.41728 z m 11.248916,6.58277 c 0.128134,-0.60862 0.261603,-1.26531 0.400412,-1.92732 l 2.27968,0 c 0.149488,0.70473 0.293636,1.40945 0.533884,2.50926 -1.174543,-0.87558 -2.231632,0.79548 -3.213976,-0.57126 z m 3.117876,8.41933 c -0.03737,0.0266 -0.352363,-0.19753 -0.341684,-0.28829 a 2.0234166,2.0234166 0 0 1 0.309652,-0.62464 c 0.213554,0.22422 0.437784,0.38438 0.41109,0.4538 a 1.0197165,1.0197165 0 0 1 -0.379058,0.46982 z m 0.234909,-0.9076 c -0.363041,-0.56592 -0.747435,-0.95031 -0.672693,-1.09445 a 5.2640866,5.2640866 0 0 1 0.939635,-1.01972 c 0.213553,0.26695 0.64066,0.58727 0.587271,0.79015 a 5.029178,5.029178 0 0 1 -0.854213,1.33471 z m 6.406596,-6.4493 a 3.2032982,3.2032982 0 0 1 -0.18152,-0.43779 l 0.902262,-0.15483 c 0.0267,0.10149 0.05338,0.20288 0.08543,0.30966 a 7.6131717,7.6131717 0 0 1 -0.81684,0.29363 z m 1.660376,-2.30103 c -0.149487,0.43777 -0.26694,0.80081 -0.533882,1.54825 -0.533884,-1.31335 -0.533884,-1.31335 0.523206,-1.53759 z m -0.250924,2.50924 c 0,-0.12813 -0.04271,-0.25627 -0.0694,-0.38973 l 0.944972,-0.19753 c 0,0.12812 0.04806,0.25091 0.06939,0.37905 z m 1.382756,-0.48582 c 0.03737,-0.89159 0.06407,-1.42014 0.09609,-2.13554 l 1.340047,0.53388 z"
       id="path8"
       style="fill:#402377" />
    <path
       d="m 144.56901,307.40939 c -2.95236,-0.32033 -6.22507,1.01971 -8.84643,-1.41479 l -2.66942,0 c -2.24765,2.18358 -4.4953,1.52157 -6.74295,0 l -8.11502,0 c -2.51993,1.79919 -4.32979,3.73718 -4.3031,7.32487 0.12814,18.07194 0.0374,36.14922 -0.12813,54.2265 -0.0427,4.66614 1.60165,6.87107 6.53473,7.05259 9.56718,0.35237 10.31996,-0.15483 10.26124,-9.66328 0,-1.57494 0.22422,-3.2033 0,-4.71419 -0.88092,-5.70186 2.00205,-6.82303 6.94046,-6.40659 5.60045,0.46982 11.30231,0.0909 16.47564,-2.24765 9.39634,-4.27106 13.54461,-14.22799 11.32367,-26.16026 -1.86326,-10.06369 -9.80211,-16.81198 -20.73069,-17.9972 z m 1.74046,14.72984 -0.0961,1.09444 -0.53387,0 c 0,-0.36304 -0.0374,-0.7314 -0.0586,-1.09979 z m -3.48625,-6.40661 -1.24396,1.29734 c -0.29363,-0.3844 -0.42177,-0.47515 -0.43243,-0.58193 -0.11746,-0.91294 0.35769,-1.01438 1.6657,-0.73677 z m -4.80495,2.3651 c -0.16016,0.37906 -0.21889,0.92362 -0.50719,1.10514 a 5.2267147,5.2267147 0 0 1 -1.51623,0.42176 c -0.0586,0.5339 -0.11211,1.00904 -0.17618,1.60166 -1.28133,-1.30267 -1.28133,-1.30267 -0.29897,-3.04313 a 12.813192,12.813192 0 0 1 1.50554,-0.27761 4.0895439,4.0895439 0 0 1 0.97702,0.17083 z m -4.27106,-2.0501 c -0.10149,-0.17085 0.13881,-0.53389 0.21889,-0.82752 l 1.60164,0.62464 c -0.95564,0.89159 -1.47884,0.78481 -1.84188,0.18152 z m 2.27434,-3.4222 c -0.16551,1.26532 -0.16551,1.26532 -4.18565,1.60166 0.92363,-2.02875 2.82424,-0.93431 4.16429,-1.62302 z m -5.41892,-1.06777 c 0.0481,-0.18152 0.68871,-0.19753 1.42013,-0.37905 -0.36304,0.82218 -0.53389,1.2653 -0.76345,1.70842 l -0.53389,0 a 3.7051481,3.7051481 0 0 1 -0.14415,-1.37208 z m -6.45998,0.80617 -1.80987,3.73718 -2.62136,-2.08215 c 1.73512,-0.006 2.16757,-2.6961 4.40988,-1.69775 z m -4.18564,-4.57538 a 8.8144085,8.8144085 0 0 1 0.68871,1.01439 c 0.032,0.064 -0.29898,0.39506 -0.32033,0.38439 a 3.2727029,3.2727029 0 0 1 -0.81685,-0.65668 c -0.0694,-0.0961 0.19755,-0.41642 0.42711,-0.78481 z m 8.2912,19.27319 a 3.7852305,3.7852305 0 0 1 -0.17084,-0.50185 l 1.0037,-0.30966 c 0.0427,0.17083 0.0854,0.34703 0.13347,0.53387 a 9.0760112,9.0760112 0 0 1 -0.98769,0.23492 z m 4.52733,15.05549 c -0.11745,-0.10686 -0.23491,-0.21355 -0.35771,-0.31499 a 1.4094512,1.4094512 0 0 1 1.69242,-1.06777 z m 4.94908,-4.98112 c -3.77988,0.29363 -7.12732,0.28829 -7.18605,-6.35322 0,-0.49116 0,-0.93963 0.0427,-1.35607 a 1.3240299,1.3240299 0 0 1 -0.16551,0.19221 c -0.82751,-0.85954 -0.84353,-1.56961 0.27762,-2.56798 0.0534,0.26694 0.11212,0.53389 0.15483,0.74744 a 3.7745529,3.7745529 0 0 1 1.98604,-2.66943 c -0.53387,-0.2616 -1.06776,-0.53387 -1.60164,-0.73675 a 1.2973357,1.2973357 0 0 0 -0.93964,0.0266 c -0.63532,0.34168 -1.21726,0.7848 -1.86859,1.21726 l -1.06776,-0.80079 c 0.0534,0.71007 0.0854,1.12649 0.12279,1.60164 l -1.7458,0.65134 c 0.14949,0.44312 0.27228,0.80083 0.34702,1.01438 l -1.54292,3.00576 -2.98974,-2.07147 c 0.048,-0.13881 0.18685,-0.57125 0.33634,-1.03038 -0.50185,-1.01439 -1.92732,-1.56963 -1.32936,-3.20331 0.34702,-0.97167 -0.98234,-0.80083 -1.60166,-1.11048 1.06777,-1.19589 1.70844,-1.19055 3.34212,0 l 0.63531,-1.29199 a 12.215244,12.215244 0 0 1 3.73719,0.81149 5.370863,5.370863 0 0 0 5.09858,-0.24024 c -0.24559,-0.36303 -0.49118,-0.71539 -0.79015,-1.14785 l 1.80987,-1.92732 2.44518,1.60166 -1.6764,0.82752 c 0.11212,0.70471 0.1922,1.20657 0.27763,1.71375 l 1.01437,-0.42176 a 0.87022931,0.87022931 0 0 1 -0.31499,1.06776 c 1.50022,-0.14947 3.23534,0.10686 4.83697,0.0426 4.27108,-0.17085 8.62222,0.36839 8.54214,5.98483 -0.0747,6.12898 -4.67148,6.65218 -10.20784,6.3799 z m 9.79142,-11.44113 c -0.11746,-0.77946 -0.21354,-1.43613 -0.32567,-2.1996 0.69406,-0.30964 1.09447,-0.17083 1.25463,0.63533 0.11211,0.65667 0.53389,1.44682 -0.95031,1.52158 z m 12.8132,-5.02916 c -0.10148,-0.30432 -0.20288,-0.61398 -0.29897,-0.91829 l 0.37905,-0.0855 a 7.2554702,7.2554702 0 0 1 0.24025,0.82218 c -0.006,-0.006 -0.21889,0.0747 -0.331,0.1388 z"
       id="path10"
       style="fill:#402377" />
    <path
       d="m 96.829194,324.86203 c -0.170842,-1.51089 -1.772491,-3.11255 -2.381118,-4.71418 l -0.144148,-0.28296 c -0.32567,-0.65669 -0.645999,-1.292 -0.955651,-1.90063 l -0.144149,-0.29365 c -0.533883,-0.50719 -1.137171,-1.06776 -1.713764,-1.62833 a 0.98768358,0.98768358 0 0 0 -0.309652,0.67802 l -0.395073,-0.13346 c -0.176182,-0.43246 -0.357702,-0.87023 -0.533884,-1.30267 0.149488,-0.0374 0.293636,-0.0855 0.443124,-0.12814 -1.067767,-1.26529 -1.799187,-2.7495 -1.489535,-4.59138 a 27.147951,27.147951 0 0 1 -3.982766,-0.20822 l -15.349137,0 -2.252986,4.45257 a 1.4575006,1.4575006 0 0 1 0.331007,0.77414 l 3.310074,0 c -0.256263,0.45914 -0.347024,0.81683 -0.485833,0.83819 a 24.788188,24.788188 0 0 0 -4.457924,0.98236 l -3.683793,7.32485 c 0.03737,0.1762 0.07474,0.35772 0.117454,0.5339 l -0.352362,-0.0747 c -2.354425,4.69282 -4.804948,9.6099 -6.71091,13.34707 l -0.533883,1.06776 c -1.740458,3.50228 -2.274344,7.23947 -2.56798,10.85384 l 0,17.20707 c -0.758114,5.87269 3.512952,5.33882 8.147057,5.87269 l 10.474784,0 8.595518,-12.2793 8.328574,12.2793 11.654666,0 c 2.226296,0.50187 4.361826,-1.63368 6.726926,-0.28828 l 0,-0.11212 a 34.574264,34.574264 0 0 0 0.29897,-5.63247 c 0,-0.10685 0,-0.21354 0,-0.32032 l 0,-22.4391 c 0,0 -5.15731,-10.26123 -9.83412,-19.57749 -0.04806,-0.10149 -0.10144,-0.21356 -0.149487,-0.30431 z m -5.739242,-1.51089 c 0.710064,0.24557 0.533882,0.77946 0,1.8152 l -0.838197,-1.52157 c 0.282958,-0.10674 0.619305,-0.37371 0.838197,-0.29363 z m -1.703087,-2.38112 0.613965,0 c -0.03737,0.48049 -0.06939,0.96098 -0.117453,1.66571 -0.902262,-0.64066 -0.907601,-1.13184 -0.49651,-1.67105 z m -3.480917,-6.84973 c 0.04806,0.1762 0.09077,0.34703 0.138809,0.5339 -0.352362,0.0749 -0.710064,0.15481 -1.067767,0.20287 a 1.2973357,1.2973357 0 0 1 -0.106777,-0.33636 c 0.336346,-0.16016 0.688709,-0.28296 1.035733,-0.40573 z m -10.752404,-1.44681 0.421766,0.37905 -0.939633,0.95566 -0.293636,-0.25626 z m -5.942119,14.34009 c 0.395073,0.85954 0.699387,1.51623 0.998361,2.1729 l -0.352362,0.29899 -1.724441,-1.17455 z m -5.466961,-3.73719 c -0.10144,-0.18152 0.245585,-0.60328 0.389735,-0.91292 l 0.395073,0.0801 c 0.133471,0.46448 0.261602,0.9343 0.533882,1.83656 -0.704724,-0.49116 -1.153186,-0.66736 -1.31869,-0.99303 z m 20.661271,19.85512 c -0.971666,-0.19754 -0.779468,-1.292 -0.928955,-2.13553 l 2.295697,0.42176 c -0.32567,0.82752 -0.293635,1.94334 -1.366742,1.72445 z m -19.545456,18.2321 -0.08008,0 0,-13.73147 9.802092,-19.51343 0.144147,-0.29362 c 1.110478,-4.47394 3.24601,-6.60947 7.517073,-5.5417 a 4.0895439,4.0895439 0 0 0 0.18152,1.10513 l 0.224231,0.43778 3.544983,7.05793 z m 29.763978,0 -0.0267,0 -3.027117,-4.45258 -0.208215,-0.30964 a 23.106457,23.106457 0 0 0 -1.82588,-2.06614 l -0.186858,-0.19753 c -2.301036,-1.62301 -2.834919,-3.75854 -0.539223,-5.89407 l 0.165504,-0.2349 3.448885,-4.92775 2.199598,4.36715 z m 3.33143,-20.7627 c 0.181521,0.38972 0.405752,0.67268 0.341684,0.78481 a 1.4895337,1.4895337 0 0 1 -0.683369,0.59794 c -0.08543,0.0374 -0.533883,-0.41642 -0.485834,-0.45379 a 8.3445915,8.3445915 0 0 1 0.827519,-0.91829 z"
       id="path12"
       style="fill:#009c7c" />
    <path
       d="m 166.77321,283.95058 c -5.64315,1.76714 -11.85755,1.60163 -14.75653,-4.14829 -3.87065,-7.70393 -3.31542,-16.27809 0.50719,-23.94998 3.27803,-6.57744 9.706,-5.0452 15.48262,-4.06819 3.0538,0.53388 4.5113,-0.34703 4.96509,-3.2033 -0.18152,0.0695 -0.3577,0.14416 -0.53387,0.20288 a 3.83328,3.83328 0 0 1 -0.32033,-0.63533 l 0.96633,-0.41642 a 0.58727132,0.58727132 0 0 0 0,-0.0961 c 0.83285,-10.67764 0.41107,-11.74542 -8.2645,-15.30642 l -10.78445,0 c -0.19753,1.5269 -1.51623,1.36142 -2.50926,1.6497 -10.94459,3.2033 -17.21771,10.4481 -19.48672,21.61159 a 46.661374,46.661374 0 0 0 -0.80617,8.35527 l 0,0.49118 c 0.0694,2.86693 0.0694,5.53635 -0.10674,8.36059 l 0,0.49653 c -0.032,13.92899 9.4604,28.45062 26.24568,28.70688 l -0.32032,-0.45914 1.80985,-1.92732 2.44519,1.60166 -1.4575,0.72074 c 0.88624,-0.0586 1.78852,-0.13881 2.71748,-0.27762 11.06204,-1.65504 11.00866,-0.99837 11.3984,-12.41278 0.19219,-6.0756 -1.94334,-6.94583 -7.19142,-5.29613 z m -32.20917,-12.96804 -0.19219,-0.42176 0.977,-0.40041 c 0.0694,0.16551 0.13881,0.33101 0.20288,0.49651 z m 0.72608,-21.61691 c -0.0374,0 -0.42176,-0.44312 -0.3737,-0.53388 a 1.4895337,1.4895337 0 0 1 0.66735,-0.6033 c 0.11746,-0.048 0.36836,0.22424 0.72608,0.45915 a 8.0082452,8.0082452 0 0 1 -1.03574,0.67803 z m 2.96305,38.21535 a 2.5145889,2.5145889 0 0 1 -0.87023,-0.10149 c 0.18152,-0.29897 0.29899,-0.69938 0.56592,-0.86489 0.26694,-0.16549 0.61397,0 0.92895,0.032 l 0.11212,0.42176 a 2.6694151,2.6694151 0 0 1 -0.73677,0.51254 z m 7.31421,0.62999 c -0.048,-0.0535 0.21889,-0.37373 0.44312,-0.74212 a 8.9692347,8.9692347 0 0 1 0.69404,1.01439 c 0.0266,0.0641 -0.30432,0.39506 -0.32565,0.38439 a 3.3421077,3.3421077 0 0 1 -0.81151,-0.66735 z m 2.8189,7.57579 -2.61602,-2.08215 c 1.75647,0.032 2.18891,-2.6694 4.43122,-1.66036 z m 8.40333,-3.2033 a 3.5930327,3.5930327 0 0 1 -0.12814,-1.3454 c 0.048,-0.18152 0.68871,-0.19753 1.42011,-0.37905 l -0.76345,1.70844 z m 1.10513,1.34538 c 0.94497,-2.00739 2.8456,-0.91294 4.18563,-1.60166 -0.16551,1.25463 -0.16551,1.25463 -4.18563,1.59099 z m 1.90595,1.82055 c -0.10148,-0.17085 0.13881,-0.5339 0.22423,-0.82752 l 1.60166,0.62464 c -0.9343,0.90226 -1.43615,0.79547 -1.82589,0.19219 z m 3.77456,3.15523 a 5.2106981,5.2106981 0 0 1 -1.52156,0.42179 c -0.0534,0.53387 -0.10675,1.00904 -0.1762,1.60164 -1.28131,-1.30267 -1.28131,-1.30267 -0.29362,-3.04313 a 12.738448,12.738448 0 0 1 1.50022,-0.27762 4.0895439,4.0895439 0 0 1 0.993,0.17618 c -0.14947,0.38439 -0.21354,0.92896 -0.50184,1.11048 z m 4.07352,-2.17289 c -0.29897,-0.3844 -0.42176,-0.47515 -0.43778,-0.58193 -0.10674,-0.89159 0.3844,-0.99303 1.6764,-0.71542 z"
       id="path14"
       style="fill:#402377" />
    <path
       d="m 232.26464,293.86477 c -5.02384,-9.4604 -9.8982,-19.0169 -15.3171,-28.24774 -1.98071,-3.37415 -1.49488,-5.51501 0.6887,-8.23781 4.47395,-5.58442 8.9372,-11.21155 13.01073,-17.08426 3.14991,-4.50064 2.0074,-6.10229 -3.40617,-6.63617 -9.43905,-0.94498 -17.21773,0.87022 -21.4888,10.60292 -1.30267,2.96839 -3.88132,5.41357 -7.07928,9.68464 l 0,-9.97294 c 0,-9.51913 -1.60165,-10.83249 -10.9446,-9.87684 -4.90639,0.49651 -7.41564,2.45052 -6.77498,7.69859 0.30432,2.43451 0.10148,4.93308 0.11211,7.40496 0.0747,15.41855 -0.10674,30.84242 1.32404,46.2236 0.25092,2.66942 0.34701,4.69282 3.57701,5.43493 10.368,2.38112 13.60868,-0.20287 13.12819,-10.74173 -0.2189,-4.85833 -0.9343,-9.90353 4.36182,-13.03743 2.42917,4.50598 4.98114,8.9639 7.28216,13.54996 5.30147,10.57621 5.73925,10.88587 17.57544,10.25056 5.92609,-0.32035 6.77497,-1.74047 3.95073,-7.01524 z m -45.91395,6.47068 c -0.0961,-0.30432 -0.19753,-0.61398 -0.29897,-0.91829 l 0.37905,-0.0855 a 8.5741612,8.5741612 0 0 1 0.24559,0.82219 c 0.048,0.0374 -0.17084,0.11746 -0.28295,0.18152 z"
       id="path16"
       style="fill:#402377" />
    <path
       d="m 47.311542,274.17517 a 19.086317,19.086317 0 0 0 5.274765,-6.47066 c 0.08008,-0.14949 0.154826,-0.30431 0.234909,-0.46448 a 2.6694151,2.6694151 0 0 1 0.854214,-1.92732 c 0.06407,-0.16016 0.122787,-0.32567 0.186859,-0.49117 2.034095,-5.48831 2.333068,-11.88958 0.186859,-16.90807 -3.534306,-8.25918 -9.652607,-14.30807 -19.470715,-15.05551 -1.356063,-0.10686 -3.256687,0.92896 -3.945395,-1.33471 l -2.669415,0 a 9.5191341,9.5191341 0 0 1 -2.194259,1.1265 1.067766,1.067766 0 0 1 0.336345,0.67804 c 0.138811,0.69938 0.533884,1.48953 -0.928956,1.56426 -0.128133,-0.69938 -0.218892,-1.30801 -0.320329,-1.9807 -2.135532,0.48584 -4.239032,0 -6.353208,-1.3881 l -7.266148,0 -0.06407,0.0266 c 0.117454,0.70473 0.197536,1.20657 0.277619,1.71377 l 1.019716,-0.42177 c 0.368379,1.21192 -0.91294,1.1425 -1.313352,1.83121 -0.747436,-0.36304 -1.4948723,-0.76344 -2.2796803,-1.06776 a 1.2973357,1.2973357 0 0 0 -0.9503119,0.0534 c -0.6353206,0.34169 -1.2119143,0.78481 -1.8632516,1.21725 l -1.0677665,-0.80082 c 0.053388,0.71007 0.085422,1.1265 0.1227933,1.60166 l -1.7297809,0.65133 c 0.154826,0.44312 0.2722803,0.80083 0.3470238,1.01439 l -1.537583,3.02177 -1.37741811,-0.95031 c -0.18152023,18.18939 -0.60862663,36.37344 -0.79548569,54.57352 0,2.6267 0.58727132,5.33884 4.084205,6.05423 10.4694469,2.2263 14.3027269,-0.80082 14.2279829,-11.47314 0,-1.79384 -0.154827,-3.59838 0,-5.38154 0.128133,-1.56428 -0.96099,-4.00947 1.884607,-4.13226 1.948673,-0.0855 4.126915,-1.09979 5.338829,2.21562 1.537583,4.13758 4.271065,7.8374 6.406597,11.74542 4.42055,7.96555 12.391426,10.67766 20.623902,6.94048 2.439846,-1.10514 2.402474,-2.73882 1.163865,-4.86368 -2.669416,-4.62875 -5.050535,-9.44438 -7.874777,-13.9824 -1.857912,-3.04313 -1.745796,-4.54867 1.430807,-6.93513 z M 5.8982377,236.2588 c 0,0 -0.106776,-0.32567 -0.1655038,-0.50185 l 0.9983613,-0.30966 c 0.048049,0.17084 0.09076,0.34703 0.1334707,0.53388 a 8.7289872,8.7289872 0 0 1 -0.9663282,0.27763 z m 2.135532,2.55729 c -0.8275187,-0.85954 -0.8435351,-1.56961 0.2776192,-2.56797 0.2562639,1.0998 0.5125277,1.83656 -0.2776192,2.56797 z m 2.3597633,12.4982 -0.357702,-0.31498 a 1.4041123,1.4041123 0 0 1 1.692409,-1.06776 z m 0.987683,-13.53393 c -0.475156,-1.06776 -0.624643,-1.60164 0.112115,-1.78851 0.22423,-0.0586 0.533883,0.2189 0.811502,0.3417 z m 2.776191,8.34993 c -0.234907,-0.36837 -0.491171,-0.58726 -0.464477,-0.76345 a 0.84887398,0.84887398 0 0 1 0.496512,-0.53388 c 0.128132,-0.0426 0.533882,0.28296 0.533882,0.34168 a 5.1893429,5.1893429 0 0 1 -0.544561,0.95565 z m 1.526907,-8.23248 c -0.298975,-1.52156 -1.484196,-1.4308 -2.632044,-1.60164 l 2.135533,-1.85792 c -0.06407,0.99836 2.263664,1.63368 0.517866,3.45956 z m 1.767153,-1.24928 c 1.014377,-0.53388 1.510888,0.2189 2.076803,0.53388 a 1.1905591,1.1905591 0 0 1 -0.186858,0.96634 c -0.437784,0.20288 -0.742097,0.0801 -0.491172,-0.57126 0.04271,-0.0909 -0.838196,-0.55524 -1.398773,-0.92896 z m 8.301879,25.30606 c -3.534305,0.19753 -7.303518,1.13184 -7.239453,-5.27476 0.06407,-5.94746 2.087483,-7.44234 7.426314,-6.4066 4.062849,0.33634 9.85548,-1.46817 10.047677,5.37087 0.192198,7.12733 -5.803308,6.08091 -10.234538,6.31049 z"
       id="path18"
       style="fill:#402377" />
    <path
       d="m 9.4111879,232.20663 -0.4751559,-0.68338 -3.9187015,0 a 3.4755784,3.4755784 0 0 1 -0.7207421,0.91828 5.370863,5.370863 0 0 0 5.1145995,-0.2349 z"
       id="path20"
       style="fill:#60575d" />
    <path
       d="m 58.800706,263.87658 c -2.610687,3.95073 -1.542921,7.15402 0.437784,10.18648 0.05338,0.0855 0.10144,0.17618 0.149488,0.26694 l 4.740881,8.50475 0.165503,0.29898 a 21.654294,21.654294 0 0 1 1.665717,2.0768 l 2.27434,-0.99303 0,-0.0747 -1.035732,-0.63532 c 0.928955,-0.27761 1.82054,-0.69404 3.112538,0.33102 l -2.071466,0.29897 0.05873,0.0426 -0.09077,0.0374 c -0.347024,0.88091 -0.694048,1.78317 -1.099798,2.82424 a 31.920865,31.920865 0 0 1 2.589333,5.83535 l 0.144148,0.25627 c 2.311713,4.15894 3.988105,7.15937 3.988105,7.15937 l 21.510146,0 c -0.04806,-0.19755 -0.09075,-0.39508 -0.144147,-0.59796 l 1.505551,0 0,0.59796 5.717883,0 c 5.55772,1.70308 8.76102,-1.50022 10.66164,-6.27847 l 0.14949,-0.28296 10.93927,-19.63621 c 0.0854,-0.15483 0.17617,-0.30966 0.25626,-0.45915 2.77085,-3.67311 2.77085,-6.34253 -0.10674,-10.31461 l -0.27763,-0.5339 -6.75896,-12.18854 -0.74742,-1.34004 c -1.60166,-2.78687 -3.20331,-5.4563 -4.60208,-8.32325 l -0.53388,-0.92361 c -1.1265,-2.03944 -1.83656,-3.31541 -1.83656,-3.31541 l -6.16635,0 c -5.563055,1.76181 -9.300237,1.22794 -14.820586,0 l -0.928957,0 a 11.996351,11.996351 0 0 1 -5.33883,0.9503 l -0.459139,-0.0266 c -2.669416,-0.22423 -5.33883,-1.82589 -8.189766,-1.21192 l -0.04806,0.0855 c -0.859551,0.36838 -0.859551,1.97004 -1.767153,3.20329 l -0.186858,0.42711 c -0.240248,0.58193 -0.45914,1.17455 -0.704727,1.79919 -0.192197,0.34703 -0.389735,0.71007 -0.597948,1.06777 l -4.98113,9.01196 c -0.08543,0.15482 -0.170842,0.30429 -0.250924,0.45913 -1.457501,2.55195 -1.991383,5.75527 -4.062849,7.81071 l -0.256264,0.40576 q -0.635321,1.0197 -1.334708,1.99672 l -0.213553,0.37905 -0.202876,0.36836 z m 30.020243,24.72945 -2.263664,-1.34539 c 0.875568,-0.4271 1.697748,-0.53388 2.375779,0.17619 0.170843,0.17617 -0.05872,0.73675 -0.112126,1.1692 z m 9.102706,4.50064 c 0.715402,0.11211 1.201235,0.34702 1.340044,0.71006 a 11.798814,11.798814 0 0 1 0.662016,2.66941 c 0,0.20822 -0.533883,0.48583 -1.147849,1.01438 -0.341684,-1.75113 -0.597947,-3.07518 -0.854211,-4.39385 z m -5.760599,-5.3068 c -0.731419,0.38974 -1.281319,0.40041 -1.751136,0 l -1.372079,0 0.678031,-1.01973 -0.04271,-0.0855 0.1228,-0.032 11.745428,-18.07194 -12.546252,-19.40131 13.224282,0 2.1035,3.80658 0.15483,0.26695 c 0.60328,1.01437 1.15318,2.13553 1.72978,3.23533 0.0694,0.14415 0.14414,0.28829 0.21889,0.42711 0.97167,3.7959 2.97373,6.40659 5.23739,9.46574 l 0.29898,0.40042 c 0.28295,0.50184 0.81684,1.03573 0.8115,2.02874 l -0.0801,0.14415 c -1.51623,2.60001 -2.58399,4.73555 -4.0148,7.26615 -0.0641,0.10685 -0.1228,0.21356 -0.18152,0.32033 -0.95031,1.70843 -1.94334,3.48625 -2.8456,5.1146 l -0.22423,0.40041 c -1.50555,2.95238 -3.32075,5.76594 -6.433292,5.87273 0.05338,0.48582 -0.416427,0.77411 -1.601648,1.48418 0.170842,-0.61396 0.304314,-1.11048 0.432445,-1.56961 l -0.293635,-0.048 -5.392219,0 z m -1.382756,1.06776 c -0.112125,0.80617 -0.325669,1.54826 -1.633683,1.20657 z m -4.372503,6.44398 3.310075,0 c 0.27762,-1.66573 1.601649,-0.82752 2.482556,-0.95566 l 1.137171,3.03779 c -0.469816,0.1655 -0.629982,0.28296 -0.710064,0.24559 a 20.356958,20.356958 0 0 0 -5.739243,-1.51623 c -0.138809,0 -0.224231,-0.36304 -0.480495,-0.82218 z m -2.96839,-7.66656 c -0.347024,-1.13718 0.352364,-1.63369 1.025056,-2.24231 l 1.014379,2.24231 z m -1.350723,5.14661 0.427106,-0.37905 0.811502,1.06777 -0.298974,0.25627 c -0.309651,-0.32032 -0.624643,-0.64067 -0.939634,-0.95566 z m -0.459138,-4.11624 c 0.72608,0.34703 1.569616,0.064 1.77249,1.13184 -0.758113,-0.0214 -1.639021,0.53389 -1.77249,-1.15852 z m -0.950312,-1.60163 c 0.26694,-0.91829 0.469816,-1.60166 0.784808,-2.7228 0.72608,1.56961 0.678029,1.71376 -0.784808,2.6961 z m -6.721589,-2.13553 a 7.7146095,7.7146095 0 0 1 1.249287,-1.77783 c 0.09075,-0.10686 0.448461,0 0.597949,0 -0.202876,1.12649 -0.379057,2.13553 -0.581933,3.28872 -1.308013,-0.52321 -1.585632,-0.77414 -1.265303,-1.53759 z m -2.338406,9.42836 0.144147,-0.53387 c 0.347024,0.1228 0.694048,0.24559 1.035734,0.38439 a 1.2973357,1.2973357 0 0 1 -0.106777,0.33634 c -0.357702,-0.032 -0.715402,-0.13346 -1.073104,-0.20822 z m 0.03737,-5.71788 1.372079,0.68872 c -1.233269,0.24559 -1.233269,0.24559 -1.372079,-0.68872 z m -1.158526,-20.07934 7.474363,-13.47521 5.338829,8.30188 0.197537,0.30965 c 0.982344,1.45216 2.050111,3.05382 3.363463,4.87436 0,0 -0.03205,0.048 -0.08543,0.14948 a 24.366421,24.366421 0 0 1 -3.870653,5.58976 l -0.208215,0.31498 c -1.95935,1.73512 -2.493233,5.47231 -5.162647,7.07396 0,-0.53389 0,-1.06776 -0.379058,-1.14252 l -0.261603,-0.45913 z"
       id="path22"
       style="fill:#009c7c" />
    <path
       d="m 385.69728,382.41995 c -5.52036,0.7688 -3.04313,5.93678 -3.32609,9.34829 -0.62465,7.47436 0.69938,15.05016 -0.7955,22.51385 -0.53387,-0.19754 -1.36673,-0.32033 -1.45749,-0.646 -2.47188,-8.61153 -6.68421,-16.50766 -10.14379,-24.71345 -3.03245,-7.20741 -9.076,-8.83576 -16.29944,-5.38688 -2.8456,1.36141 -5.58976,1.20124 -5.61111,5.61112 -0.0801,17.65551 -0.44846,35.31636 -0.9343,52.96654 -0.17618,6.54539 3.9721,6.33718 8.46205,6.2998 4.33513,-0.0374 8.75035,0.68338 8.54213,-6.08091 -0.14949,-4.45259 -0.1655,-8.90518 -0.1388,-13.34708 l -0.35772,0.36837 c -0.36304,0.37372 -0.71006,0.75812 -1.06776,1.13718 l -0.19219,-0.14415 c 0.50185,-1.0998 1.00904,-2.19425 1.60163,-3.42219 l 0.0535,0.0586 c 0,-3.43819 0.0586,-6.87641 0.0586,-10.33063 1.87927,0.2883 2.02875,1.37208 2.3491,2.4879 2.41314,8.34458 4.92772,16.65714 8.46737,24.612 0.78481,1.76181 1.27064,3.73719 3.58235,4.47394 12.57295,4.09488 19.39063,-0.53387 19.87112,-13.67274 0.11748,-3.1339 -0.032,-6.29448 0.32033,-9.39634 0.19755,-1.77248 -1.30266,-4.10557 1.3187,-5.30146 l 0,-32.37467 c -2.80823,-7.17538 -9.11872,-5.78194 -14.30272,-5.06121 z m -29.16604,48.19896 -1.76181,-0.0855 c -0.048,-1.60165 0,-1.60165 1.15319,-1.33471 0.60329,0.14415 1.22259,0.24559 1.92731,0.38439 0.0855,0.95032 0.16551,1.84724 0.25094,2.80823 -0.98769,-0.18152 -0.80617,-1.23862 -1.56963,-1.7725 z m 3.99346,3.78523 c -0.65669,-1.06776 -0.65669,-1.06776 0.62464,-1.69775 0.46448,0.83287 0.14414,1.32937 -0.62464,1.69241 z m 1.1158,3.09652 c -0.53387,-0.86489 -0.24025,-1.60164 0.38974,-2.4078 0.95566,1.5963 0.95566,1.5963 -0.38974,2.4078 z m 1.42548,-10.04234 a 8.8144085,8.8144085 0 0 1 -0.62999,0.99836 c -0.81685,-1.15318 -1.51088,-2.13553 -2.28502,-3.20329 0.1228,-0.37906 0.30431,-0.95031 0.49651,-1.52691 1.25462,0.57126 1.45216,1.01438 1.30268,2.95238 l 1.24394,0 a 3.5876938,3.5876938 0 0 1 -0.12812,0.77946 z m 12.68506,12.8132 -0.16017,-0.35238 0.8382,-0.39506 0.17617,0.3844 z m 4.55936,4.9918 a 1.195898,1.195898 0 0 1 -1.01439,-0.0855 12.183211,12.183211 0 0 1 -1.4308,-1.23327 l 2.20494,-1.36673 a 15.034146,15.034146 0 0 1 0.43244,1.75647 c 0.032,0.30965 -0.016,0.82752 -0.19754,0.92896 z m 1.17988,-29.29949 c 0.0374,-0.35238 0.0907,-0.70473 0.1388,-1.06777 0.048,0.37905 0.0908,0.75277 0.13882,1.12649 a 2.263664,2.263664 0 0 1 -0.28296,-0.0586 z m 1.8152,29.85473 -0.29897,-0.0641 c 0.0695,-0.331 0.1388,-0.65667 0.20286,-0.98768 l 0.36304,0.0908 c -0.0961,0.32032 -0.18152,0.64066 -0.27227,0.96099 z m 1.27597,3.22999 c -0.15482,-0.99302 -0.15482,-0.99302 0.97702,-0.88624 z m 0.44314,-2.09816 c -0.32568,-0.1228 -0.66736,-0.16016 -0.8382,-0.34702 a 0.87022931,0.87022931 0 0 1 -0.18687,-0.77413 c 0.36839,-0.6033 0.89694,-0.85421 1.66572,-0.27228 -0.17619,0.42176 -0.40041,0.84887 -0.646,1.39343 z m 3.51294,-9.66328 c -0.064,-0.72608 -0.064,-0.72608 2.01808,-0.58193 z m 6.02754,4.14826 -0.29363,-0.17617 0.43244,-0.81151 0.37372,0.2616 z m -0.20821,-19.75366 c -0.032,0 -0.14949,-0.28296 -0.14415,-0.28829 0.29897,-0.18687 0.60329,-0.35237 0.9076,-0.53389 l 0.22424,0.58194 c -0.315,0.10686 -0.646,0.19219 -0.97702,0.25092 z"
       id="path24"
       style="fill:#402377" />
    <path
       d="m 333.88927,380.73821 -10.78445,0 c -2.37043,2.66943 -2.5733,5.93679 -2.53059,9.30559 0.13346,10.98197 0.34168,21.96395 0.21889,32.94592 -0.0747,6.62015 -2.92568,9.34296 -8.73967,9.1294 -6.02219,-0.22423 -8.00825,-3.91871 -8.00825,-9.36964 -0.0801,-10.74707 -0.0746,-21.49413 -0.35235,-32.2412 -0.1388,-5.21604 -1.8419,-7.94419 -6.18237,-9.77007 l -6.7643,0 c -4.36181,1.62835 -5.4029,4.853 -5.20535,9.28423 0.56058,12.31668 0.67803,24.65472 1.11581,36.98208 0.44846,12.77048 6.60414,20.074 18.98488,22.16148 a 49.341468,49.341468 0 0 0 16.75858,-0.10674 c 9.14008,-1.60166 14.94872,-8.23248 15.7015,-17.5701 1.11582,-13.85425 1.01439,-27.76191 1.11582,-41.64287 0.0266,-4.29776 -0.96632,-7.57579 -5.32815,-9.10804 z"
       id="path26"
       style="fill:#402377" />
    <path
       d="m 36.810064,410.03239 c -0.533883,-0.28296 -1.067766,-0.5339 -1.601649,-0.77414 -0.234909,0.0586 -0.464478,0.11211 -0.704726,0.15483 -0.03205,0 -0.149487,-0.28296 -0.144148,-0.28831 l 0.234908,-0.13346 c -3.395496,-1.42547 -6.940479,-2.13554 -10.469445,-3.2033 -1.137171,-0.34702 -2.882968,-0.65134 -2.840257,-2.37578 0.04806,-2.0341 1.72978,-2.32772 3.32609,-2.51459 a 32.85516,32.85516 0 0 1 13.880959,1.45216 c 0.928956,0.85421 1.868591,2.32773 2.73882,-0.0426 0.747436,-0.14413 1.4575,-0.32033 1.398773,-1.31868 0.336347,-0.13348 0.934295,-0.23492 0.96099,-0.4111 0.112114,-0.8115 -0.464479,-0.83286 -1.067767,-0.70472 l -0.224231,-0.12814 c -0.03737,-1.84188 0.800825,-3.73716 -0.229569,-5.52569 2.023416,-8.61687 -4.399196,-10.82179 -10.234538,-13.4752 l -13.443174,0 c -0.266942,0.32567 -0.480495,0.84353 -0.811502,0.94497 Q 1.6271733,386.34933 1.1253233,401.71448 c -0.1601649,5.33883 0.7634527,9.60989 2.9256789,13.01073 l 0.048049,-0.0961 0.9823446,1.06777 -0.1921979,0.19753 c 2.5786552,3.36346 6.5347281,5.81934 12.0390631,7.58114 2.541282,0.8115 5.167986,1.33471 7.751981,2.00741 1.783169,0.46447 3.961412,1.15851 3.827942,3.13922 -0.1228,1.79385 -2.135534,2.79755 -4.036156,2.9844 -1.286659,0.12814 -2.567978,0.21357 -3.843958,0.24559 0,0.0587 0,0.11746 0.03202,0.17618 0.03737,0.30966 0,0.82752 -0.192197,0.92896 a 1.195898,1.195898 0 0 1 -1.014378,-0.0855 8.6489047,8.6489047 0 0 1 -1.211914,-1.03574 26.694151,26.694151 0 0 1 -5.402896,-0.69938 l -0.224231,0.30432 -0.352363,-0.33635 0.09075,-0.0855 a 20.618562,20.618562 0 0 1 -6.5133681,-3.02701 c -3.1659264,-2.20494 -5.03451698,-1.78316 -5.33883029,2.23164 -0.20287554,2.92033 -0.30965215,5.8727 -0.38973459,8.77702 a 1.857913,1.857913 0 0 1 0.58727131,0.97702 2.5199279,2.5199279 0 0 1 -0.61930429,0 c 0,1.00904 -0.04804948,2.02341 -0.07474362,3.03245 -0.10143778,3.91871 1.64435968,6.2144 5.71788728,6.85505 8.1684103,1.28667 16.3261423,1.6764 24.4625203,0.24559 l 0.304313,-0.18152 a 0.92895644,0.92895644 0 0 1 0,0.11747 c 0.421768,-0.0746 0.848874,-0.15483 1.270641,-0.24024 0.581934,-0.11747 1.147849,-0.25094 1.703087,-0.40042 a 2.6694151,2.6694151 0 0 1 -0.138809,-1.69774 c 0.293635,0.4538 0.50185,0.77413 0.710064,1.10513 a 4.9704508,4.9704508 0 0 1 1.436145,0 c 0.459139,-0.16016 0.918279,-0.32567 1.356064,-0.50719 l -1.067767,-0.11746 0,-1.43615 c -0.4538,0.53388 -0.736759,0.90227 -1.035734,1.27064 -1.131831,-0.1922 -1.313351,-0.95565 -1.222591,-1.95401 -1.681731,0.49652 -1.372079,2.13553 -2.108837,3.2033 l -1.468179,0 c 0.533883,-1.11582 -0.950312,-2.1035 0.08543,-3.2994 -0.533882,-0.25626 -0.902263,-0.60329 -1.286659,-0.60329 -1.905961,0 -1.905961,0.032 -3.203297,-0.56591 a 4.0575109,4.0575109 0 0 1 -0.06407,-0.53389 6.6788766,6.6788766 0 0 1 0.09077,-0.72608 l 1.414791,0.71007 c 0.533883,-0.27228 -0.08008,-1.60166 1.201238,-1.24928 0.03737,0.331 0.07474,0.67269 0.112126,1.03573 l 2.669414,0.77947 0.667355,-1.06778 0.320329,0.0747 0,1.66038 c 0.811503,-0.76345 0.811503,-0.76345 0.266942,-2.13553 l 2.071466,-0.68871 1.350724,0.5766 c -0.04271,0.74742 -0.08543,1.56428 -0.133471,2.42916 l 2.423829,2.18892 c 0.432445,-0.20286 0.848874,-0.42176 1.254625,-0.64598 a 1.6550373,1.6550373 0 0 1 -0.245585,-1.03574 c 0,-0.17086 0.475154,-0.47516 0.704725,-0.44847 0.49651,0.064 0.977005,0.16551 1.441484,0.26695 0.218891,-0.16551 0.432445,-0.33102 0.640659,-0.50185 l -0.576594,-0.16017 c 0.197537,-0.50184 0.32567,-0.82752 0.533884,-1.28666 l 0.736758,0.87022 a 16.6091,16.6091 0 0 0 4.55936,-6.9992 3.5343056,3.5343056 0 0 1 -1.131832,0.14949 c -0.208213,0 -0.373716,-0.53389 -0.533882,-0.8115 0.234909,-0.13347 0.533882,-0.43778 0.68871,-0.37371 0.565915,0.24024 0.416427,-0.20822 0.533882,-0.43779 a 13.469868,13.469868 0 0 1 0.891585,-1.13717 c 0.06941,0.1228 0.133471,0.2349 0.192198,0.34702 0.160165,-0.69405 0.298975,-1.40945 0.400411,-2.13553 1.430807,-11.12079 -2.306373,-18.69659 -11.190187,-23.48551 z m -16.496986,33.93893 -0.838195,-0.71006 0.293635,-0.37906 1.23327,0.11747 z m 2.525267,-2.09816 c -0.331006,0.40576 -0.341685,0.40042 -1.318691,0.53388 l 1.201238,-1.0197 c 0.0694,0.28828 0.154825,0.43778 0.117453,0.48582 z m 0.624644,-8.3339 -0.298974,-0.064 c 0.0694,-0.33102 0.138809,-0.65669 0.202874,-0.9877 l 0.363041,0.0908 c -0.09077,0.32032 -0.176181,0.64065 -0.266941,0.96098 z m 1.27598,3.22998 c -0.154826,-0.99302 -0.154826,-0.99302 0.977006,-0.88624 z m 0.443123,-2.09816 c -0.325668,-0.1228 -0.667354,-0.16016 -0.838196,-0.34702 a 0.87022931,0.87022931 0 0 1 -0.186859,-0.77413 c 0.368379,-0.60329 0.896923,-0.85421 1.665715,-0.27227 -0.170843,0.42176 -0.395073,0.84886 -0.64066,1.39342 z m 3.51295,-9.66328 c -0.06407,-0.72608 -0.06407,-0.72608 2.018078,-0.58193 z m 4.036156,13.25098 c -0.144149,-0.81685 -0.261604,-1.50555 -0.384396,-2.19426 l 0.533884,-0.0695 c -0.03737,0.70474 1.094459,1.33471 -0.149488,2.26367 z m 1.996722,-9.10271 -0.293635,-0.17617 0.432445,-0.81151 0.373718,0.2616 z m 1.297336,15.9204 1.500212,-0.46983 c -0.208215,0.8809 -0.544562,1.56962 -1.500212,0.46983 z m 4.756897,-8.00825 0.763453,1.31868 -0.208214,0.30966 c -0.309652,-0.1228 -0.715403,-0.16551 -0.91294,-0.38974 -0.357702,-0.4271 -0.331007,-0.89158 0.357701,-1.2386 z m -0.05338,4.71418 c -0.04271,-0.57126 -0.08008,-1.03039 -0.13881,-1.82588 l 1.37742,1.27598 z m 0.763453,-26.49661 a 2.0180778,2.0180778 0 0 1 -0.32033,-0.53388 c 0.160165,-0.0586 0.341685,-0.19753 0.469817,-0.15483 0.128134,0.0426 0.213553,0.24559 0.352362,0.42711 -0.213553,0.15483 -0.44846,0.30965 -0.501849,0.26694 z m 4.148271,24.69209 c -1.009039,0.11747 -1.382757,-0.30432 -1.430807,-0.99302 0,-0.19221 0.341686,-0.41644 0.533883,-0.62464 0.08543,0.18684 0.154827,0.3844 0.250925,0.56057 0.176182,0.31499 0.368381,0.6193 0.645999,1.06242 z m 0.298975,-17.32451 c 0.192197,0 0.36304,0.19221 0.624642,0.34703 -0.240246,0.20288 -0.411089,0.42711 -0.491172,0.40041 a 1.884607,1.884607 0 0 1 -0.485833,-0.40041 c 0.117453,-0.10674 0.250924,-0.34703 0.352363,-0.34703 z m 1.179881,4.27107 -1.179881,1.20658 c -0.373719,-1.45216 -0.373719,-1.45216 1.179881,-1.20658 z m -3.432868,-5.00248 c 0.1228,0 0.357701,0.2616 0.336347,0.36304 -0.112126,0.56591 -0.427107,0.84354 -1.067767,0.53388 -0.10144,-0.58727 0.128134,-0.9076 0.73142,-0.88625 z m 0.966328,8.86245 c 2.274341,0.53389 2.781531,2.37045 0.939635,4.40454 l -2.888307,-1.4842 z"
       id="path28"
       style="fill:#402377" />
    <path
       d="m 217.8498,381.15465 c -0.4805,-0.0641 -0.86489,-0.79014 -1.292,-1.21192 l -1.37743,0 c -0.21888,1.06776 -0.98233,1.33471 -1.94866,1.33471 -7.85876,0.0374 -15.71752,0.11747 -23.57629,0.10148 -4.51664,0 -8.62219,-0.0587 -8.54211,6.4066 0.0374,4.19632 0.11211,6.87106 0.67269,8.54212 l 0.97166,-0.30431 c -0.12812,0.53388 -0.31499,1.01437 -0.66736,1.01972 a 3.3688018,3.3688018 0 0 0 2.58934,1.76715 2.8829682,2.8829682 0 0 1 -0.25092,-0.16016 1.4948724,1.4948724 0 0 1 -0.32034,-1.11583 c 0,-0.17084 0.47517,-0.47515 0.70472,-0.44845 0.84356,0.10685 1.67108,0.32567 2.36511,0.46981 0.0801,0.53388 0.2616,1.03573 0.2883,1.44683 0.53389,0 1.15319,0 1.80453,-0.0374 4.87435,-0.1922 6.75362,1.19589 6.68955,6.2838 -0.15483,12.11915 0.43778,24.24897 0.22424,36.36811 -0.1228,7.11666 3.97208,7.0953 9.18279,7.13802 5.37085,0.0534 8.6756,-1.09446 8.54211,-7.34089 -0.29362,-11.44645 0.35238,-22.95697 -0.60862,-34.33402 -0.57125,-6.807 0.68337,-9.54584 7.74131,-8.24315 2.87229,0.53387 5.184,-0.15483 6.04355,-3.61439 1.89528,-7.768 -1.44682,-12.9787 -9.23617,-14.06782 z m -31.85146,7.33022 0.76345,1.31868 -0.20822,0.30965 c -0.30965,-0.1228 -0.71539,-0.16549 -0.91295,-0.38973 -0.35769,-0.42711 -0.33099,-0.89159 0.35772,-1.2386 z m -0.19221,2.8883 1.37743,1.27598 -1.23862,0.53388 c -0.0426,-0.5499 -0.0801,-1.00903 -0.12812,-1.80452 z m 0.49653,5.33883 c 0.19753,-0.50185 0.32566,-0.82752 0.53387,-1.28665 l 1.56961,1.84722 z m 1.60163,-11.57992 1.94869,-2.92035 c 2.27433,0.53388 2.78152,2.37044 0.93962,4.40454 z m 1.50555,5.27476 c 0,-0.1922 0.3417,-0.41643 0.53389,-0.62464 0.0855,0.18685 0.15483,0.3844 0.25093,0.56057 0.18152,0.30966 0.37371,0.61398 0.65132,1.06778 -0.99835,0.10685 -1.37208,-0.315 -1.42011,-1.00371 z m 4.57004,5.68052 c -0.11211,-1.15853 -0.17617,-1.87393 -0.25092,-2.63739 0.96634,0.73676 1.0304,1.10514 0.26694,2.63739 z m 0.19754,-6.27313 c -0.22424,0.35237 -0.76345,0.49652 -1.16921,0.73142 l 0.0266,0.0534 -0.0426,-0.0426 0.0426,0.0426 -0.048,0 c -0.0695,1.29732 -0.0801,1.29732 -1.24394,1.15851 0,-0.87023 0.50184,-1.13183 1.24394,-1.15851 l 0,-0.0426 -0.59795,-1.31869 a 4.997145,4.997145 0 0 1 -1.44681,0.21889 c -0.20822,0 -0.37373,-0.53389 -0.5606,-0.81151 0.23493,-0.13346 0.5339,-0.43778 0.68872,-0.37372 0.56591,0.24026 0.41644,-0.20821 0.53389,-0.43778 a 13.469868,13.469868 0 0 1 0.89159,-1.13716 c 0.4271,0.76344 0.72073,1.2813 1.23859,2.21561 0.064,-0.72075 0.0909,-1.06777 0.1228,-1.37743 0.032,-0.30965 -0.0374,-0.68336 0.0909,-0.75277 a 2.1889204,2.1889204 0 0 1 0.9076,-0.0695 l 1.1692,0 c 0.46983,1.63368 -1.17453,2.08748 -1.83121,3.10185 z"
       id="path30"
       style="fill:#402377" />
    <path
       d="m 107.45347,388.45283 c 0,-3.68914 -1.60165,-5.33883 -5.13596,-5.54704 -2.461199,-0.13347 -4.917061,-0.38974 -7.378262,-0.46448 -3.502272,-0.10148 -5.418912,1.29733 -5.216037,5.18934 0.272281,5.09858 -1.275981,10.18115 -0.10144,15.32244 0.320329,1.40411 0.576593,2.81891 -1.87393,3.37414 -10.99799,2.47722 -14.591023,-0.27228 -14.516279,-11.56924 0.09076,-12.86124 0,-12.74912 -12.450152,-12.67439 -4.457924,0.0266 -6.038217,1.5536 -5.984829,5.79797 0.112115,9.18814 0.03203,18.37626 0.03203,27.56439 l 0.533882,0 0,1.32936 0.36838,-0.53388 0.379058,0.28296 c -0.176183,0.331 -0.08543,0.87023 -0.747438,0.98235 0,8.04561 0.170843,16.09123 -0.10144,24.12083 -0.112126,3.32609 0.229569,6.37457 3.801247,6.45998 4.676816,0.11747 9.705993,3.09118 14.030445,-0.80083 0.747438,-0.67269 0.565917,-2.53059 0.571256,-3.83861 0,-5.15731 -0.154826,-10.31462 -0.112126,-15.48261 0,-1.44148 -0.747435,-3.92404 1.099799,-4.07887 4.666137,-0.40041 9.609895,-0.94497 14.014429,0.26695 2.947035,0.81151 0.902263,5.13061 1.185221,7.85341 a 54.824446,54.824446 0 0 1 0.04806,8.73434 c -0.234908,4.54334 0.32567,7.8534 6.273126,7.8107 9.91955,-0.064 11.15282,-0.43779 11.21155,-7.6452 0.17084,-17.48468 -0.016,-34.96935 0.0694,-52.45401 z m -52.437994,13.9557 0.405752,-1.92732 2.263664,0 0.533883,2.50926 c -1.174543,-0.88626 -2.23697,0.7848 -3.203299,-0.58194 z m 3.123216,8.41934 c -0.03737,0 -0.357701,-0.19754 -0.347024,-0.2883 a 2.1889204,2.1889204 0 0 1 0.31499,-0.62465 c 0.208215,0.22424 0.432446,0.3844 0.411091,0.45381 a 1.0197165,1.0197165 0 0 1 -0.395073,0.45914 z m 0.229569,-0.9076 c -0.357701,-0.56592 -0.742097,-0.95032 -0.667353,-1.06778 a 5.1039217,5.1039217 0 0 1 0.939635,-1.0197 c 0.208213,0.26693 0.63532,0.58726 0.58727,0.79014 a 5.0772275,5.0772275 0 0 1 -0.875568,1.29734 z m 2.818903,5.33883 -0.384396,-0.30966 0.629983,-0.74743 0.325667,0.23491 z m 4.271063,-12.36474 c 0.03202,0.10149 0.05873,0.20288 0.09077,0.30965 a 7.6985931,7.6985931 0 0 1 -0.811501,0.28296 2.7601752,2.7601752 0 0 1 -0.176181,-0.43778 z m 0,14.28138 -1.179881,-0.23491 0.144149,-0.57125 1.142511,0.34702 c -0.01601,0.13347 -0.05338,0.28829 -0.09076,0.44312 z m -0.576593,-1.91664 0,0.0534 -0.06941,0 c -0.282956,0.62997 -0.731418,0.71539 -1.286657,0.29897 -0.555239,-0.41644 -0.480495,-0.62464 0,-1.46285 0.704726,0.0587 0.368379,1.37743 1.297336,1.16388 a 0.49651121,0.49651121 0 0 0 0.0267,-0.0534 c 0,0 0,0 0.04271,0 -0.05338,-0.59262 -0.08008,-1.17455 0.896925,-1.52691 -0.229571,0.70473 -0.197539,1.29733 -0.891587,1.51089 z m 1.510889,-14.07317 c -0.144148,0.43779 -0.261602,0.80083 -0.533883,1.54827 -0.507189,-1.34005 -0.507189,-1.34005 0.549899,-1.56428 z m -0.245586,2.50926 c 0,-0.12814 -0.04806,-0.25627 -0.06939,-0.38974 l 0.939634,-0.19753 c 0,0.12813 0.04806,0.25092 0.07474,0.37905 z m 1.382758,-0.48583 c 0.03737,-0.89159 0.05873,-1.42013 0.09609,-2.13553 l 1.334709,0.53388 z"
       id="path32"
       style="fill:#402377" />
    <path
       d="m 279.24635,426.74292 0.17617,-0.0266 c -0.47516,-6.22508 0.98768,-13.65674 -1.93265,-18.37092 -3.57168,-5.77127 -11.57459,-1.50022 -17.61815,-1.85257 -9.42837,-0.53389 -9.71667,0.53387 -9.13473,9.8181 0.35236,5.71255 3.13923,6.74295 7.84808,6.02755 3.1766,-0.4805 3.80659,1.20658 3.56633,3.94539 a 22.956969,22.956969 0 0 1 -0.19219,2.35977 c 0.62998,0.39506 1.06776,0.66201 1.56962,0.99836 l -0.97167,0.57125 -0.64067,-1.37741 c -0.26693,1.01971 -0.96098,1.76181 -2.99507,1.93798 -8.31256,0.7421 -13.4325,-3.03244 -13.95037,-11.41976 a 67.963309,67.963309 0 0 1 0.53389,-11.3984 c 0.73142,-6.76963 4.85833,-9.65259 11.46781,-9.49243 5.16264,0.12812 10.33062,0.0586 15.4826,0.24025 5.55772,0.19753 6.04889,-3.29407 5.83,-7.52241 -0.21889,-4.22837 0.80617,-9.10805 -5.97948,-8.88382 -7.11133,0.24024 -14.23867,0.18686 -21.35532,0.66735 -11.77212,0.7955 -18.29084,6.2411 -22.09208,17.31383 -1.80987,5.27476 -1.4842,10.67767 -1.29735,15.94709 0.62999,17.70356 5.43493,34.04572 31.23216,32.24653 1.34006,-0.0909 2.66942,0.0534 4.0415,0 15.62675,-0.67269 18.08795,3.64641 16.37953,-16.40089 -0.0961,-1.76714 0.032,-3.54497 0.032,-5.32815 z m -34.2753,18.03458 c -0.2616,-0.0641 -0.53387,-0.5339 -0.59261,-0.83821 -0.0266,-0.13881 0.45915,-0.56057 0.65668,-0.53387 0.30431,0.048 0.56591,0.37905 1.06776,0.73674 -0.53388,0.32033 -0.88624,0.69406 -1.12649,0.63534 z m 26.92906,3.4542 -0.1922,-0.42176 0.97701,-0.40041 c 0.0695,0.16551 0.13882,0.33101 0.20288,0.49651 z m 0.72608,-21.61691 c -0.0426,0 -0.42176,-0.44312 -0.37372,-0.53388 a 1.4895337,1.4895337 0 0 1 0.66736,-0.6033 c 0.11746,-0.048 0.36837,0.22424 0.72608,0.45915 a 8.0082452,8.0082452 0 0 1 -1.01438,0.67803 z"
       id="path34"
       style="fill:#402377" />
    <g
       id="g36"
       transform="matrix(0.53388301,0,0,0.53388301,0.0255243,231.52325)"
       style="fill:#009c7c">
      <path
         d="m 339.15,366.21 0,-41.46 -1.73,-1.94 c -1.46,1.27 -3.32,1.54 -5.28,1.7 l -0.89,-1.61 a 20.75,20.75 0 0 0 2.25,-0.18 6.82,6.82 0 0 0 2.4,-0.7 2.49,2.49 0 0 0 0.46,-0.4 l -1,-1.1 -0.65,-0.74 c -1.2,-1.27 -2.34,-2.56 -3.45,-3.86 a 4.79,4.79 0 0 1 -0.47,0.86 l -2.79,0 a 3.2,3.2 0 0 0 -0.11,-2.59 15.31,15.31 0 0 1 -6,-4.92 13.54,13.54 0 0 1 -2.18,-0.86 7.6,7.6 0 0 1 -0.12,-1 12.51,12.51 0 0 1 0.17,-1.36 l 0.33,0.16 a 30.85,30.85 0 0 1 -1.81,-4.94 l -0.47,-0.54 c -7.3,-8.22 -13.67,-15.37 -13.67,-15.37 l -27.55,0 c -10.44,-2.36 -24.44,-3.36 -31,2.33 l -0.51,0.58 -26,29.18 -0.33,0.4 c -6.58,5.15 -5.58,12.15 -6.16,20 l 0,3.54 a 49.56,49.56 0 0 0 0,20.44 l 0,10.23 c 0,0 5.56,6.24 12.24,13.76 l 0.47,0.52 c 3.87,4.64 9.87,8.64 13.26,14.9 l 0.42,0.48 8.66,9.73 45.95,0 c 6.58,0.53 12.58,-3.47 17.93,-8.32 l 0.41,-0.46 18.66,-21 0.37,-0.42 c 3.21,-4.3 9.21,-8.3 8.21,-14.15 z M 309,304.89 l 2.31,0.22 -1.31,1.82 -1.57,-1.33 z m -35.66,-5.43 c -1.91,0.14 -2.49,-0.52 -2.62,-2 1.51,-0.33 2.05,0.42 2.59,2 z m 40.92,36.54 -5.43,0 -0.63,0 c -5.05,0 -11.05,-2 -13.05,1 -3,2 -1,8 -1,13.45 l 0,1 0,3.82 0,1.18 0,4.44 20.17,0 0,1.74 -21.33,24 -4.69,0 0,-5 c -0.15,-3.6 -0.15,-8.6 -0.15,-12.6 -5,3 -10,0 -15.14,-0.1 l -9.59,0 0,17.68 -4.63,0 -21.33,-24 0,-1.74 3.68,0 c 6,0.14 11,-1.86 17,-0.86 a 67.38,67.38 0 0 0 -0.52,-10.15 l 0,-13.86 -20.16,0 0,-1.75 12.07,-13.57 0.47,-0.52 a 19.77,19.77 0 0 0 2.63,-3.57 l -1.94,-4.16 a 37.46,37.46 0 0 1 3.37,-2.26 2.11,2.11 0 0 1 2.78,0.61 4.29,4.29 0 0 1 2.58,-1.11 l 0.33,-0.75 c 0.12,0.3 0.22,0.55 0.3,0.77 a 6.64,6.64 0 0 1 3.1,1.34 c 1,1 0,5 0.27,8.09 l 0,8.84 9.58,0 c 5.14,0.07 11.14,2.07 14.14,-0.93 2,-1 1,-7 0.79,-10.52 0,-0.3 0,-0.6 0,-0.89 a 9.91,9.91 0 0 1 1.23,-5.59 c 0,-1 4,0 5.54,2.22 l 0.58,0.66 19,21.34 z m 0.47,-33 c -0.62,0.76 -0.64,0.75 -2.47,1 l 2.25,-1.91 c 0.13,0.54 0.29,0.82 0.22,0.91 z m 15,18.07 0,-0.17 -1.61,0.72 0,-3 1,-0.6 0.6,2.84 1,-0.44 z"
         id="path38" />
      <path
         d="m 0.92,483.46 a 1.39,1.39 0 0 1 -0.43,-1 l 0,-37.75 a 1.49,1.49 0 0 1 0.41,-1.08 1.37,1.37 0 0 1 1,-0.44 l 16.5,0 q 7.56,0 11.86,3.43 4.3,3.43 4.31,10.07 0,6.62 -4.31,9.91 -4.31,3.29 -11.86,3.29 l -6.63,0 0,12.56 a 1.45,1.45 0 0 1 -0.41,1 1.37,1.37 0 0 1 -1,0.44 l -8.42,0 a 1.42,1.42 0 0 1 -1.02,-0.43 z m 17.19,-21.89 a 5.36,5.36 0 0 0 3.75,-1.25 4.76,4.76 0 0 0 1.37,-3.69 A 5.3,5.3 0 0 0 22,453 5,5 0 0 0 18.13,451.61 l -6.53,0 0,10 z"
         id="path40" />
      <path
         d="m 43.78,480.47 q -4.74,-4 -5,-11.75 c 0,-1 -0.06,-2.75 -0.06,-5.11 0,-2.36 0,-4.15 0.06,-5.24 q 0.28,-7.56 5.09,-11.66 4.81,-4.1 13,-4.1 a 24,24 0 0 1 9.27,1.69 14.94,14.94 0 0 1 6.49,4.88 13,13 0 0 1 2.5,7.56 1.17,1.17 0 0 1 -0.38,0.88 1.28,1.28 0 0 1 -0.9,0.34 l -8.29,0 a 1.78,1.78 0 0 1 -1.19,-0.32 2.55,2.55 0 0 1 -0.67,-1.19 7,7 0 0 0 -2.47,-4 7.62,7.62 0 0 0 -4.39,-1.13 q -6.57,0 -6.81,7.32 -0.06,1.57 -0.06,4.83 c 0,2.17 0,3.82 0.06,4.94 q 0.24,7.33 6.81,7.33 a 7.73,7.73 0 0 0 4.39,-1.16 6.72,6.72 0 0 0 2.47,-4 2.17,2.17 0 0 1 0.64,-1.19 2,2 0 0 1 1.22,-0.32 l 8.26,0 a 1.29,1.29 0 0 1 0.9,0.35 1.14,1.14 0 0 1 0.38,0.87 12.9,12.9 0 0 1 -2.5,7.56 15,15 0 0 1 -6.49,4.89 24.24,24.24 0 0 1 -9.27,1.68 q -8.32,0.06 -13.06,-3.95 z"
         id="path42" />
      <path
         d="m 97.08,480.38 q -4.77,-4.1 -5.06,-11.72 c 0,-1.08 -0.06,-2.84 -0.06,-5.29 0,-2.45 0,-4.22 0.06,-5.35 q 0.23,-7.32 5.09,-11.37 4.86,-4.05 13.17,-4 a 24.19,24.19 0 0 1 9.74,1.81 15.72,15.72 0 0 1 6.34,4.62 10.08,10.08 0 0 1 2.29,5.78 1.26,1.26 0 0 1 -1.28,1.28 l -9,0 a 1.62,1.62 0 0 1 -0.9,-0.2 2.35,2.35 0 0 1 -0.61,-0.61 6.82,6.82 0 0 0 -2.24,-2.79 7,7 0 0 0 -4.33,-1.16 q -6.75,0 -7,7 c 0,1.09 -0.06,2.76 -0.06,5 0,2.24 0,3.94 0.06,5.06 q 0.23,7.39 7.09,7.39 a 7.93,7.93 0 0 0 5.35,-1.69 6.34,6.34 0 0 0 2,-5.11 l 0,-1 -5.17,0 A 1.5,1.5 0 0 1 111,466.4 l 0,-4.54 a 1.49,1.49 0 0 1 0.44,-1.08 1.46,1.46 0 0 1 1.08,-0.43 l 14.77,0 a 1.46,1.46 0 0 1 1.07,0.43 1.49,1.49 0 0 1 0.44,1.08 l 0,6.75 a 15.46,15.46 0 0 1 -2.3,8.52 14.65,14.65 0 0 1 -6.48,5.46 23.56,23.56 0 0 1 -9.77,1.89 q -8.4,0 -13.17,-4.1 z"
         id="path44" />
      <path
         d="m 138.16,483.29 a 9.52,9.52 0 0 1 -3.95,-3.29 8,8 0 0 1 -1.43,-4.59 7.69,7.69 0 0 1 3.29,-6.43 20.37,20.37 0 0 1 9,-3.4 l 7.21,-1.1 0,-0.7 a 4.69,4.69 0 0 0 -0.87,-3.14 3.79,3.79 0 0 0 -3,-1 4.26,4.26 0 0 0 -1.95,0.41 10.72,10.72 0 0 0 -1.77,1.22 6.55,6.55 0 0 1 -1.34,0.93 0.68,0.68 0 0 1 -0.58,0.41 l -6.67,0 a 1.3,1.3 0 0 1 -1,-0.38 1,1 0 0 1 -0.32,-0.9 6.37,6.37 0 0 1 1.57,-3.52 11.81,11.81 0 0 1 4.59,-3.34 18.42,18.42 0 0 1 7.62,-1.4 q 7.2,0 10.7,3.17 a 11,11 0 0 1 3.49,8.58 l 0,17.62 a 1.45,1.45 0 0 1 -0.41,1 1.37,1.37 0 0 1 -1,0.44 l -7.15,0 a 1.4,1.4 0 0 1 -1,-0.44 1.39,1.39 0 0 1 -0.43,-1 l 0,-2 a 9.53,9.53 0 0 1 -3.55,2.94 12,12 0 0 1 -5.41,1.13 13.09,13.09 0 0 1 -5.64,-1.22 z m 12.68,-7.36 a 6.85,6.85 0 0 0 1.6,-4.88 l 0,-0.7 -4.83,0.81 c -3.26,0.63 -4.88,1.79 -4.88,3.49 a 2.53,2.53 0 0 0 1.13,2.16 4.7,4.7 0 0 0 2.82,0.81 5.46,5.46 0 0 0 4.16,-1.69 z"
         id="path46" />
      <path
         d="m 169.56,483.46 a 1.39,1.39 0 0 1 -0.43,-1 l 0,-27.35 a 1.36,1.36 0 0 1 0.43,-1 1.45,1.45 0 0 1 1,-0.41 l 6.74,0 a 1.4,1.4 0 0 1 1.46,1.45 l 0,2 a 11.78,11.78 0 0 1 3.6,-2.85 10.67,10.67 0 0 1 5,-1.16 q 6.39,0 8.78,5 a 10.66,10.66 0 0 1 3.89,-3.6 10.82,10.82 0 0 1 5.35,-1.4 10.13,10.13 0 0 1 7.77,3.23 q 3,3.22 3,9.62 l 0,16.52 a 1.45,1.45 0 0 1 -0.41,1 1.37,1.37 0 0 1 -1,0.44 l -7.16,0 a 1.52,1.52 0 0 1 -1.07,-0.41 1.37,1.37 0 0 1 -0.44,-1 l 0,-16.2 a 5.78,5.78 0 0 0 -1.13,-3.93 4,4 0 0 0 -3.06,-1.25 3.77,3.77 0 0 0 -2.93,1.25 5.73,5.73 0 0 0 -1.14,3.93 l 0,16.11 a 1.44,1.44 0 0 1 -0.4,1 1.37,1.37 0 0 1 -1,0.44 l -7.15,0 a 1.53,1.53 0 0 1 -1.08,-0.41 1.36,1.36 0 0 1 -0.43,-1 l 0,-16.14 a 5.63,5.63 0 0 0 -1.17,-3.93 4.21,4.21 0 0 0 -6,0 5.58,5.58 0 0 0 -1.16,3.87 l 0,16.17 a 1.45,1.45 0 0 1 -0.41,1 1.37,1.37 0 0 1 -1,0.44 l -7.33,0 a 1.4,1.4 0 0 1 -1.12,-0.43 z"
         id="path48" />
      <path
         d="m 222.92,449 a 1.49,1.49 0 0 1 -0.41,-1.08 l 0,-5.41 a 1.46,1.46 0 0 1 0.43,-1.07 1.42,1.42 0 0 1 1,-0.44 l 7.27,0 a 1.47,1.47 0 0 1 1.08,0.44 1.46,1.46 0 0 1 0.43,1.07 l 0,5.49 a 1.47,1.47 0 0 1 -1.51,1.51 l -7.21,0 A 1.36,1.36 0 0 1 222.92,449 Z m 0,34.42 a 1.39,1.39 0 0 1 -0.43,-1 l 0,-27.31 a 1.36,1.36 0 0 1 0.43,-1 1.47,1.47 0 0 1 1,-0.41 l 7.27,0 a 1.53,1.53 0 0 1 1.08,0.41 1.36,1.36 0 0 1 0.43,1 l 0,27.34 a 1.36,1.36 0 0 1 -0.43,1 1.53,1.53 0 0 1 -1.08,0.41 l -7.19,0 a 1.42,1.42 0 0 1 -1.06,-0.4 z"
         id="path50" />
      <path
         d="m 239.81,483.46 a 1.4,1.4 0 0 1 -0.44,-1 l 0,-27.35 a 1.37,1.37 0 0 1 0.44,-1 1.45,1.45 0 0 1 1,-0.41 l 7.19,0 a 1.46,1.46 0 0 1 1.05,0.41 1.41,1.41 0 0 1 0.4,1 l 0,2.21 a 11.64,11.64 0 0 1 4,-3.08 13.26,13.26 0 0 1 5.67,-1.16 11.5,11.5 0 0 1 5.91,1.51 10.46,10.46 0 0 1 4.07,4.48 15.83,15.83 0 0 1 1.48,7.15 l 0,16.23 a 1.45,1.45 0 0 1 -0.41,1 1.37,1.37 0 0 1 -1,0.44 l -7.74,0 a 1.5,1.5 0 0 1 -1.07,-0.41 1.37,1.37 0 0 1 -0.44,-1 l 0,-15.91 a 5.84,5.84 0 0 0 -1.25,-4 4.63,4.63 0 0 0 -3.63,-1.4 4.78,4.78 0 0 0 -3.67,1.43 5.6,5.6 0 0 0 -1.34,4 l 0,15.88 a 1.44,1.44 0 0 1 -0.4,1 1.37,1.37 0 0 1 -1.05,0.44 l -7.73,0 a 1.4,1.4 0 0 1 -1.04,-0.46 z"
         id="path52" />
      <path
         d="m 283,494.89 a 12.65,12.65 0 0 1 -5,-4.16 7.88,7.88 0 0 1 -1.51,-3.92 1.27,1.27 0 0 1 0.47,-1 1.56,1.56 0 0 1 1,-0.41 l 7.8,0 a 1.55,1.55 0 0 1 0.93,0.26 2.48,2.48 0 0 1 0.64,0.9 5.08,5.08 0 0 0 1.51,2 4.68,4.68 0 0 0 2.91,0.73 5,5 0 0 0 3.72,-1.25 5.86,5.86 0 0 0 1.22,-4.16 l 0,-3.88 a 11.15,11.15 0 0 1 -8.43,3.2 q -5.88,0 -9,-3.4 -3.12,-3.4 -3.4,-10 l -0.06,-1.57 q 0,-7.09 3.17,-11.11 3.17,-4.02 9.28,-4 a 11.63,11.63 0 0 1 5.23,1.13 11.1,11.1 0 0 1 3.78,3.06 l 0,-2.1 a 1.52,1.52 0 0 1 0.41,-1.07 1.37,1.37 0 0 1 1,-0.44 l 7.1,0 a 1.49,1.49 0 0 1 1.08,0.44 1.46,1.46 0 0 1 0.43,1.07 l 0,27.79 q 0,6.69 -4,10.17 -4,3.48 -11.28,3.49 a 19.77,19.77 0 0 1 -9,-1.77 z m 12.32,-21.05 a 6.75,6.75 0 0 0 1.4,-3.84 15.32,15.32 0 0 0 0.06,-1.74 14.68,14.68 0 0 0 -0.06,-1.75 6.63,6.63 0 0 0 -1.4,-3.86 4.53,4.53 0 0 0 -3.72,-1.49 4.39,4.39 0 0 0 -3.72,1.54 7.52,7.52 0 0 0 -1.28,4.28 l -0.06,1.28 a 10.28,10.28 0 0 0 1.11,5.2 c 0.73,1.26 2.05,1.89 3.95,1.89 a 4.48,4.48 0 0 0 3.71,-1.51 z"
         id="path54" />
      <path
         d="m 331,483.14 a 12.1,12.1 0 0 1 -4.74,-3.19 5.53,5.53 0 0 1 -1.54,-3.38 1.23,1.23 0 0 1 0.43,-1 1.47,1.47 0 0 1 1,-0.37 l 7,0 a 0.76,0.76 0 0 1 0.58,0.23 q 1,0.64 1.11,0.75 a 11,11 0 0 0 2.06,1.25 5.4,5.4 0 0 0 2.3,0.44 4.94,4.94 0 0 0 2.59,-0.61 1.92,1.92 0 0 0 1,-1.72 2.1,2.1 0 0 0 -0.55,-1.51 5.7,5.7 0 0 0 -2.09,-1.13 32.6,32.6 0 0 0 -4.68,-1.14 q -10.06,-2 -10.06,-9.3 a 7.75,7.75 0 0 1 1.54,-4.56 10.66,10.66 0 0 1 4.53,-3.52 17.58,17.58 0 0 1 7.19,-1.34 18.92,18.92 0 0 1 7.35,1.31 12.84,12.84 0 0 1 4.74,3.14 5.27,5.27 0 0 1 1.63,3.34 1.33,1.33 0 0 1 -0.38,0.93 1.19,1.19 0 0 1 -0.9,0.41 l -6.4,0 a 1.28,1.28 0 0 1 -0.81,-0.23 9.8,9.8 0 0 1 -1.4,-0.88 15.58,15.58 0 0 0 -1.83,-1.07 4.63,4.63 0 0 0 -2,-0.38 3.56,3.56 0 0 0 -2.27,0.64 2,2 0 0 0 -0.82,1.63 2,2 0 0 0 0.5,1.42 5,5 0 0 0 2,1.08 35.21,35.21 0 0 0 4.68,1.1 c 3.8,0.66 6.57,1.84 8.29,3.52 a 8.1,8.1 0 0 1 -1.28,12.85 q -3.87,2.6 -10.84,2.59 a 20.57,20.57 0 0 1 -7.93,-1.3 z"
         id="path56" />
      <path
         d="m 359.05,449 a 1.49,1.49 0 0 1 -0.41,-1.08 l 0,-5.41 a 1.43,1.43 0 0 1 0.44,-1.07 1.38,1.38 0 0 1 1,-0.44 l 7.27,0 a 1.47,1.47 0 0 1 1.08,0.44 1.46,1.46 0 0 1 0.43,1.07 l 0,5.49 a 1.47,1.47 0 0 1 -1.51,1.51 l -7.27,0 A 1.36,1.36 0 0 1 359.05,449 Z m 0,34.42 a 1.36,1.36 0 0 1 -0.44,-1 l 0,-27.31 a 1.33,1.33 0 0 1 0.44,-1 1.43,1.43 0 0 1 1,-0.41 l 7.27,0 a 1.53,1.53 0 0 1 1.08,0.41 1.36,1.36 0 0 1 0.43,1 l 0,27.34 a 1.36,1.36 0 0 1 -0.43,1 1.53,1.53 0 0 1 -1.08,0.41 l -7.27,0 a 1.38,1.38 0 0 1 -0.97,-0.4 z"
         id="path58" />
      <path
         d="m 375.94,483.46 a 1.4,1.4 0 0 1 -0.44,-1 l 0,-27.35 a 1.37,1.37 0 0 1 0.44,-1 1.45,1.45 0 0 1 1,-0.41 l 7.15,0 a 1.44,1.44 0 0 1 1.05,0.41 1.41,1.41 0 0 1 0.4,1 l 0,2.21 a 11.64,11.64 0 0 1 4,-3.08 13.26,13.26 0 0 1 5.67,-1.16 11.5,11.5 0 0 1 5.91,1.51 10.46,10.46 0 0 1 4.07,4.48 15.83,15.83 0 0 1 1.48,7.15 l 0,16.23 a 1.45,1.45 0 0 1 -0.41,1 1.37,1.37 0 0 1 -1,0.44 l -7.74,0 a 1.5,1.5 0 0 1 -1.07,-0.41 1.37,1.37 0 0 1 -0.44,-1 l 0,-15.91 a 5.84,5.84 0 0 0 -1.25,-4 4.63,4.63 0 0 0 -3.63,-1.4 4.78,4.78 0 0 0 -3.67,1.43 5.6,5.6 0 0 0 -1.34,4 l 0,15.88 a 1.44,1.44 0 0 1 -0.4,1 1.37,1.37 0 0 1 -1.05,0.44 l -7.67,0 a 1.4,1.4 0 0 1 -1.06,-0.46 z"
         id="path60" />
      <path
         d="m 416.41,481 q -4.1,-3.51 -4.39,-9.8 l -0.06,-2.32 0.06,-2.39 a 13,13 0 0 1 4.36,-9.82 q 4.14,-3.56 10.76,-3.55 a 18.14,18.14 0 0 1 8.49,1.8 13.77,13.77 0 0 1 5.12,4.28 9.2,9.2 0 0 1 1.8,4.5 1.25,1.25 0 0 1 -0.41,1.08 1.55,1.55 0 0 1 -1.1,0.44 l -7.79,0 a 1.46,1.46 0 0 1 -1,-0.3 2.51,2.51 0 0 1 -0.64,-0.93 5.29,5.29 0 0 0 -1.66,-2.38 4.25,4.25 0 0 0 -2.59,-0.76 q -4.47,0 -4.65,5.94 l -0.06,2.21 0.06,1.91 a 7.25,7.25 0 0 0 1.22,4.45 4.18,4.18 0 0 0 3.43,1.43 4.26,4.26 0 0 0 2.64,-0.79 5.31,5.31 0 0 0 1.6,-2.41 2.51,2.51 0 0 1 0.64,-0.93 1.46,1.46 0 0 1 1,-0.29 l 7.76,0 a 1.55,1.55 0 0 1 1,0.4 1.26,1.26 0 0 1 0.46,1 8.49,8.49 0 0 1 -1.6,4.33 13.45,13.45 0 0 1 -5.09,4.45 17.89,17.89 0 0 1 -8.72,1.92 q -6.54,0.01 -10.64,-3.47 z"
         id="path62" />
      <path
         d="m 450.58,480.67 q -4.08,-3.81 -4.19,-11.08 l 0,-1.8 q 0.23,-6.92 4.3,-10.81 4.07,-3.89 11,-3.9 a 16.55,16.55 0 0 1 8.46,2 12.66,12.66 0 0 1 5.18,5.52 18.08,18.08 0 0 1 1.71,8 l 0,1.45 a 1.48,1.48 0 0 1 -0.43,1.08 1.46,1.46 0 0 1 -1.08,0.43 l -18.44,0 0,0.35 a 7.28,7.28 0 0 0 1.22,4.22 3.86,3.86 0 0 0 3.31,1.6 4,4 0 0 0 2.24,-0.56 7.49,7.49 0 0 0 1.6,-1.42 3,3 0 0 1 0.85,-0.73 2.75,2.75 0 0 1 1,-0.14 l 7.62,0 a 1.31,1.31 0 0 1 0.9,0.32 1,1 0 0 1 0.38,0.78 5.91,5.91 0 0 1 -1.72,3.55 13.55,13.55 0 0 1 -5,3.49 19,19 0 0 1 -7.76,1.45 q -7.08,0.01 -11.15,-3.8 z m 15.75,-15 0,-0.12 a 6.78,6.78 0 0 0 -1.22,-4.33 4.13,4.13 0 0 0 -3.43,-1.54 4.06,4.06 0 0 0 -3.4,1.54 7,7 0 0 0 -1.19,4.33 l 0,0.12 z"
         id="path64" />
      <path
         d="m 506.25,483.46 a 1.39,1.39 0 0 1 -0.43,-1 l 0,-27.23 -7.79,6 a 1.64,1.64 0 0 1 -0.88,0.29 1.51,1.51 0 0 1 -1.22,-0.7 l -3.6,-4.65 a 1.68,1.68 0 0 1 -0.24,-0.87 1.52,1.52 0 0 1 0.64,-1.28 l 13.5,-10.41 a 2.26,2.26 0 0 1 1.33,-0.41 l 7.68,0 a 1.52,1.52 0 0 1 1.07,0.41 1.34,1.34 0 0 1 0.44,1 l 0,37.8 a 1.33,1.33 0 0 1 -0.44,1 1.52,1.52 0 0 1 -1.07,0.41 l -8,0 a 1.42,1.42 0 0 1 -0.99,-0.36 z"
         id="path66" />
      <path
         d="m 530.71,482.77 a 12.84,12.84 0 0 1 -5.79,-4.63 11.7,11.7 0 0 1 -1.89,-6.51 10.16,10.16 0 0 1 1.54,-5.5 10.67,10.67 0 0 1 4,-3.8 8.94,8.94 0 0 1 -4.13,-8 10.38,10.38 0 0 1 4,-8.43 q 4,-3.25 11.77,-3.26 7.77,-0.01 11.66,3.23 a 10.35,10.35 0 0 1 3.93,8.4 9.3,9.3 0 0 1 -4,8.09 9.49,9.49 0 0 1 4.1,3.72 10.48,10.48 0 0 1 1.55,5.64 11.42,11.42 0 0 1 -1.92,6.48 13.12,13.12 0 0 1 -5.82,4.6 27.44,27.44 0 0 1 -19.07,0 z m 14,-7.36 a 4.79,4.79 0 0 0 0,-7.44 7.06,7.06 0 0 0 -4.51,-1.4 7.18,7.18 0 0 0 -4.53,1.4 4.74,4.74 0 0 0 0,7.44 7.18,7.18 0 0 0 4.53,1.4 7.06,7.06 0 0 0 4.55,-1.4 z M 544.26,458 a 3.9,3.9 0 0 0 1.57,-3.17 4,4 0 0 0 -1.57,-3.22 7.12,7.12 0 0 0 -8.06,0 4.15,4.15 0 0 0 0,6.45 6.19,6.19 0 0 0 4,1.25 6.5,6.5 0 0 0 4.06,-1.31 z"
         id="path68" />
      <path
         d="m 567.34,483.52 a 1.29,1.29 0 0 1 -0.35,-0.9 1.11,1.11 0 0 1 0.12,-0.52 l 13.37,-29.78 -17.27,0 a 1.46,1.46 0 0 1 -1.07,-0.43 1.47,1.47 0 0 1 -0.44,-1.08 l 0,-6.1 a 1.5,1.5 0 0 1 1.51,-1.52 l 27.51,0 a 1.49,1.49 0 0 1 1.08,0.44 1.46,1.46 0 0 1 0.43,1.08 l 0,5.4 a 5.17,5.17 0 0 1 -0.29,1.81 c -0.19,0.5 -0.31,0.79 -0.35,0.87 l -13.37,29.71 a 2.18,2.18 0 0 1 -2.1,1.4 l -7.91,0 a 1.15,1.15 0 0 1 -0.87,-0.38 z"
         id="path70" />
      <path
         d="m 603.19,482.71 a 13.71,13.71 0 0 1 -5.7,-4.39 9.83,9.83 0 0 1 -1.94,-5.24 1.13,1.13 0 0 1 0.37,-0.87 1.32,1.32 0 0 1 0.9,-0.35 l 8,0 a 2,2 0 0 1 1.1,0.26 2.46,2.46 0 0 1 0.76,0.85 c 0.74,1.9 2.77,2.85 6.11,2.85 a 6.63,6.63 0 0 0 4.42,-1.34 4.51,4.51 0 0 0 1.57,-3.61 c 0,-2.9 -1.94,-4.36 -5.82,-4.36 l -6.51,0 A 1.47,1.47 0 0 1 605,465 l 0,-3.43 a 2.21,2.21 0 0 1 1,-2 l 9.37,-7.67 -16.1,0 a 1.5,1.5 0 0 1 -1.46,-1.46 l 0,-5.75 a 1.53,1.53 0 0 1 0.41,-1.08 1.37,1.37 0 0 1 1,-0.44 l 27.1,0 a 1.37,1.37 0 0 1 1,0.44 1.53,1.53 0 0 1 0.41,1.08 l 0,5.17 a 2.26,2.26 0 0 1 -0.93,1.92 l -8.61,7.85 0.41,0.12 a 15.08,15.08 0 0 1 8.32,3.6 c 2,1.9 3.08,4.64 3.08,8.2 a 10.94,10.94 0 0 1 -2.24,6.83 14.16,14.16 0 0 1 -6.16,4.51 23.86,23.86 0 0 1 -8.93,1.57 23,23 0 0 1 -9.48,-1.75 z"
         id="path72" />
    </g>
  </g>
</svg>
