<?xml version="1.0" standalone="no"?>
<!DOCTYPE svg PUBLIC "-//W3C//DTD SVG 20010904//EN"
 "http://www.w3.org/TR/2001/REC-SVG-20010904/DTD/svg10.dtd">
<svg version="1.0" xmlns="http://www.w3.org/2000/svg"
 width="280.000000pt" height="200.000000pt" viewBox="0 0 280.000000 200.000000"
 preserveAspectRatio="xMidYMid meet">
<metadata>
Created by potrace 1.15, written by Peter Selinger 2001-2017
</metadata>
<g transform="translate(0.000000,200.000000) scale(0.100000,-0.100000)"
fill="#000000" stroke="none">
<path d="M0 1000 l0 -1000 1400 0 1400 0 0 1000 0 1000 -1400 0 -1400 0 0
-1000z m1668 37 l2 -206 -39 -21 c-22 -11 -45 -20 -51 -20 -6 0 -10 68 -10
199 l0 200 37 30 c21 17 42 30 48 28 6 -2 11 -82 13 -210z m-608 148 l0 -56
48 6 c104 14 132 -25 132 -190 l0 -105 -25 0 -25 0 0 103 c0 121 -11 147 -65
147 -65 0 -65 0 -65 -131 l0 -119 -25 0 -25 0 0 200 0 200 25 0 c24 0 25 -3
25 -55z m1200 -145 l0 -200 -25 0 -25 0 0 200 0 200 25 0 25 0 0 -200z m288 3
l-3 -198 -79 -3 c-64 -2 -82 0 -99 15 -29 27 -47 76 -47 133 0 101 44 150 135
150 l45 0 0 50 c0 47 2 50 25 50 l25 0 -2 -197z m-2188 128 c0 -26 4 -30 33
-33 24 -2 33 -8 35 -25 3 -20 -1 -23 -32 -23 l-36 0 0 -105 0 -105 35 0 c28 0
35 -4 35 -20 0 -17 -7 -20 -50 -20 -64 0 -70 11 -70 143 l0 105 -30 6 c-18 3
-30 12 -30 21 0 14 5 17 40 19 9 1 16 13 18 34 3 26 7 32 28 32 20 0 24 -5 24
-29z m1165 -212 l0 -184 -45 0 -45 0 -3 145 c-1 80 0 155 3 166 5 23 63 66 80
60 6 -1 10 -73 10 -187z m-887 170 c40 -14 62 -48 69 -109 l6 -50 -97 0 c-96
0 -96 0 -96 -25 0 -46 32 -65 111 -65 62 0 70 -2 67 -17 -3 -15 -16 -18 -80
-21 -43 -2 -87 2 -98 8 -37 20 -52 66 -48 151 3 65 7 82 27 103 33 35 85 44
139 25z m290 5 c13 -4 22 -14 22 -25 0 -16 -8 -19 -54 -19 -71 0 -86 -19 -86
-107 0 -82 19 -103 90 -103 43 0 50 -3 50 -20 0 -16 -7 -20 -32 -21 -95 -3
-119 6 -142 55 -18 38 -22 140 -6 180 18 50 92 77 158 60z m969 -11 c43 -20
63 -63 63 -133 0 -97 -43 -153 -118 -152 -89 1 -122 40 -122 146 0 82 11 111
52 136 40 24 79 25 125 3z m198 8 c39 15 55 10 55 -16 0 -19 -5 -25 -21 -25
-11 0 -29 -5 -40 -10 -17 -10 -19 -22 -19 -125 l0 -115 -25 0 -25 0 0 144 c0
129 2 145 18 148 9 3 22 1 27 -3 6 -3 19 -3 30 2z m-705 -210 c0 -66 -4 -122
-8 -125 -5 -3 -27 6 -50 20 l-42 25 0 72 c0 69 1 73 32 99 62 52 68 44 68 -91z"/>
<path d="M2389 1073 c-9 -10 -14 -41 -14 -83 0 -86 18 -110 82 -110 l43 0 0
105 0 105 -49 0 c-33 0 -53 -5 -62 -17z"/>
<path d="M1784 1065 c-23 -36 -16 -152 11 -171 27 -20 69 -17 90 6 33 36 33
141 -1 174 -25 26 -81 20 -100 -9z"/>
</g>
</svg>
