<?xml version="1.0" standalone="no"?>
<!DOCTYPE svg PUBLIC "-//W3C//DTD SVG 20010904//EN"
 "http://www.w3.org/TR/2001/REC-SVG-20010904/DTD/svg10.dtd">
<svg version="1.0" xmlns="http://www.w3.org/2000/svg"
 width="554.000000pt" height="554.000000pt" viewBox="0 0 554.000000 554.000000"
 preserveAspectRatio="xMidYMid meet">

<g transform="translate(0.000000,554.000000) scale(0.100000,-0.100000)"
fill="#000000" stroke="none">
<path d="M590 4805 l0 -135 240 0 240 0 0 -645 0 -645 170 0 170 0 0 645 0
645 240 0 240 0 0 135 0 135 -650 0 -650 0 0 -135z"/>
<path d="M2090 4160 l0 -780 165 0 165 0 0 350 0 350 315 0 315 0 0 -350 0
-350 165 0 165 0 0 780 0 780 -165 0 -165 0 0 -295 0 -295 -315 0 -315 0 0
295 0 295 -165 0 -165 0 0 -780z"/>
<path d="M3710 4160 l0 -780 610 0 610 0 0 140 0 140 -445 0 -445 0 0 205 0
205 390 0 390 0 0 130 0 130 -390 0 -390 0 0 170 0 170 425 0 425 0 0 135 0
135 -590 0 -590 0 0 -780z"/>
<path d="M3951 3319 c-509 -59 -828 -483 -797 -1057 7 -136 27 -235 68 -348
90 -250 310 -450 573 -520 56 -15 105 -19 240 -19 157 1 176 3 250 28 110 37
168 73 263 162 91 86 80 91 102 -45 20 -123 2 -110 150 -110 l130 0 0 500 0
500 -397 0 -398 0 3 -160 3 -160 219 0 c121 0 220 -1 220 -3 0 -2 -7 -28 -16
-58 -41 -139 -123 -236 -251 -296 -72 -35 -84 -37 -194 -41 -140 -5 -219 14
-315 76 -117 76 -182 168 -221 312 -25 94 -25 384 0 493 56 237 215 396 430
429 159 24 332 -27 423 -124 42 -45 94 -136 94 -165 0 -10 46 -13 196 -13
l197 0 -6 45 c-9 62 -41 150 -79 212 -126 208 -343 333 -629 363 -114 11 -152
11 -258 -1z"/>
<path d="M580 2340 l0 -932 528 5 c552 4 598 8 712 53 201 79 327 257 338 479
10 207 -62 347 -220 430 l-71 38 38 20 c21 10 62 43 90 71 65 64 95 139 102
251 10 148 -35 273 -130 363 -62 58 -126 92 -229 124 -71 21 -89 22 -615 26
l-543 3 0 -931z m975 595 c119 -25 160 -74 160 -190 -1 -95 -26 -137 -104
-174 -56 -26 -57 -26 -348 -29 l-293 -3 0 205 0 206 258 0 c188 0 276 -4 327
-15z m36 -721 c63 -18 121 -60 144 -105 25 -47 30 -138 11 -202 -21 -71 -61
-118 -128 -148 -51 -23 -63 -24 -350 -27 l-298 -4 0 251 0 251 282 0 c228 0
293 -3 339 -16z"/>
<path d="M2470 2340 l0 -930 195 0 195 0 0 930 0 930 -195 0 -195 0 0 -930z"/>
<path d="M1765 1331 c-92 -22 -171 -89 -214 -181 -23 -51 -26 -66 -26 -190 0
-127 2 -138 27 -190 32 -64 87 -124 139 -150 84 -43 233 -44 316 -2 70 36 134
120 148 195 l7 37 -71 0 -72 0 -18 -42 c-49 -114 -178 -140 -262 -54 -56 58
-81 170 -60 279 14 79 37 123 79 155 30 23 45 27 98 27 76 0 107 -20 142 -88
l23 -47 69 0 c38 0 71 3 74 8 8 13 -29 107 -54 139 -74 89 -221 134 -345 104z"/>
<path d="M590 960 l0 -360 75 0 75 0 0 134 0 133 123 5 c157 6 214 28 255 97
23 39 27 57 27 126 0 87 -12 119 -60 168 -47 46 -107 57 -312 57 l-183 0 0
-360z m374 221 c47 -44 40 -152 -12 -180 -12 -6 -64 -11 -116 -11 l-96 0 0
103 c0 57 3 107 8 111 4 5 48 6 99 4 80 -3 96 -7 117 -27z"/>
<path d="M1250 960 l0 -360 75 0 75 0 0 360 0 360 -75 0 -75 0 0 -360z"/>
<path d="M2220 1265 l0 -55 110 0 110 0 2 -302 3 -303 75 0 75 0 3 303 2 302
110 0 110 0 0 55 0 55 -300 0 -300 0 0 -55z"/>
<path d="M2913 1053 c2 -177 8 -281 16 -307 7 -21 31 -58 53 -82 50 -54 119
-77 229 -77 99 0 170 24 220 74 62 62 69 102 69 401 l0 258 -74 0 -75 0 -3
-262 c-3 -293 -7 -313 -70 -339 -45 -19 -120 -17 -153 5 -50 33 -55 62 -55
341 l0 255 -81 0 -80 0 4 -267z"/>
<path d="M3660 961 l0 -361 75 0 74 0 3 143 3 142 87 3 c149 5 178 -22 178
-164 0 -34 3 -76 6 -93 l7 -31 83 0 c89 0 98 6 69 44 -10 14 -15 46 -16 105 0
105 -14 149 -56 177 l-32 21 24 11 c12 6 36 27 51 48 26 33 29 46 29 110 0 64
-3 77 -30 115 -55 77 -78 84 -332 87 l-223 4 0 -361z m384 235 c59 -25 74
-128 25 -172 -18 -16 -40 -20 -140 -22 l-119 -4 0 106 0 106 100 0 c64 0 113
-5 134 -14z"/>
<path d="M4390 955 l0 -355 280 0 280 0 0 65 0 65 -205 0 -205 0 0 95 0 95
180 0 180 0 0 60 0 60 -180 0 -180 0 0 75 0 75 195 0 195 0 0 60 0 60 -270 0
-270 0 0 -355z"/>
</g>
</svg>
