<?xml version="1.0" standalone="no"?>
<!DOCTYPE svg PUBLIC "-//W3C//DTD SVG 20010904//EN"
 "http://www.w3.org/TR/2001/REC-SVG-20010904/DTD/svg10.dtd">
<svg version="1.0" xmlns="http://www.w3.org/2000/svg"
 width="400.000000pt" height="400.000000pt" viewBox="0 0 400.000000 400.000000"
 preserveAspectRatio="xMidYMid meet">

<g transform="translate(0.000000,400.000000) scale(0.100000,-0.100000)"
fill="#000000" stroke="none">
<path d="M0 2000 l0 -2000 2000 0 2000 0 0 2000 0 2000 -2000 0 -2000 0 0
-2000z m760 480 l0 -50 -65 0 -65 0 0 -160 0 -160 -55 0 -55 0 0 160 0 160
-58 0 -57 0 1 48 c1 26 2 48 3 50 1 1 80 2 176 2 l175 0 0 -50z m170 -28 l0
-77 53 -3 c28 -1 57 1 64 6 7 4 13 37 15 77 l3 70 58 3 57 3 0 -211 0 -210
-60 0 -60 0 0 80 0 80 -65 0 -65 0 0 -80 0 -80 -55 0 -55 0 0 210 0 210 55 0
55 0 0 -78z m448 -134 l2 -208 -55 0 -55 0 0 211 0 210 53 -3 52 -3 3 -207z
m257 95 l70 -113 3 115 3 115 54 0 55 0 0 -210 0 -210 -49 0 -49 0 -63 100
c-35 56 -69 109 -76 118 -10 14 -12 -5 -13 -100 l0 -118 -50 0 -50 0 0 211 0
210 47 -3 47 -3 71 -112z m385 43 l5 -69 60 71 60 71 58 0 c31 1 57 -2 57 -5
0 -3 -27 -38 -60 -78 -33 -40 -60 -76 -60 -80 0 -4 26 -53 58 -109 95 -165 92
-147 23 -147 l-60 0 -27 48 c-15 26 -38 66 -51 90 l-24 43 -20 -25 c-14 -18
-19 -40 -19 -90 l0 -66 -55 0 -55 0 0 211 0 210 53 -3 52 -3 5 -69z m-1380
-581 c79 -41 79 -189 -1 -230 -18 -10 -59 -20 -91 -22 l-58 -6 0 -63 0 -64
-50 0 -50 0 0 199 c0 181 2 200 18 205 36 11 200 -2 232 -19z m401 -1 c65 -38
77 -147 23 -201 l-25 -25 41 -80 42 -79 -58 3 -58 3 -33 68 c-32 65 -35 68
-66 65 l-32 -3 0 -68 0 -67 -47 0 -48 0 0 206 0 206 113 -4 c90 -3 121 -8 148
-24z m441 2 c93 -61 112 -238 35 -331 -38 -47 -81 -65 -154 -65 -79 0 -136 29
-169 87 -23 37 -27 56 -27 121 0 108 36 174 113 205 32 14 174 1 202 -17z
m465 -2 c15 -11 36 -36 46 -55 17 -34 17 -34 -5 -41 -48 -13 -81 -8 -104 17
-37 40 -94 32 -119 -16 -22 -41 -20 -151 3 -178 21 -26 66 -39 106 -32 57 11
62 71 6 71 -28 0 -30 2 -30 40 l0 40 80 0 81 0 -3 -97 -3 -96 -40 -21 c-62
-32 -177 -34 -234 -4 -64 33 -91 90 -91 189 0 146 68 214 207 207 53 -2 79 -9
100 -24z m410 2 c38 -19 63 -62 63 -106 0 -40 -23 -95 -46 -108 -16 -9 -14
-16 25 -91 l42 -81 -56 0 -56 0 -32 70 c-30 65 -34 69 -64 70 l-33 0 0 -70 0
-70 -50 0 -50 0 0 205 0 206 113 -4 c80 -3 121 -9 144 -21z m433 -22 l0 -44
-90 0 -90 0 0 -35 0 -35 90 0 90 0 0 -45 0 -45 -90 0 -90 0 0 -39 0 -40 100 2
c80 2 99 -1 95 -11 -3 -8 -5 -27 -5 -43 l0 -29 -150 0 -150 0 0 199 c0 150 3
200 13 204 6 2 72 4 145 5 l132 0 0 -44z m335 32 c33 -14 57 -43 69 -82 6 -19
2 -21 -45 -23 -42 -2 -54 2 -66 18 -18 27 -100 30 -110 5 -11 -29 12 -49 78
-65 91 -22 128 -44 145 -85 29 -69 -15 -153 -87 -168 -61 -12 -143 -6 -179 12
-35 18 -85 96 -74 113 3 5 28 9 55 9 38 0 51 -4 56 -17 10 -27 35 -42 66 -43
38 0 67 17 67 39 0 27 -19 39 -81 52 -84 18 -122 39 -142 81 -28 58 0 135 57
158 34 14 154 11 191 -4z m419 -6 c33 -20 69 -76 60 -92 -3 -4 -27 -8 -54 -8
-39 0 -51 4 -60 21 -9 17 -19 20 -58 17 -43 -3 -47 -5 -50 -30 -3 -24 1 -28
40 -38 169 -45 188 -59 188 -142 0 -61 -20 -92 -71 -112 -45 -18 -144 -21
-186 -5 -40 14 -73 54 -80 92 l-5 33 51 3 c40 1 51 -1 51 -13 0 -39 93 -62
124 -30 37 36 17 55 -82 79 -116 28 -156 77 -132 165 15 57 54 77 151 79 65 2
86 -2 113 -19z"/>
<path d="M490 1761 c0 -68 3 -70 73 -50 33 9 37 13 37 43 0 41 -14 53 -68 62
l-42 7 0 -62z"/>
<path d="M874 1806 c-3 -8 -4 -31 -2 -52 l3 -39 53 0 c35 1 56 6 62 15 28 44
-9 90 -70 90 -26 0 -43 -5 -46 -14z"/>
<path d="M1323 1808 c-13 -6 -30 -30 -40 -56 -14 -38 -15 -53 -5 -99 13 -64
32 -82 85 -83 51 0 83 33 92 93 16 105 -54 181 -132 145z"/>
<path d="M2200 1766 l0 -56 38 0 c46 0 82 24 82 54 0 32 -23 48 -75 54 l-45 4
0 -56z"/>
</g>
</svg>
